<svg version="1.1" xmlns="http://www.w3.org/2000/svg" viewBox="0 0 215.70652173913163 273.63985509745123" width="215.70652173913163" height="273.63985509745123">
  <!-- svg-source:excalidraw -->
  
  <defs>
    <style>
      @font-face {
        font-family: "Virgil";
        src: url("https://excalidraw.com/Virgil.woff2");
      }
      @font-face {
        font-family: "Cascadia";
        src: url("https://excalidraw.com/Cascadia.woff2");
      }
    </style>
  </defs>
  <g transform="translate(202.51241395431384 52.557021086231074) rotate(0 -0.20161290322585046 67.74193548387098)" stroke="none" fill="#000000"><path d="M 1.31,5.48 Q 1.31,5.48 1.11,7.56 0.91,9.64 0.71,11.56 0.51,13.48 0.44,18.04 0.37,22.60 0.19,29.56 0.01,36.52 -0.21,43.43 -0.43,50.33 -0.53,57.07 -0.63,63.82 -0.59,72.00 -0.56,80.19 -0.32,86.78 -0.08,93.38 0.42,100.22 0.93,107.06 2.10,112.14 3.27,117.21 3.76,121.89 4.26,126.56 4.47,129.18 4.69,131.81 4.78,132.91 4.87,134.01 4.83,134.49 4.79,134.98 4.60,135.43 4.41,135.87 4.09,136.23 3.76,136.60 3.34,136.84 2.92,137.08 2.44,137.17 1.96,137.26 1.48,137.19 1.00,137.13 0.56,136.91 0.13,136.70 -0.21,136.35 -0.55,136.01 -0.77,135.58 -0.98,135.14 -1.05,134.66 -1.12,134.18 -1.03,133.70 -0.93,133.22 -0.70,132.80 -0.46,132.37 -0.09,132.05 0.26,131.72 0.70,131.53 1.15,131.34 1.63,131.30 2.12,131.26 2.59,131.38 3.06,131.49 3.47,131.76 3.88,132.02 4.19,132.40 4.49,132.77 4.66,133.23 4.83,133.69 4.84,134.17 4.86,134.66 4.71,135.12 4.57,135.59 4.29,135.98 4.00,136.38 3.61,136.66 3.21,136.95 2.75,137.09 2.28,137.23 1.80,137.22 1.31,137.21 0.86,137.04 0.40,136.87 0.02,136.57 -0.35,136.26 -0.61,135.85 -0.87,135.44 -0.99,134.97 -1.11,134.50 -1.20,133.40 -1.29,132.30 -1.50,129.75 -1.71,127.19 -2.21,122.41 -2.72,117.63 -2.28,112.46 -1.84,107.30 -2.47,100.40 -3.11,93.50 -3.41,86.86 -3.70,80.22 -3.84,72.00 -3.98,63.78 -3.92,57.01 -3.86,50.24 -3.72,43.34 -3.59,36.44 -3.46,29.49 -3.33,22.53 -3.23,17.81 -3.12,13.09 -2.91,11.18 -2.69,9.26 -2.47,7.22 -2.24,5.17 -1.96,2.30 -1.69,-0.57 -1.59,-0.77 -1.50,-0.96 -1.36,-1.13 -1.22,-1.29 -1.05,-1.42 -0.88,-1.55 -0.68,-1.63 -0.48,-1.71 -0.27,-1.75 -0.06,-1.78 0.15,-1.76 0.36,-1.74 0.57,-1.67 0.77,-1.60 0.95,-1.49 1.13,-1.37 1.28,-1.22 1.43,-1.06 1.54,-0.87 1.64,-0.68 1.70,-0.48 1.76,-0.27 1.77,-0.06 1.77,0.15 1.54,2.82 L 1.31,5.48 Z"></path></g><g transform="translate(199.01886556721706 50.84089205397299) rotate(0 0.00005000000010113581 0.00005000000000165983)" stroke="none" fill="#000000"><path d="M 2.12,-0.66 Q 2.12,-0.66 2.15,-0.13 2.18,0.40 1.96,0.88 1.74,1.36 1.32,1.69 0.91,2.02 0.38,2.12 -0.13,2.21 -0.64,2.05 -1.14,1.90 -1.52,1.52 -1.90,1.14 -2.05,0.64 -2.21,0.13 -2.12,-0.38 -2.02,-0.91 -1.69,-1.32 -1.36,-1.74 -0.88,-1.96 -0.39,-2.18 0.13,-2.15 0.66,-2.11 1.11,-1.84 1.57,-1.56 1.84,-1.11 L 2.12,-0.66 Z"></path></g><g transform="translate(199.01886556721706 51.34089205397299) rotate(0 0.00005000000010113581 0.00005000000000165983)" stroke="none" fill="#000000"><path d="M 2.12,-0.66 Q 2.12,-0.66 2.15,-0.13 2.18,0.40 1.96,0.88 1.74,1.36 1.32,1.69 0.91,2.02 0.38,2.12 -0.13,2.21 -0.64,2.05 -1.14,1.90 -1.52,1.52 -1.90,1.14 -2.05,0.64 -2.21,0.13 -2.12,-0.38 -2.02,-0.91 -1.69,-1.32 -1.36,-1.74 -0.88,-1.96 -0.39,-2.18 0.13,-2.15 0.66,-2.11 1.11,-1.84 1.57,-1.56 1.84,-1.11 L 2.12,-0.66 Z"></path></g><g transform="translate(199.01886556721706 51.84089205397301) rotate(0 0.00005000000010113581 0.00005000000000165983)" stroke="none" fill="#000000"><path d="M 2.12,-0.66 Q 2.12,-0.66 2.15,-0.13 2.18,0.40 1.96,0.88 1.74,1.36 1.32,1.69 0.91,2.02 0.38,2.12 -0.13,2.21 -0.64,2.05 -1.14,1.90 -1.52,1.52 -1.90,1.14 -2.05,0.64 -2.21,0.13 -2.12,-0.38 -2.02,-0.91 -1.69,-1.32 -1.36,-1.74 -0.88,-1.96 -0.39,-2.18 0.13,-2.15 0.66,-2.11 1.11,-1.84 1.57,-1.56 1.84,-1.11 L 2.12,-0.66 Z"></path></g><g transform="translate(199.01886556721706 51.84089205397301) rotate(0 0.25 0.25)" stroke="none" fill="#000000"><path d="M 2.12,-0.66 Q 2.12,-0.66 2.15,-0.13 2.18,0.40 1.96,0.88 1.74,1.36 1.32,1.69 0.91,2.02 0.38,2.12 -0.13,2.21 -0.64,2.05 -1.14,1.90 -1.52,1.52 -1.90,1.14 -2.05,0.64 -2.21,0.13 -2.12,-0.38 -2.02,-0.91 -1.69,-1.32 -1.36,-1.74 -0.88,-1.96 -0.39,-2.18 0.13,-2.15 0.66,-2.11 1.11,-1.84 1.57,-1.56 1.84,-1.11 L 2.12,-0.66 Z"></path></g><g transform="translate(200.01886556721706 54.34089205397301) rotate(0 0.00005000000010113581 0.00005000000000165983)" stroke="none" fill="#000000"><path d="M 2.12,-0.66 Q 2.12,-0.66 2.15,-0.13 2.18,0.40 1.96,0.88 1.74,1.36 1.32,1.69 0.91,2.02 0.38,2.12 -0.13,2.21 -0.64,2.05 -1.14,1.90 -1.52,1.52 -1.90,1.14 -2.05,0.64 -2.21,0.13 -2.12,-0.38 -2.02,-0.91 -1.69,-1.32 -1.36,-1.74 -0.88,-1.96 -0.39,-2.18 0.13,-2.15 0.66,-2.11 1.11,-1.84 1.57,-1.56 1.84,-1.11 L 2.12,-0.66 Z"></path></g><g transform="translate(200.01886556721706 54.34089205397301) rotate(0 0.00005000000010113581 0.00005000000000165983)" stroke="none" fill="#000000"><path d="M 2.12,-0.66 Q 2.12,-0.66 2.15,-0.13 2.18,0.40 1.96,0.88 1.74,1.36 1.32,1.69 0.91,2.02 0.38,2.12 -0.13,2.21 -0.64,2.05 -1.14,1.90 -1.52,1.52 -1.90,1.14 -2.05,0.64 -2.21,0.13 -2.12,-0.38 -2.02,-0.91 -1.69,-1.32 -1.36,-1.74 -0.88,-1.96 -0.39,-2.18 0.13,-2.15 0.66,-2.11 1.11,-1.84 1.57,-1.56 1.84,-1.11 L 2.12,-0.66 Z"></path></g><g transform="translate(200.01886556721706 53.84089205397301) rotate(0 -13.5 14.499999999999993)" stroke="none" fill="#000000"><path d="M 0.17,2.49 Q 0.17,2.49 -1.33,4.31 -2.83,6.13 -4.23,7.71 -5.63,9.29 -7.14,10.73 -8.65,12.18 -9.98,13.48 -11.31,14.79 -12.45,15.91 -13.60,17.04 -14.95,18.38 -16.30,19.71 -17.46,20.84 -18.63,21.97 -19.89,23.12 -21.15,24.27 -22.16,25.15 -23.17,26.03 -23.09,27.41 -23.02,28.78 -23.69,29.64 -24.35,30.49 -24.71,30.82 -25.07,31.15 -25.51,31.35 -25.96,31.55 -26.44,31.60 -26.92,31.64 -27.40,31.53 -27.87,31.42 -28.28,31.16 -28.70,30.91 -29.01,30.53 -29.32,30.16 -29.49,29.70 -29.66,29.25 -29.68,28.76 -29.70,28.28 -29.57,27.81 -29.43,27.35 -29.15,26.95 -28.87,26.55 -28.48,26.26 -28.09,25.97 -27.63,25.82 -27.17,25.67 -26.68,25.68 -26.19,25.69 -25.74,25.85 -25.28,26.01 -24.89,26.31 -24.51,26.61 -24.24,27.01 -23.98,27.42 -23.85,27.89 -23.73,28.36 -23.76,28.84 -23.79,29.33 -23.98,29.78 -24.17,30.23 -24.49,30.59 -24.81,30.96 -25.23,31.21 -25.65,31.45 -26.12,31.55 -26.60,31.65 -27.08,31.59 -27.56,31.53 -28.00,31.32 -28.44,31.11 -28.79,30.77 -29.14,30.43 -29.36,30.00 -29.58,29.56 -29.65,29.08 -29.73,28.60 -29.64,28.12 -29.56,27.65 -29.32,27.22 -29.09,26.79 -28.51,26.06 -27.93,25.32 -26.48,24.75 -25.03,24.17 -24.15,23.16 -23.27,22.15 -22.12,20.89 -20.97,19.63 -19.83,18.47 -18.70,17.31 -17.35,15.95 -16.01,14.60 -14.86,13.47 -13.72,12.33 -12.37,11.01 -11.02,9.69 -9.61,8.35 -8.20,7.01 -6.78,5.41 -5.36,3.81 -3.92,2.09 -2.47,0.37 -1.75,-0.48 -1.03,-1.34 -0.85,-1.44 -0.67,-1.55 -0.48,-1.61 -0.28,-1.66 -0.08,-1.67 0.11,-1.68 0.31,-1.65 0.52,-1.61 0.70,-1.52 0.89,-1.44 1.05,-1.31 1.20,-1.18 1.33,-1.02 1.45,-0.86 1.54,-0.67 1.62,-0.48 1.65,-0.28 1.69,-0.08 1.67,0.11 1.66,0.32 1.59,0.51 1.53,0.71 1.42,0.88 1.32,1.05 0.74,1.77 L 0.17,2.49 Z"></path></g><g transform="translate(169.01886556721706 83.340892053973) rotate(0 -0.5 20.25)" stroke="none" fill="#000000"><path d="M 1.84,1.46 Q 1.84,1.46 1.98,3.22 2.13,4.98 2.17,6.13 2.20,7.29 2.08,9.37 1.96,11.44 1.76,12.97 1.56,14.50 1.48,16.35 1.41,18.21 1.22,20.09 1.04,21.97 0.97,23.56 0.90,25.15 0.72,26.91 0.55,28.66 0.48,30.20 0.40,31.73 0.37,32.82 0.34,33.91 0.32,35.61 0.30,37.30 0.30,38.64 0.29,39.97 0.27,39.98 0.24,39.99 0.22,40.20 0.19,40.41 0.12,40.60 0.04,40.80 -0.07,40.97 -0.19,41.15 -0.35,41.28 -0.50,41.42 -0.69,41.52 -0.88,41.62 -1.08,41.67 -1.29,41.72 -1.50,41.72 -1.71,41.72 -1.91,41.67 -2.12,41.62 -2.30,41.52 -2.49,41.42 -2.65,41.28 -2.80,41.14 -2.92,40.97 -3.04,40.79 -3.12,40.60 -3.19,40.40 -3.22,40.19 -3.24,39.98 -3.87,39.06 -4.50,38.15 -4.42,37.67 -4.34,37.19 -4.12,36.76 -3.89,36.33 -3.53,35.99 -3.18,35.66 -2.74,35.46 -2.30,35.25 -1.82,35.20 -1.33,35.15 -0.86,35.25 -0.38,35.35 0.02,35.61 0.44,35.86 0.76,36.23 1.07,36.60 1.25,37.05 1.43,37.50 1.46,37.99 1.48,38.47 1.35,38.94 1.22,39.41 0.95,39.81 0.68,40.21 0.29,40.51 -0.09,40.80 -0.55,40.96 -1.01,41.11 -1.49,41.11 -1.98,41.11 -2.44,40.96 -2.90,40.80 -3.29,40.51 -3.68,40.21 -3.95,39.81 -4.22,39.41 -4.35,38.94 -4.48,38.47 -4.46,37.99 -4.43,37.50 -4.25,37.05 -4.07,36.60 -3.76,36.23 -3.44,35.86 -3.02,35.61 -2.61,35.35 -2.13,35.25 -1.66,35.15 -1.17,35.20 -0.69,35.25 -0.25,35.46 0.18,35.66 0.53,35.99 0.89,36.33 1.12,36.76 1.34,37.19 1.42,37.67 1.50,38.15 0.87,39.07 0.24,39.99 0.22,40.20 0.19,40.40 0.12,40.60 0.04,40.80 -0.07,40.97 -0.19,41.15 -0.35,41.28 -0.50,41.42 -0.69,41.52 -0.88,41.62 -1.08,41.67 -1.29,41.72 -1.50,41.72 -1.71,41.72 -1.91,41.67 -2.12,41.62 -2.30,41.52 -2.49,41.42 -2.65,41.28 -2.80,41.14 -2.92,40.97 -3.04,40.79 -3.12,40.60 -3.19,40.40 -3.22,40.19 -3.24,39.98 -3.27,39.98 -3.29,39.97 -3.29,38.62 -3.28,37.28 -3.27,35.54 -3.25,33.81 -3.22,32.69 -3.18,31.56 -3.10,29.93 -3.03,28.29 -2.85,26.64 -2.67,24.99 -2.59,23.30 -2.51,21.62 -2.33,19.83 -2.15,18.05 -2.05,16.04 -1.96,14.02 -1.75,12.52 -1.55,11.02 -1.39,9.17 -1.24,7.32 -1.22,6.19 -1.21,5.07 -1.23,3.52 -1.26,1.98 -1.41,0.93 -1.56,-0.12 -1.53,-0.30 -1.49,-0.49 -1.41,-0.66 -1.33,-0.83 -1.21,-0.98 -1.09,-1.13 -0.94,-1.24 -0.79,-1.36 -0.61,-1.43 -0.44,-1.51 -0.25,-1.54 -0.06,-1.57 0.11,-1.55 0.30,-1.54 0.48,-1.48 0.66,-1.42 0.83,-1.32 0.99,-1.22 1.12,-1.08 1.25,-0.95 1.35,-0.78 1.44,-0.62 1.49,-0.44 1.55,-0.25 1.69,0.60 L 1.84,1.46 Z"></path></g><g transform="translate(165.51886556721706 125.840892053973) rotate(0 0.00005000000010113581 0.00005000000000165983)" stroke="none" fill="#000000"><path d="M 2.12,-0.66 Q 2.12,-0.66 2.15,-0.13 2.18,0.40 1.96,0.88 1.74,1.36 1.32,1.69 0.91,2.02 0.38,2.12 -0.13,2.21 -0.64,2.05 -1.14,1.90 -1.52,1.52 -1.90,1.14 -2.05,0.64 -2.21,0.13 -2.12,-0.38 -2.02,-0.91 -1.69,-1.32 -1.36,-1.74 -0.88,-1.96 -0.39,-2.18 0.13,-2.15 0.66,-2.11 1.11,-1.84 1.57,-1.56 1.84,-1.11 L 2.12,-0.66 Z"></path></g><g transform="translate(165.51886556721706 126.840892053973) rotate(0 0.00005000000010113581 0.00005000000000165983)" stroke="none" fill="#000000"><path d="M 2.12,-0.66 Q 2.12,-0.66 2.15,-0.13 2.18,0.40 1.96,0.88 1.74,1.36 1.32,1.69 0.91,2.02 0.38,2.12 -0.13,2.21 -0.64,2.05 -1.14,1.90 -1.52,1.52 -1.90,1.14 -2.05,0.64 -2.21,0.13 -2.12,-0.38 -2.02,-0.91 -1.69,-1.32 -1.36,-1.74 -0.88,-1.96 -0.39,-2.18 0.13,-2.15 0.66,-2.11 1.11,-1.84 1.57,-1.56 1.84,-1.11 L 2.12,-0.66 Z"></path></g><g transform="translate(167.5688155672176 120.24084205397298) rotate(0 0.00005000000010113581 0.00005000000000165983)" stroke="none" fill="#000000"><path d="M 2.12,-0.66 Q 2.12,-0.66 2.15,-0.13 2.18,0.40 1.96,0.88 1.74,1.36 1.32,1.69 0.91,2.02 0.38,2.12 -0.13,2.21 -0.64,2.05 -1.14,1.90 -1.52,1.52 -1.90,1.14 -2.05,0.64 -2.21,0.13 -2.12,-0.38 -2.02,-0.91 -1.69,-1.32 -1.36,-1.74 -0.88,-1.96 -0.39,-2.18 0.13,-2.15 0.66,-2.11 1.11,-1.84 1.57,-1.56 1.84,-1.11 L 2.12,-0.66 Z"></path></g><g transform="translate(167.5688155672176 120.74084205397298) rotate(0 0.00005000000010113581 0.00005000000000165983)" stroke="none" fill="#000000"><path d="M 2.12,-0.66 Q 2.12,-0.66 2.15,-0.13 2.18,0.40 1.96,0.88 1.74,1.36 1.32,1.69 0.91,2.02 0.38,2.12 -0.13,2.21 -0.64,2.05 -1.14,1.90 -1.52,1.52 -1.90,1.14 -2.05,0.64 -2.21,0.13 -2.12,-0.38 -2.02,-0.91 -1.69,-1.32 -1.36,-1.74 -0.88,-1.96 -0.39,-2.18 0.13,-2.15 0.66,-2.11 1.11,-1.84 1.57,-1.56 1.84,-1.11 L 2.12,-0.66 Z"></path></g><g transform="translate(167.5688155672176 121.24084205397298) rotate(0 0.00005000000010113581 0.00005000000000165983)" stroke="none" fill="#000000"><path d="M 2.12,-0.66 Q 2.12,-0.66 2.15,-0.13 2.18,0.40 1.96,0.88 1.74,1.36 1.32,1.69 0.91,2.02 0.38,2.12 -0.13,2.21 -0.64,2.05 -1.14,1.90 -1.52,1.52 -1.90,1.14 -2.05,0.64 -2.21,0.13 -2.12,-0.38 -2.02,-0.91 -1.69,-1.32 -1.36,-1.74 -0.88,-1.96 -0.39,-2.18 0.13,-2.15 0.66,-2.11 1.11,-1.84 1.57,-1.56 1.84,-1.11 L 2.12,-0.66 Z"></path></g><g transform="translate(167.5688155672176 121.24084205397298) rotate(0 0.25 0.25)" stroke="none" fill="#000000"><path d="M 2.12,-0.66 Q 2.12,-0.66 2.15,-0.13 2.18,0.40 1.96,0.88 1.74,1.36 1.32,1.69 0.91,2.02 0.38,2.12 -0.13,2.21 -0.64,2.05 -1.14,1.90 -1.52,1.52 -1.90,1.14 -2.05,0.64 -2.21,0.13 -2.12,-0.38 -2.02,-0.91 -1.69,-1.32 -1.36,-1.74 -0.88,-1.96 -0.39,-2.18 0.13,-2.15 0.66,-2.11 1.11,-1.84 1.57,-1.56 1.84,-1.11 L 2.12,-0.66 Z"></path></g><g transform="translate(168.5688155672176 123.74084205397298) rotate(0 0.00005000000010113581 0.00005000000000165983)" stroke="none" fill="#000000"><path d="M 2.12,-0.66 Q 2.12,-0.66 2.15,-0.13 2.18,0.40 1.96,0.88 1.74,1.36 1.32,1.69 0.91,2.02 0.38,2.12 -0.13,2.21 -0.64,2.05 -1.14,1.90 -1.52,1.52 -1.90,1.14 -2.05,0.64 -2.21,0.13 -2.12,-0.38 -2.02,-0.91 -1.69,-1.32 -1.36,-1.74 -0.88,-1.96 -0.39,-2.18 0.13,-2.15 0.66,-2.11 1.11,-1.84 1.57,-1.56 1.84,-1.11 L 2.12,-0.66 Z"></path></g><g transform="translate(168.5688155672176 123.74084205397298) rotate(0 0.00005000000010113581 0.00005000000000165983)" stroke="none" fill="#000000"><path d="M 2.12,-0.66 Q 2.12,-0.66 2.15,-0.13 2.18,0.40 1.96,0.88 1.74,1.36 1.32,1.69 0.91,2.02 0.38,2.12 -0.13,2.21 -0.64,2.05 -1.14,1.90 -1.52,1.52 -1.90,1.14 -2.05,0.64 -2.21,0.13 -2.12,-0.38 -2.02,-0.91 -1.69,-1.32 -1.36,-1.74 -0.88,-1.96 -0.39,-2.18 0.13,-2.15 0.66,-2.11 1.11,-1.84 1.57,-1.56 1.84,-1.11 L 2.12,-0.66 Z"></path></g><g transform="translate(168.5688155672176 123.24084205397298) rotate(0 -13.5 14.5)" stroke="none" fill="#000000"><path d="M 0.17,2.49 Q 0.17,2.49 -1.33,4.31 -2.83,6.13 -4.23,7.71 -5.63,9.29 -7.14,10.73 -8.65,12.18 -9.98,13.48 -11.31,14.79 -12.45,15.91 -13.60,17.04 -14.95,18.38 -16.30,19.71 -17.46,20.84 -18.63,21.97 -19.89,23.12 -21.15,24.27 -22.16,25.15 -23.17,26.03 -23.09,27.41 -23.02,28.78 -23.69,29.64 -24.35,30.49 -24.71,30.82 -25.07,31.15 -25.51,31.35 -25.96,31.55 -26.44,31.60 -26.92,31.64 -27.40,31.53 -27.87,31.42 -28.28,31.16 -28.70,30.91 -29.01,30.53 -29.32,30.16 -29.49,29.70 -29.66,29.25 -29.68,28.76 -29.70,28.28 -29.57,27.81 -29.43,27.35 -29.15,26.95 -28.87,26.55 -28.48,26.26 -28.09,25.97 -27.63,25.82 -27.17,25.67 -26.68,25.68 -26.19,25.69 -25.74,25.85 -25.28,26.01 -24.89,26.31 -24.51,26.61 -24.24,27.01 -23.98,27.42 -23.85,27.89 -23.73,28.36 -23.76,28.84 -23.79,29.33 -23.98,29.78 -24.17,30.23 -24.49,30.59 -24.81,30.96 -25.23,31.21 -25.65,31.45 -26.12,31.55 -26.60,31.65 -27.08,31.59 -27.56,31.53 -28.00,31.32 -28.44,31.11 -28.79,30.77 -29.14,30.43 -29.36,30.00 -29.58,29.56 -29.65,29.08 -29.73,28.60 -29.64,28.12 -29.56,27.65 -29.32,27.22 -29.09,26.79 -28.51,26.06 -27.93,25.32 -26.48,24.75 -25.03,24.17 -24.15,23.16 -23.27,22.15 -22.12,20.89 -20.97,19.63 -19.83,18.47 -18.70,17.31 -17.35,15.95 -16.01,14.60 -14.86,13.47 -13.72,12.33 -12.37,11.01 -11.02,9.69 -9.61,8.35 -8.20,7.01 -6.78,5.41 -5.36,3.81 -3.92,2.09 -2.47,0.37 -1.75,-0.48 -1.03,-1.34 -0.85,-1.44 -0.67,-1.55 -0.48,-1.61 -0.28,-1.66 -0.08,-1.67 0.11,-1.68 0.31,-1.65 0.52,-1.61 0.70,-1.52 0.89,-1.44 1.05,-1.31 1.20,-1.18 1.33,-1.02 1.45,-0.86 1.54,-0.67 1.62,-0.48 1.65,-0.28 1.69,-0.08 1.67,0.11 1.66,0.32 1.59,0.51 1.53,0.71 1.42,0.88 1.32,1.05 0.74,1.77 L 0.17,2.49 Z"></path></g><g transform="translate(137.5688155672176 152.74084205397298) rotate(0 -0.5 18.07608695652175)" stroke="none" fill="#000000"><path d="M 1.83,1.25 Q 1.83,1.25 1.98,2.84 2.13,4.43 2.18,6.16 2.23,7.89 2.10,9.08 1.96,10.26 1.76,11.63 1.56,12.99 1.48,14.63 1.41,16.27 1.22,17.96 1.04,19.65 0.97,21.06 0.90,22.47 0.72,24.05 0.54,25.63 0.47,26.99 0.40,28.35 0.36,30.11 0.32,31.86 0.31,33.02 0.30,34.17 0.27,34.93 0.24,35.69 0.22,35.90 0.19,36.11 0.12,36.31 0.04,36.51 -0.07,36.68 -0.19,36.85 -0.35,36.99 -0.50,37.13 -0.69,37.23 -0.88,37.33 -1.08,37.38 -1.29,37.43 -1.50,37.43 -1.71,37.43 -1.91,37.38 -2.12,37.32 -2.30,37.23 -2.49,37.13 -2.65,36.99 -2.80,36.85 -2.92,36.67 -3.04,36.50 -3.12,36.30 -3.19,36.11 -3.22,35.90 -3.24,35.69 -3.87,34.87 -4.50,34.05 -4.42,33.57 -4.34,33.09 -4.12,32.66 -3.89,32.23 -3.53,31.90 -3.18,31.56 -2.74,31.36 -2.30,31.16 -1.82,31.10 -1.33,31.05 -0.86,31.15 -0.38,31.26 0.02,31.51 0.44,31.76 0.76,32.13 1.07,32.50 1.25,32.95 1.43,33.40 1.46,33.89 1.48,34.38 1.35,34.84 1.22,35.31 0.95,35.72 0.68,36.12 0.29,36.41 -0.09,36.71 -0.55,36.86 -1.01,37.02 -1.49,37.02 -1.98,37.02 -2.44,36.86 -2.90,36.71 -3.29,36.41 -3.68,36.12 -3.95,35.72 -4.22,35.31 -4.35,34.84 -4.48,34.38 -4.46,33.89 -4.43,33.40 -4.25,32.95 -4.07,32.50 -3.76,32.13 -3.44,31.76 -3.02,31.51 -2.61,31.26 -2.13,31.15 -1.66,31.05 -1.17,31.10 -0.69,31.16 -0.25,31.36 0.18,31.56 0.53,31.90 0.89,32.23 1.12,32.66 1.34,33.09 1.42,33.57 1.50,34.05 0.87,34.87 0.24,35.69 0.22,35.90 0.19,36.11 0.12,36.31 0.04,36.51 -0.07,36.68 -0.19,36.85 -0.35,36.99 -0.50,37.13 -0.69,37.23 -0.88,37.33 -1.08,37.38 -1.29,37.43 -1.50,37.43 -1.71,37.43 -1.91,37.38 -2.12,37.32 -2.30,37.23 -2.49,37.13 -2.65,36.99 -2.80,36.85 -2.92,36.68 -3.04,36.50 -3.12,36.30 -3.19,36.11 -3.22,35.90 -3.24,35.69 -3.27,34.92 -3.29,34.15 -3.28,32.98 -3.28,31.80 -3.23,29.98 -3.18,28.16 -3.10,26.68 -3.02,25.21 -2.85,23.75 -2.67,22.28 -2.59,20.77 -2.50,19.25 -2.33,17.68 -2.15,16.10 -2.05,14.28 -1.95,12.46 -1.60,10.19 -1.25,7.91 -1.23,6.22 -1.21,4.53 -1.23,3.18 -1.26,1.82 -1.41,0.86 -1.57,-0.09 -1.53,-0.27 -1.50,-0.46 -1.42,-0.63 -1.34,-0.81 -1.23,-0.96 -1.11,-1.10 -0.96,-1.22 -0.81,-1.34 -0.64,-1.42 -0.47,-1.50 -0.28,-1.53 -0.09,-1.57 0.08,-1.56 0.27,-1.54 0.46,-1.49 0.64,-1.43 0.80,-1.33 0.96,-1.24 1.10,-1.10 1.23,-0.97 1.33,-0.81 1.43,-0.65 1.49,-0.46 1.54,-0.28 1.69,0.48 L 1.83,1.25 Z"></path></g><g transform="translate(134.0688155672176 195.24084205397298) rotate(0 0.00004999999998744897 0.00004999999998744897)" stroke="none" fill="#000000"><path d="M 2.12,-0.66 Q 2.12,-0.66 2.15,-0.13 2.18,0.40 1.96,0.88 1.74,1.36 1.32,1.69 0.91,2.02 0.38,2.12 -0.13,2.21 -0.64,2.05 -1.14,1.90 -1.52,1.52 -1.90,1.14 -2.05,0.64 -2.21,0.13 -2.12,-0.38 -2.02,-0.91 -1.69,-1.32 -1.36,-1.74 -0.88,-1.96 -0.39,-2.18 0.13,-2.15 0.66,-2.11 1.11,-1.84 1.57,-1.56 1.84,-1.11 L 2.12,-0.66 Z"></path></g><g transform="translate(134.0688155672176 196.24084205397298) rotate(0 0.00004999999998744897 0.00004999999998744897)" stroke="none" fill="#000000"><path d="M 2.12,-0.66 Q 2.12,-0.66 2.15,-0.13 2.18,0.40 1.96,0.88 1.74,1.36 1.32,1.69 0.91,2.02 0.38,2.12 -0.13,2.21 -0.64,2.05 -1.14,1.90 -1.52,1.52 -1.90,1.14 -2.05,0.64 -2.21,0.13 -2.12,-0.38 -2.02,-0.91 -1.69,-1.32 -1.36,-1.74 -0.88,-1.96 -0.39,-2.18 0.13,-2.15 0.66,-2.11 1.11,-1.84 1.57,-1.56 1.84,-1.11 L 2.12,-0.66 Z"></path></g><g transform="translate(135.25794600199947 187.63975509745126) rotate(0 0.00004999999998744897 0.00004999999998744897)" stroke="none" fill="#000000"><path d="M 2.12,-0.66 Q 2.12,-0.66 2.15,-0.13 2.18,0.40 1.96,0.88 1.74,1.36 1.32,1.69 0.91,2.02 0.38,2.12 -0.13,2.21 -0.64,2.05 -1.14,1.90 -1.52,1.52 -1.90,1.14 -2.05,0.64 -2.21,0.13 -2.12,-0.38 -2.02,-0.91 -1.69,-1.32 -1.36,-1.74 -0.88,-1.96 -0.39,-2.18 0.13,-2.15 0.66,-2.11 1.11,-1.84 1.57,-1.56 1.84,-1.11 L 2.12,-0.66 Z"></path></g><g transform="translate(135.25794600199947 188.13975509745126) rotate(0 0.00004999999998744897 0.00004999999998744897)" stroke="none" fill="#000000"><path d="M 2.12,-0.66 Q 2.12,-0.66 2.15,-0.13 2.18,0.40 1.96,0.88 1.74,1.36 1.32,1.69 0.91,2.02 0.38,2.12 -0.13,2.21 -0.64,2.05 -1.14,1.90 -1.52,1.52 -1.90,1.14 -2.05,0.64 -2.21,0.13 -2.12,-0.38 -2.02,-0.91 -1.69,-1.32 -1.36,-1.74 -0.88,-1.96 -0.39,-2.18 0.13,-2.15 0.66,-2.11 1.11,-1.84 1.57,-1.56 1.84,-1.11 L 2.12,-0.66 Z"></path></g><g transform="translate(135.25794600199947 188.63975509745126) rotate(0 0.00004999999998744897 0.00004999999998744897)" stroke="none" fill="#000000"><path d="M 2.12,-0.66 Q 2.12,-0.66 2.15,-0.13 2.18,0.40 1.96,0.88 1.74,1.36 1.32,1.69 0.91,2.02 0.38,2.12 -0.13,2.21 -0.64,2.05 -1.14,1.90 -1.52,1.52 -1.90,1.14 -2.05,0.64 -2.21,0.13 -2.12,-0.38 -2.02,-0.91 -1.69,-1.32 -1.36,-1.74 -0.88,-1.96 -0.39,-2.18 0.13,-2.15 0.66,-2.11 1.11,-1.84 1.57,-1.56 1.84,-1.11 L 2.12,-0.66 Z"></path></g><g transform="translate(135.25794600199947 188.63975509745126) rotate(0 0.25 0.25)" stroke="none" fill="#000000"><path d="M 2.12,-0.66 Q 2.12,-0.66 2.15,-0.13 2.18,0.40 1.96,0.88 1.74,1.36 1.32,1.69 0.91,2.02 0.38,2.12 -0.13,2.21 -0.64,2.05 -1.14,1.90 -1.52,1.52 -1.90,1.14 -2.05,0.64 -2.21,0.13 -2.12,-0.38 -2.02,-0.91 -1.69,-1.32 -1.36,-1.74 -0.88,-1.96 -0.39,-2.18 0.13,-2.15 0.66,-2.11 1.11,-1.84 1.57,-1.56 1.84,-1.11 L 2.12,-0.66 Z"></path></g><g transform="translate(136.25794600199947 191.13975509745126) rotate(0 0.00004999999998744897 0.00004999999998744897)" stroke="none" fill="#000000"><path d="M 2.12,-0.66 Q 2.12,-0.66 2.15,-0.13 2.18,0.40 1.96,0.88 1.74,1.36 1.32,1.69 0.91,2.02 0.38,2.12 -0.13,2.21 -0.64,2.05 -1.14,1.90 -1.52,1.52 -1.90,1.14 -2.05,0.64 -2.21,0.13 -2.12,-0.38 -2.02,-0.91 -1.69,-1.32 -1.36,-1.74 -0.88,-1.96 -0.39,-2.18 0.13,-2.15 0.66,-2.11 1.11,-1.84 1.57,-1.56 1.84,-1.11 L 2.12,-0.66 Z"></path></g><g transform="translate(136.25794600199947 191.13975509745126) rotate(0 0.00004999999998744897 0.00004999999998744897)" stroke="none" fill="#000000"><path d="M 2.12,-0.66 Q 2.12,-0.66 2.15,-0.13 2.18,0.40 1.96,0.88 1.74,1.36 1.32,1.69 0.91,2.02 0.38,2.12 -0.13,2.21 -0.64,2.05 -1.14,1.90 -1.52,1.52 -1.90,1.14 -2.05,0.64 -2.21,0.13 -2.12,-0.38 -2.02,-0.91 -1.69,-1.32 -1.36,-1.74 -0.88,-1.96 -0.39,-2.18 0.13,-2.15 0.66,-2.11 1.11,-1.84 1.57,-1.56 1.84,-1.11 L 2.12,-0.66 Z"></path></g><g transform="translate(136.25794600199947 190.63975509745126) rotate(0 -13.5 14.5)" stroke="none" fill="#000000"><path d="M 0.17,2.49 Q 0.17,2.49 -1.33,4.31 -2.83,6.13 -4.23,7.71 -5.63,9.29 -7.14,10.73 -8.65,12.18 -9.98,13.48 -11.31,14.79 -12.45,15.91 -13.60,17.04 -14.95,18.38 -16.30,19.71 -17.46,20.84 -18.63,21.97 -19.89,23.12 -21.15,24.27 -22.16,25.15 -23.17,26.03 -23.09,27.41 -23.02,28.78 -23.69,29.64 -24.35,30.49 -24.71,30.82 -25.07,31.15 -25.51,31.35 -25.96,31.55 -26.44,31.60 -26.92,31.64 -27.40,31.53 -27.87,31.42 -28.28,31.16 -28.70,30.91 -29.01,30.53 -29.32,30.16 -29.49,29.70 -29.66,29.25 -29.68,28.76 -29.70,28.28 -29.57,27.81 -29.43,27.35 -29.15,26.95 -28.87,26.55 -28.48,26.26 -28.09,25.97 -27.63,25.82 -27.17,25.67 -26.68,25.68 -26.19,25.69 -25.74,25.85 -25.28,26.01 -24.89,26.31 -24.51,26.61 -24.24,27.01 -23.98,27.42 -23.85,27.89 -23.73,28.36 -23.76,28.84 -23.79,29.33 -23.98,29.78 -24.17,30.23 -24.49,30.59 -24.81,30.96 -25.23,31.21 -25.65,31.45 -26.12,31.55 -26.60,31.65 -27.08,31.59 -27.56,31.53 -28.00,31.32 -28.44,31.11 -28.79,30.77 -29.14,30.43 -29.36,30.00 -29.58,29.56 -29.65,29.08 -29.73,28.60 -29.64,28.12 -29.56,27.65 -29.32,27.22 -29.09,26.79 -28.51,26.06 -27.93,25.32 -26.48,24.75 -25.03,24.17 -24.15,23.16 -23.27,22.15 -22.12,20.89 -20.97,19.63 -19.83,18.47 -18.70,17.31 -17.35,15.95 -16.01,14.60 -14.86,13.47 -13.72,12.33 -12.37,11.01 -11.02,9.69 -9.61,8.35 -8.20,7.01 -6.78,5.41 -5.36,3.81 -3.92,2.09 -2.47,0.37 -1.75,-0.48 -1.03,-1.34 -0.85,-1.44 -0.67,-1.55 -0.48,-1.61 -0.28,-1.66 -0.08,-1.67 0.11,-1.68 0.31,-1.65 0.52,-1.61 0.70,-1.52 0.89,-1.44 1.05,-1.31 1.20,-1.18 1.33,-1.02 1.45,-0.86 1.54,-0.67 1.62,-0.48 1.65,-0.28 1.69,-0.08 1.67,0.11 1.66,0.32 1.59,0.51 1.53,0.71 1.42,0.88 1.32,1.05 0.74,1.77 L 0.17,2.49 Z"></path></g><g transform="translate(105.25794600199947 220.13975509745126) rotate(0 -0.5 20.25)" stroke="none" fill="#000000"><path d="M 1.84,1.46 Q 1.84,1.46 1.98,3.22 2.13,4.98 2.17,6.13 2.20,7.29 2.08,9.37 1.96,11.44 1.76,12.97 1.56,14.50 1.48,16.35 1.41,18.21 1.22,20.09 1.04,21.97 0.97,23.56 0.90,25.15 0.72,26.91 0.55,28.66 0.48,30.20 0.40,31.73 0.37,32.82 0.34,33.91 0.32,35.61 0.30,37.30 0.30,38.64 0.29,39.97 0.27,39.98 0.24,39.99 0.22,40.20 0.19,40.41 0.12,40.60 0.04,40.80 -0.07,40.97 -0.19,41.15 -0.35,41.28 -0.50,41.42 -0.69,41.52 -0.88,41.62 -1.08,41.67 -1.29,41.72 -1.50,41.72 -1.71,41.72 -1.91,41.67 -2.12,41.62 -2.30,41.52 -2.49,41.42 -2.65,41.28 -2.80,41.14 -2.92,40.97 -3.04,40.79 -3.12,40.60 -3.19,40.40 -3.22,40.19 -3.24,39.98 -3.87,39.06 -4.50,38.15 -4.42,37.67 -4.34,37.19 -4.12,36.76 -3.89,36.33 -3.53,35.99 -3.18,35.66 -2.74,35.46 -2.30,35.25 -1.82,35.20 -1.33,35.15 -0.86,35.25 -0.38,35.35 0.02,35.61 0.44,35.86 0.76,36.23 1.07,36.60 1.25,37.05 1.43,37.50 1.46,37.99 1.48,38.47 1.35,38.94 1.22,39.41 0.95,39.81 0.68,40.21 0.29,40.51 -0.09,40.80 -0.55,40.96 -1.01,41.11 -1.49,41.11 -1.98,41.11 -2.44,40.96 -2.90,40.80 -3.29,40.51 -3.68,40.21 -3.95,39.81 -4.22,39.41 -4.35,38.94 -4.48,38.47 -4.46,37.99 -4.43,37.50 -4.25,37.05 -4.07,36.60 -3.76,36.23 -3.44,35.86 -3.02,35.61 -2.61,35.35 -2.13,35.25 -1.66,35.15 -1.17,35.20 -0.69,35.25 -0.25,35.46 0.18,35.66 0.53,35.99 0.89,36.33 1.12,36.76 1.34,37.19 1.42,37.67 1.50,38.15 0.87,39.07 0.24,39.99 0.22,40.20 0.19,40.40 0.12,40.60 0.04,40.80 -0.07,40.97 -0.19,41.15 -0.35,41.28 -0.50,41.42 -0.69,41.52 -0.88,41.62 -1.08,41.67 -1.29,41.72 -1.50,41.72 -1.71,41.72 -1.91,41.67 -2.12,41.62 -2.30,41.52 -2.49,41.42 -2.65,41.28 -2.80,41.14 -2.92,40.97 -3.04,40.79 -3.12,40.60 -3.19,40.40 -3.22,40.19 -3.24,39.98 -3.27,39.98 -3.29,39.97 -3.29,38.62 -3.28,37.28 -3.27,35.54 -3.25,33.81 -3.22,32.69 -3.18,31.56 -3.10,29.93 -3.03,28.29 -2.85,26.64 -2.67,24.99 -2.59,23.30 -2.51,21.62 -2.33,19.83 -2.15,18.05 -2.05,16.04 -1.96,14.02 -1.75,12.52 -1.55,11.02 -1.39,9.17 -1.24,7.32 -1.22,6.19 -1.21,5.07 -1.23,3.52 -1.26,1.98 -1.41,0.93 -1.56,-0.12 -1.53,-0.30 -1.49,-0.49 -1.41,-0.66 -1.33,-0.83 -1.21,-0.98 -1.09,-1.13 -0.94,-1.24 -0.79,-1.36 -0.61,-1.43 -0.44,-1.51 -0.25,-1.54 -0.06,-1.57 0.11,-1.55 0.30,-1.54 0.48,-1.48 0.66,-1.42 0.83,-1.32 0.99,-1.22 1.12,-1.08 1.25,-0.95 1.35,-0.78 1.44,-0.62 1.49,-0.44 1.55,-0.25 1.69,0.60 L 1.84,1.46 Z"></path></g><g transform="translate(101.75794600199947 262.63975509745126) rotate(0 0.00004999999998744897 0.00004999999998744897)" stroke="none" fill="#000000"><path d="M 2.12,-0.66 Q 2.12,-0.66 2.15,-0.13 2.18,0.40 1.96,0.88 1.74,1.36 1.32,1.69 0.91,2.02 0.38,2.12 -0.13,2.21 -0.64,2.05 -1.14,1.90 -1.52,1.52 -1.90,1.14 -2.05,0.64 -2.21,0.13 -2.12,-0.38 -2.02,-0.91 -1.69,-1.32 -1.36,-1.74 -0.88,-1.96 -0.39,-2.18 0.13,-2.15 0.66,-2.11 1.11,-1.84 1.57,-1.56 1.84,-1.11 L 2.12,-0.66 Z"></path></g><g transform="translate(101.75794600199947 263.63975509745126) rotate(0 0.00004999999998744897 0.00004999999998744897)" stroke="none" fill="#000000"><path d="M 2.12,-0.66 Q 2.12,-0.66 2.15,-0.13 2.18,0.40 1.96,0.88 1.74,1.36 1.32,1.69 0.91,2.02 0.38,2.12 -0.13,2.21 -0.64,2.05 -1.14,1.90 -1.52,1.52 -1.90,1.14 -2.05,0.64 -2.21,0.13 -2.12,-0.38 -2.02,-0.91 -1.69,-1.32 -1.36,-1.74 -0.88,-1.96 -0.39,-2.18 0.13,-2.15 0.66,-2.11 1.11,-1.84 1.57,-1.56 1.84,-1.11 L 2.12,-0.66 Z"></path></g><g transform="translate(204.07608695652266 188.08695652173913) rotate(0 0.00005000000010113581 0.00004999999998744897)" stroke="none" fill="#000000"><path d="M 2.12,-0.66 Q 2.12,-0.66 2.15,-0.13 2.18,0.40 1.96,0.88 1.74,1.36 1.32,1.69 0.91,2.02 0.38,2.12 -0.13,2.21 -0.64,2.05 -1.14,1.90 -1.52,1.52 -1.90,1.14 -2.05,0.64 -2.21,0.13 -2.12,-0.38 -2.02,-0.91 -1.69,-1.32 -1.36,-1.74 -0.88,-1.96 -0.39,-2.18 0.13,-2.15 0.66,-2.11 1.11,-1.84 1.57,-1.56 1.84,-1.11 L 2.12,-0.66 Z"></path></g><g transform="translate(200.27173913043566 187.00000000000006) rotate(0 -45.6521739130435 37.22826086956522)" stroke="none" fill="#000000"><path d="M 4.88,2.02 Q 4.88,2.02 4.36,3.21 3.83,4.40 2.72,4.11 1.60,3.83 0.24,4.94 -1.11,6.05 -2.23,6.93 -3.34,7.81 -4.70,8.70 -6.06,9.60 -8.24,11.09 -10.42,12.58 -12.53,13.90 -14.64,15.22 -16.83,16.59 -19.03,17.95 -21.39,19.62 -23.76,21.29 -25.75,22.79 -27.74,24.28 -29.59,25.69 -31.45,27.10 -33.87,29.22 -36.30,31.34 -38.35,33.08 -40.41,34.82 -42.59,36.68 -44.78,38.54 -46.38,39.83 -47.98,41.12 -49.53,42.18 -51.08,43.24 -52.67,44.46 -54.25,45.67 -55.40,46.64 -56.55,47.62 -57.90,48.70 -59.25,49.78 -60.34,50.57 -61.43,51.37 -62.32,52.14 -63.22,52.90 -64.16,53.60 -65.11,54.30 -66.23,54.96 -67.35,55.62 -68.96,56.52 -70.57,57.42 -71.86,58.25 -73.15,59.09 -74.14,59.89 -75.13,60.69 -76.20,61.29 -77.27,61.89 -78.26,62.65 -79.26,63.42 -80.30,64.38 -81.33,65.35 -82.31,66.21 -83.28,67.07 -84.21,67.82 -85.13,68.56 -86.10,69.50 -87.06,70.44 -88.07,71.38 -89.09,72.31 -90.28,73.01 -91.47,73.71 -92.77,74.59 -94.07,75.48 -95.52,75.66 -96.98,75.85 -97.43,74.67 -97.89,73.50 -97.78,73.32 -97.67,73.14 -97.51,73.00 -97.35,72.86 -97.15,72.78 -96.95,72.70 -96.74,72.69 -96.52,72.68 -96.32,72.74 -96.11,72.79 -95.94,72.91 -95.76,73.03 -95.63,73.20 -95.50,73.37 -95.43,73.57 -95.37,73.77 -95.37,73.99 -95.37,74.20 -95.43,74.40 -95.50,74.60 -95.63,74.77 -95.76,74.94 -95.94,75.06 -96.11,75.18 -96.32,75.24 -96.52,75.30 -96.73,75.29 -96.95,75.27 -97.15,75.20 -97.34,75.12 -97.51,74.98 -97.67,74.84 -97.78,74.66 -97.89,74.48 -97.93,74.27 -97.98,74.06 -97.96,73.85 -97.93,73.64 -97.85,73.44 -97.76,73.25 -97.61,73.09 -97.46,72.94 -97.28,72.84 -97.09,72.74 -96.88,72.71 -96.67,72.67 -96.46,72.71 -96.25,72.74 -96.06,72.84 -95.87,72.94 -95.72,73.09 -95.58,73.25 -95.49,73.44 -95.40,73.63 -95.37,73.85 -95.35,74.06 -95.40,74.27 -95.44,74.47 -96.08,73.76 -96.71,73.04 -95.58,72.48 -94.45,71.91 -93.32,71.15 -92.19,70.39 -91.38,69.61 -90.57,68.84 -89.65,68.15 -88.73,67.46 -87.66,66.46 -86.58,65.45 -85.69,64.47 -84.79,63.49 -83.59,62.49 -82.38,61.49 -81.30,60.57 -80.23,59.65 -78.77,58.79 -77.31,57.94 -76.17,57.05 -75.03,56.16 -73.64,55.28 -72.26,54.39 -70.67,53.50 -69.08,52.61 -67.27,51.44 -65.46,50.27 -64.46,49.42 -63.47,48.58 -62.44,47.83 -61.41,47.08 -60.10,46.03 -58.79,44.98 -57.56,43.95 -56.34,42.92 -54.67,41.67 -53.00,40.42 -51.55,39.44 -50.10,38.47 -48.53,37.22 -46.96,35.98 -44.78,34.12 -42.60,32.26 -40.60,30.53 -38.61,28.80 -36.16,26.49 -33.72,24.19 -31.87,22.71 -30.03,21.24 -27.98,19.70 -25.93,18.17 -23.44,16.46 -20.96,14.76 -18.73,13.45 -16.50,12.14 -14.43,10.92 -12.35,9.70 -10.11,8.24 -7.87,6.78 -6.59,5.97 -5.32,5.17 -4.11,4.31 -2.91,3.45 -1.34,2.44 0.22,1.43 0.75,0.19 1.28,-1.03 2.31,-0.57 3.34,-0.10 4.14,-0.66 4.94,-1.22 5.09,-1.26 5.24,-1.30 5.40,-1.30 5.56,-1.30 5.72,-1.27 5.87,-1.24 6.01,-1.16 6.16,-1.09 6.28,-0.99 6.40,-0.89 6.49,-0.76 6.58,-0.63 6.64,-0.48 6.70,-0.34 6.72,-0.18 6.75,-0.02 6.73,0.13 6.71,0.28 6.66,0.43 6.61,0.58 6.52,0.72 6.43,0.85 6.32,0.96 6.20,1.06 5.54,1.54 L 4.88,2.02 Z"></path></g><g transform="translate(104.0760869565222 217.97826086956525) rotate(0 0.00004999999998744897 0.00004999999998744897)" stroke="none" fill="#000000"><path d="M 2.12,-0.66 Q 2.12,-0.66 2.15,-0.13 2.18,0.40 1.96,0.88 1.74,1.36 1.32,1.69 0.91,2.02 0.38,2.12 -0.13,2.21 -0.64,2.05 -1.14,1.90 -1.52,1.52 -1.90,1.14 -2.05,0.64 -2.21,0.13 -2.12,-0.38 -2.02,-0.91 -1.69,-1.32 -1.36,-1.74 -0.88,-1.96 -0.39,-2.18 0.13,-2.15 0.66,-2.11 1.11,-1.84 1.57,-1.56 1.84,-1.11 L 2.12,-0.66 Z"></path></g><g transform="translate(104.61956521739171 217.97826086956525) rotate(0 0.00004999999998744897 0.00004999999998744897)" stroke="none" fill="#000000"><path d="M 2.12,-0.66 Q 2.12,-0.66 2.15,-0.13 2.18,0.40 1.96,0.88 1.74,1.36 1.32,1.69 0.91,2.02 0.38,2.12 -0.13,2.21 -0.64,2.05 -1.14,1.90 -1.52,1.52 -1.90,1.14 -2.05,0.64 -2.21,0.13 -2.12,-0.38 -2.02,-0.91 -1.69,-1.32 -1.36,-1.74 -0.88,-1.96 -0.39,-2.18 0.13,-2.15 0.66,-2.11 1.11,-1.84 1.57,-1.56 1.84,-1.11 L 2.12,-0.66 Z"></path></g><g transform="translate(105.70652173913095 217.97826086956525) rotate(0 -44.29347826086973 -20.92391304347828)" stroke="none" fill="#000000"><path d="M -2.69,0.16 Q -2.69,0.16 -3.82,-0.70 -4.94,-1.58 -6.14,-2.37 -7.34,-3.17 -8.70,-4.17 -10.06,-5.17 -11.65,-6.17 -13.25,-7.16 -15.67,-8.69 -18.10,-10.23 -20.95,-11.79 -23.80,-13.34 -26.41,-14.63 -29.01,-15.91 -31.70,-17.24 -34.39,-18.57 -37.05,-19.75 -39.71,-20.92 -42.87,-22.20 -46.02,-23.48 -48.51,-24.68 -51.01,-25.89 -53.65,-27.37 -56.29,-28.84 -58.63,-30.07 -60.96,-31.31 -63.52,-32.61 -66.07,-33.91 -67.91,-34.76 -69.75,-35.61 -71.49,-36.10 -73.24,-36.58 -74.52,-36.97 -75.81,-37.35 -76.98,-37.49 -78.15,-37.62 -80.04,-37.89 -81.93,-38.17 -83.68,-38.68 -85.43,-39.20 -86.48,-39.54 -87.54,-39.88 -88.04,-38.99 -88.55,-38.09 -89.03,-37.99 -89.50,-37.89 -89.98,-37.95 -90.47,-38.01 -90.91,-38.22 -91.34,-38.43 -91.69,-38.77 -92.04,-39.11 -92.26,-39.54 -92.48,-39.97 -92.56,-40.45 -92.63,-40.93 -92.54,-41.41 -92.46,-41.89 -92.23,-42.32 -91.99,-42.74 -91.63,-43.07 -91.28,-43.40 -90.83,-43.60 -90.39,-43.80 -89.91,-43.85 -89.42,-43.89 -88.95,-43.78 -88.47,-43.67 -88.06,-43.41 -87.65,-43.16 -87.34,-42.78 -87.03,-42.41 -86.85,-41.95 -86.68,-41.50 -86.66,-41.01 -86.64,-40.53 -86.78,-40.06 -86.91,-39.59 -87.19,-39.20 -87.47,-38.80 -87.86,-38.51 -88.25,-38.22 -88.72,-38.07 -89.18,-37.92 -89.66,-37.93 -90.15,-37.93 -90.61,-38.10 -91.07,-38.26 -91.45,-38.56 -91.83,-38.86 -92.10,-39.26 -92.37,-39.67 -92.49,-40.14 -92.62,-40.61 -92.58,-41.09 -92.55,-41.58 -92.36,-42.03 -92.18,-42.48 -91.86,-42.84 -91.54,-43.21 -91.12,-43.46 -90.70,-43.70 -90.52,-43.06 -90.35,-42.42 -89.25,-43.00 -88.15,-43.57 -86.74,-43.35 -85.33,-43.13 -84.13,-42.65 -82.94,-42.18 -81.40,-41.78 -79.87,-41.38 -78.79,-41.31 -77.71,-41.24 -76.24,-41.05 -74.77,-40.86 -73.51,-40.49 -72.25,-40.12 -70.22,-39.55 -68.19,-38.99 -66.29,-38.10 -64.38,-37.22 -61.81,-35.91 -59.24,-34.60 -56.86,-33.36 -54.48,-32.12 -51.92,-30.72 -49.36,-29.33 -46.96,-28.19 -44.57,-27.05 -41.36,-25.76 -38.15,-24.46 -35.41,-23.25 -32.67,-22.04 -29.99,-20.70 -27.31,-19.37 -24.63,-18.05 -21.95,-16.72 -18.99,-15.10 -16.04,-13.48 -13.62,-11.94 -11.20,-10.40 -9.49,-9.30 -7.78,-8.21 -6.51,-7.24 -5.24,-6.27 -3.94,-5.37 -2.63,-4.47 -1.53,-3.57 -0.43,-2.66 0.50,-1.88 1.43,-1.10 1.54,-0.91 1.65,-0.72 1.72,-0.51 1.78,-0.30 1.79,-0.09 1.80,0.12 1.76,0.34 1.72,0.55 1.63,0.75 1.54,0.95 1.40,1.12 1.26,1.29 1.09,1.42 0.92,1.55 0.72,1.64 0.52,1.73 0.30,1.77 0.09,1.80 -0.12,1.79 -0.34,1.77 -0.55,1.71 -0.76,1.64 -0.94,1.52 -1.13,1.41 -1.91,0.78 L -2.69,0.16 Z"></path></g><g transform="translate(134.6739130434787 190.9673913043478) rotate(0 -44.29347826086973 -20.92391304347828)" stroke="none" fill="#000000"><path d="M -2.69,0.16 Q -2.69,0.16 -3.82,-0.70 -4.94,-1.58 -6.14,-2.37 -7.34,-3.17 -8.70,-4.17 -10.06,-5.17 -11.65,-6.17 -13.25,-7.16 -15.67,-8.69 -18.10,-10.23 -20.95,-11.79 -23.80,-13.34 -26.41,-14.63 -29.01,-15.91 -31.70,-17.24 -34.39,-18.57 -37.05,-19.75 -39.71,-20.92 -42.87,-22.20 -46.02,-23.48 -48.51,-24.68 -51.01,-25.89 -53.65,-27.37 -56.29,-28.84 -58.63,-30.07 -60.96,-31.31 -63.52,-32.61 -66.07,-33.91 -67.91,-34.76 -69.75,-35.61 -71.49,-36.10 -73.24,-36.58 -74.52,-36.97 -75.81,-37.35 -76.98,-37.49 -78.15,-37.62 -80.04,-37.89 -81.93,-38.17 -83.68,-38.68 -85.43,-39.20 -86.48,-39.54 -87.54,-39.88 -88.04,-38.99 -88.55,-38.09 -89.03,-37.99 -89.50,-37.89 -89.98,-37.95 -90.47,-38.01 -90.91,-38.22 -91.34,-38.43 -91.69,-38.77 -92.04,-39.11 -92.26,-39.54 -92.48,-39.97 -92.56,-40.45 -92.63,-40.93 -92.54,-41.41 -92.46,-41.89 -92.23,-42.32 -91.99,-42.74 -91.63,-43.07 -91.28,-43.40 -90.83,-43.60 -90.39,-43.80 -89.91,-43.85 -89.42,-43.89 -88.95,-43.78 -88.47,-43.67 -88.06,-43.41 -87.65,-43.16 -87.34,-42.78 -87.03,-42.41 -86.85,-41.95 -86.68,-41.50 -86.66,-41.01 -86.64,-40.53 -86.78,-40.06 -86.91,-39.59 -87.19,-39.20 -87.47,-38.80 -87.86,-38.51 -88.25,-38.22 -88.72,-38.07 -89.18,-37.92 -89.66,-37.93 -90.15,-37.93 -90.61,-38.10 -91.07,-38.26 -91.45,-38.56 -91.83,-38.86 -92.10,-39.26 -92.37,-39.67 -92.49,-40.14 -92.62,-40.61 -92.58,-41.09 -92.55,-41.58 -92.36,-42.03 -92.18,-42.48 -91.86,-42.84 -91.54,-43.21 -91.12,-43.46 -90.70,-43.70 -90.52,-43.06 -90.35,-42.42 -89.25,-43.00 -88.15,-43.57 -86.74,-43.35 -85.33,-43.13 -84.13,-42.65 -82.94,-42.18 -81.40,-41.78 -79.87,-41.38 -78.79,-41.31 -77.71,-41.24 -76.24,-41.05 -74.77,-40.86 -73.51,-40.49 -72.25,-40.12 -70.22,-39.55 -68.19,-38.99 -66.29,-38.10 -64.38,-37.22 -61.81,-35.91 -59.24,-34.60 -56.86,-33.36 -54.48,-32.12 -51.92,-30.72 -49.36,-29.33 -46.96,-28.19 -44.57,-27.05 -41.36,-25.76 -38.15,-24.46 -35.41,-23.25 -32.67,-22.04 -29.99,-20.70 -27.31,-19.37 -24.63,-18.05 -21.95,-16.72 -18.99,-15.10 -16.04,-13.48 -13.62,-11.94 -11.20,-10.40 -9.49,-9.30 -7.78,-8.21 -6.51,-7.24 -5.24,-6.27 -3.94,-5.37 -2.63,-4.47 -1.53,-3.57 -0.43,-2.66 0.50,-1.88 1.43,-1.10 1.54,-0.91 1.65,-0.72 1.72,-0.51 1.78,-0.30 1.79,-0.09 1.80,0.12 1.76,0.34 1.72,0.55 1.63,0.75 1.54,0.95 1.40,1.12 1.26,1.29 1.09,1.42 0.92,1.55 0.72,1.64 0.52,1.73 0.30,1.77 0.09,1.80 -0.12,1.79 -0.34,1.77 -0.55,1.71 -0.76,1.64 -0.94,1.52 -1.13,1.41 -1.91,0.78 L -2.69,0.16 Z"></path></g><g transform="translate(165.65217391304418 123.68478260869571) rotate(0 -44.29347826086973 -20.92391304347828)" stroke="none" fill="#000000"><path d="M -2.69,0.16 Q -2.69,0.16 -3.82,-0.70 -4.94,-1.58 -6.14,-2.37 -7.34,-3.17 -8.70,-4.17 -10.06,-5.17 -11.65,-6.17 -13.25,-7.16 -15.67,-8.69 -18.10,-10.23 -20.95,-11.79 -23.80,-13.34 -26.41,-14.63 -29.01,-15.91 -31.70,-17.24 -34.39,-18.57 -37.05,-19.75 -39.71,-20.92 -42.87,-22.20 -46.02,-23.48 -48.51,-24.68 -51.01,-25.89 -53.65,-27.37 -56.29,-28.84 -58.63,-30.07 -60.96,-31.31 -63.52,-32.61 -66.07,-33.91 -67.91,-34.76 -69.75,-35.61 -71.49,-36.10 -73.24,-36.58 -74.52,-36.97 -75.81,-37.35 -76.98,-37.49 -78.15,-37.62 -80.04,-37.89 -81.93,-38.17 -83.68,-38.68 -85.43,-39.20 -86.48,-39.54 -87.54,-39.88 -88.04,-38.99 -88.55,-38.09 -89.03,-37.99 -89.50,-37.89 -89.98,-37.95 -90.47,-38.01 -90.91,-38.22 -91.34,-38.43 -91.69,-38.77 -92.04,-39.11 -92.26,-39.54 -92.48,-39.97 -92.56,-40.45 -92.63,-40.93 -92.54,-41.41 -92.46,-41.89 -92.23,-42.32 -91.99,-42.74 -91.63,-43.07 -91.28,-43.40 -90.83,-43.60 -90.39,-43.80 -89.91,-43.85 -89.42,-43.89 -88.95,-43.78 -88.47,-43.67 -88.06,-43.41 -87.65,-43.16 -87.34,-42.78 -87.03,-42.41 -86.85,-41.95 -86.68,-41.50 -86.66,-41.01 -86.64,-40.53 -86.78,-40.06 -86.91,-39.59 -87.19,-39.20 -87.47,-38.80 -87.86,-38.51 -88.25,-38.22 -88.72,-38.07 -89.18,-37.92 -89.66,-37.93 -90.15,-37.93 -90.61,-38.10 -91.07,-38.26 -91.45,-38.56 -91.83,-38.86 -92.10,-39.26 -92.37,-39.67 -92.49,-40.14 -92.62,-40.61 -92.58,-41.09 -92.55,-41.58 -92.36,-42.03 -92.18,-42.48 -91.86,-42.84 -91.54,-43.21 -91.12,-43.46 -90.70,-43.70 -90.52,-43.06 -90.35,-42.42 -89.25,-43.00 -88.15,-43.57 -86.74,-43.35 -85.33,-43.13 -84.13,-42.65 -82.94,-42.18 -81.40,-41.78 -79.87,-41.38 -78.79,-41.31 -77.71,-41.24 -76.24,-41.05 -74.77,-40.86 -73.51,-40.49 -72.25,-40.12 -70.22,-39.55 -68.19,-38.99 -66.29,-38.10 -64.38,-37.22 -61.81,-35.91 -59.24,-34.60 -56.86,-33.36 -54.48,-32.12 -51.92,-30.72 -49.36,-29.33 -46.96,-28.19 -44.57,-27.05 -41.36,-25.76 -38.15,-24.46 -35.41,-23.25 -32.67,-22.04 -29.99,-20.70 -27.31,-19.37 -24.63,-18.05 -21.95,-16.72 -18.99,-15.10 -16.04,-13.48 -13.62,-11.94 -11.20,-10.40 -9.49,-9.30 -7.78,-8.21 -6.51,-7.24 -5.24,-6.27 -3.94,-5.37 -2.63,-4.47 -1.53,-3.57 -0.43,-2.66 0.50,-1.88 1.43,-1.10 1.54,-0.91 1.65,-0.72 1.72,-0.51 1.78,-0.30 1.79,-0.09 1.80,0.12 1.76,0.34 1.72,0.55 1.63,0.75 1.54,0.95 1.40,1.12 1.26,1.29 1.09,1.42 0.92,1.55 0.72,1.64 0.52,1.73 0.30,1.77 0.09,1.80 -0.12,1.79 -0.34,1.77 -0.55,1.71 -0.76,1.64 -0.94,1.52 -1.13,1.41 -1.91,0.78 L -2.69,0.16 Z"></path></g><g transform="translate(136.73913043478296 150.64130434782612) rotate(0 -44.29347826086973 -20.92391304347828)" stroke="none" fill="#000000"><path d="M -2.69,0.16 Q -2.69,0.16 -3.82,-0.70 -4.94,-1.58 -6.14,-2.37 -7.34,-3.17 -8.70,-4.17 -10.06,-5.17 -11.65,-6.17 -13.25,-7.16 -15.67,-8.69 -18.10,-10.23 -20.95,-11.79 -23.80,-13.34 -26.41,-14.63 -29.01,-15.91 -31.70,-17.24 -34.39,-18.57 -37.05,-19.75 -39.71,-20.92 -42.87,-22.20 -46.02,-23.48 -48.51,-24.68 -51.01,-25.89 -53.65,-27.37 -56.29,-28.84 -58.63,-30.07 -60.96,-31.31 -63.52,-32.61 -66.07,-33.91 -67.91,-34.76 -69.75,-35.61 -71.49,-36.10 -73.24,-36.58 -74.52,-36.97 -75.81,-37.35 -76.98,-37.49 -78.15,-37.62 -80.04,-37.89 -81.93,-38.17 -83.68,-38.68 -85.43,-39.20 -86.48,-39.54 -87.54,-39.88 -88.04,-38.99 -88.55,-38.09 -89.03,-37.99 -89.50,-37.89 -89.98,-37.95 -90.47,-38.01 -90.91,-38.22 -91.34,-38.43 -91.69,-38.77 -92.04,-39.11 -92.26,-39.54 -92.48,-39.97 -92.56,-40.45 -92.63,-40.93 -92.54,-41.41 -92.46,-41.89 -92.23,-42.32 -91.99,-42.74 -91.63,-43.07 -91.28,-43.40 -90.83,-43.60 -90.39,-43.80 -89.91,-43.85 -89.42,-43.89 -88.95,-43.78 -88.47,-43.67 -88.06,-43.41 -87.65,-43.16 -87.34,-42.78 -87.03,-42.41 -86.85,-41.95 -86.68,-41.50 -86.66,-41.01 -86.64,-40.53 -86.78,-40.06 -86.91,-39.59 -87.19,-39.20 -87.47,-38.80 -87.86,-38.51 -88.25,-38.22 -88.72,-38.07 -89.18,-37.92 -89.66,-37.93 -90.15,-37.93 -90.61,-38.10 -91.07,-38.26 -91.45,-38.56 -91.83,-38.86 -92.10,-39.26 -92.37,-39.67 -92.49,-40.14 -92.62,-40.61 -92.58,-41.09 -92.55,-41.58 -92.36,-42.03 -92.18,-42.48 -91.86,-42.84 -91.54,-43.21 -91.12,-43.46 -90.70,-43.70 -90.52,-43.06 -90.35,-42.42 -89.25,-43.00 -88.15,-43.57 -86.74,-43.35 -85.33,-43.13 -84.13,-42.65 -82.94,-42.18 -81.40,-41.78 -79.87,-41.38 -78.79,-41.31 -77.71,-41.24 -76.24,-41.05 -74.77,-40.86 -73.51,-40.49 -72.25,-40.12 -70.22,-39.55 -68.19,-38.99 -66.29,-38.10 -64.38,-37.22 -61.81,-35.91 -59.24,-34.60 -56.86,-33.36 -54.48,-32.12 -51.92,-30.72 -49.36,-29.33 -46.96,-28.19 -44.57,-27.05 -41.36,-25.76 -38.15,-24.46 -35.41,-23.25 -32.67,-22.04 -29.99,-20.70 -27.31,-19.37 -24.63,-18.05 -21.95,-16.72 -18.99,-15.10 -16.04,-13.48 -13.62,-11.94 -11.20,-10.40 -9.49,-9.30 -7.78,-8.21 -6.51,-7.24 -5.24,-6.27 -3.94,-5.37 -2.63,-4.47 -1.53,-3.57 -0.43,-2.66 0.50,-1.88 1.43,-1.10 1.54,-0.91 1.65,-0.72 1.72,-0.51 1.78,-0.30 1.79,-0.09 1.80,0.12 1.76,0.34 1.72,0.55 1.63,0.75 1.54,0.95 1.40,1.12 1.26,1.29 1.09,1.42 0.92,1.55 0.72,1.64 0.52,1.73 0.30,1.77 0.09,1.80 -0.12,1.79 -0.34,1.77 -0.55,1.71 -0.76,1.64 -0.94,1.52 -1.13,1.41 -1.91,0.78 L -2.69,0.16 Z"></path></g><g transform="translate(198.15217391304373 52.271739130434796) rotate(0 -44.29347826086973 -20.92391304347828)" stroke="none" fill="#000000"><path d="M -2.69,0.16 Q -2.69,0.16 -3.82,-0.70 -4.94,-1.58 -6.14,-2.37 -7.34,-3.17 -8.70,-4.17 -10.06,-5.17 -11.65,-6.17 -13.25,-7.16 -15.67,-8.69 -18.10,-10.23 -20.95,-11.79 -23.80,-13.34 -26.41,-14.63 -29.01,-15.91 -31.70,-17.24 -34.39,-18.57 -37.05,-19.75 -39.71,-20.92 -42.87,-22.20 -46.02,-23.48 -48.51,-24.68 -51.01,-25.89 -53.65,-27.37 -56.29,-28.84 -58.63,-30.07 -60.96,-31.31 -63.52,-32.61 -66.07,-33.91 -67.91,-34.76 -69.75,-35.61 -71.49,-36.10 -73.24,-36.58 -74.52,-36.97 -75.81,-37.35 -76.98,-37.49 -78.15,-37.62 -80.04,-37.89 -81.93,-38.17 -83.68,-38.68 -85.43,-39.20 -86.48,-39.54 -87.54,-39.88 -88.04,-38.99 -88.55,-38.09 -89.03,-37.99 -89.50,-37.89 -89.98,-37.95 -90.47,-38.01 -90.91,-38.22 -91.34,-38.43 -91.69,-38.77 -92.04,-39.11 -92.26,-39.54 -92.48,-39.97 -92.56,-40.45 -92.63,-40.93 -92.54,-41.41 -92.46,-41.89 -92.23,-42.32 -91.99,-42.74 -91.63,-43.07 -91.28,-43.40 -90.83,-43.60 -90.39,-43.80 -89.91,-43.85 -89.42,-43.89 -88.95,-43.78 -88.47,-43.67 -88.06,-43.41 -87.65,-43.16 -87.34,-42.78 -87.03,-42.41 -86.85,-41.95 -86.68,-41.50 -86.66,-41.01 -86.64,-40.53 -86.78,-40.06 -86.91,-39.59 -87.19,-39.20 -87.47,-38.80 -87.86,-38.51 -88.25,-38.22 -88.72,-38.07 -89.18,-37.92 -89.66,-37.93 -90.15,-37.93 -90.61,-38.10 -91.07,-38.26 -91.45,-38.56 -91.83,-38.86 -92.10,-39.26 -92.37,-39.67 -92.49,-40.14 -92.62,-40.61 -92.58,-41.09 -92.55,-41.58 -92.36,-42.03 -92.18,-42.48 -91.86,-42.84 -91.54,-43.21 -91.12,-43.46 -90.70,-43.70 -90.52,-43.06 -90.35,-42.42 -89.25,-43.00 -88.15,-43.57 -86.74,-43.35 -85.33,-43.13 -84.13,-42.65 -82.94,-42.18 -81.40,-41.78 -79.87,-41.38 -78.79,-41.31 -77.71,-41.24 -76.24,-41.05 -74.77,-40.86 -73.51,-40.49 -72.25,-40.12 -70.22,-39.55 -68.19,-38.99 -66.29,-38.10 -64.38,-37.22 -61.81,-35.91 -59.24,-34.60 -56.86,-33.36 -54.48,-32.12 -51.92,-30.72 -49.36,-29.33 -46.96,-28.19 -44.57,-27.05 -41.36,-25.76 -38.15,-24.46 -35.41,-23.25 -32.67,-22.04 -29.99,-20.70 -27.31,-19.37 -24.63,-18.05 -21.95,-16.72 -18.99,-15.10 -16.04,-13.48 -13.62,-11.94 -11.20,-10.40 -9.49,-9.30 -7.78,-8.21 -6.51,-7.24 -5.24,-6.27 -3.94,-5.37 -2.63,-4.47 -1.53,-3.57 -0.43,-2.66 0.50,-1.88 1.43,-1.10 1.54,-0.91 1.65,-0.72 1.72,-0.51 1.78,-0.30 1.79,-0.09 1.80,0.12 1.76,0.34 1.72,0.55 1.63,0.75 1.54,0.95 1.40,1.12 1.26,1.29 1.09,1.42 0.92,1.55 0.72,1.64 0.52,1.73 0.30,1.77 0.09,1.80 -0.12,1.79 -0.34,1.77 -0.55,1.71 -0.76,1.64 -0.94,1.52 -1.13,1.41 -1.91,0.78 L -2.69,0.16 Z"></path></g><g transform="translate(168.4782608695648 82.05434782608697) rotate(0 -44.29347826086973 -20.92391304347828)" stroke="none" fill="#000000"><path d="M -2.69,0.16 Q -2.69,0.16 -3.82,-0.70 -4.94,-1.58 -6.14,-2.37 -7.34,-3.17 -8.70,-4.17 -10.06,-5.17 -11.65,-6.17 -13.25,-7.16 -15.67,-8.69 -18.10,-10.23 -20.95,-11.79 -23.80,-13.34 -26.41,-14.63 -29.01,-15.91 -31.70,-17.24 -34.39,-18.57 -37.05,-19.75 -39.71,-20.92 -42.87,-22.20 -46.02,-23.48 -48.51,-24.68 -51.01,-25.89 -53.65,-27.37 -56.29,-28.84 -58.63,-30.07 -60.96,-31.31 -63.52,-32.61 -66.07,-33.91 -67.91,-34.76 -69.75,-35.61 -71.49,-36.10 -73.24,-36.58 -74.52,-36.97 -75.81,-37.35 -76.98,-37.49 -78.15,-37.62 -80.04,-37.89 -81.93,-38.17 -83.68,-38.68 -85.43,-39.20 -86.48,-39.54 -87.54,-39.88 -88.04,-38.99 -88.55,-38.09 -89.03,-37.99 -89.50,-37.89 -89.98,-37.95 -90.47,-38.01 -90.91,-38.22 -91.34,-38.43 -91.69,-38.77 -92.04,-39.11 -92.26,-39.54 -92.48,-39.97 -92.56,-40.45 -92.63,-40.93 -92.54,-41.41 -92.46,-41.89 -92.23,-42.32 -91.99,-42.74 -91.63,-43.07 -91.28,-43.40 -90.83,-43.60 -90.39,-43.80 -89.91,-43.85 -89.42,-43.89 -88.95,-43.78 -88.47,-43.67 -88.06,-43.41 -87.65,-43.16 -87.34,-42.78 -87.03,-42.41 -86.85,-41.95 -86.68,-41.50 -86.66,-41.01 -86.64,-40.53 -86.78,-40.06 -86.91,-39.59 -87.19,-39.20 -87.47,-38.80 -87.86,-38.51 -88.25,-38.22 -88.72,-38.07 -89.18,-37.92 -89.66,-37.93 -90.15,-37.93 -90.61,-38.10 -91.07,-38.26 -91.45,-38.56 -91.83,-38.86 -92.10,-39.26 -92.37,-39.67 -92.49,-40.14 -92.62,-40.61 -92.58,-41.09 -92.55,-41.58 -92.36,-42.03 -92.18,-42.48 -91.86,-42.84 -91.54,-43.21 -91.12,-43.46 -90.70,-43.70 -90.52,-43.06 -90.35,-42.42 -89.25,-43.00 -88.15,-43.57 -86.74,-43.35 -85.33,-43.13 -84.13,-42.65 -82.94,-42.18 -81.40,-41.78 -79.87,-41.38 -78.79,-41.31 -77.71,-41.24 -76.24,-41.05 -74.77,-40.86 -73.51,-40.49 -72.25,-40.12 -70.22,-39.55 -68.19,-38.99 -66.29,-38.10 -64.38,-37.22 -61.81,-35.91 -59.24,-34.60 -56.86,-33.36 -54.48,-32.12 -51.92,-30.72 -49.36,-29.33 -46.96,-28.19 -44.57,-27.05 -41.36,-25.76 -38.15,-24.46 -35.41,-23.25 -32.67,-22.04 -29.99,-20.70 -27.31,-19.37 -24.63,-18.05 -21.95,-16.72 -18.99,-15.10 -16.04,-13.48 -13.62,-11.94 -11.20,-10.40 -9.49,-9.30 -7.78,-8.21 -6.51,-7.24 -5.24,-6.27 -3.94,-5.37 -2.63,-4.47 -1.53,-3.57 -0.43,-2.66 0.50,-1.88 1.43,-1.10 1.54,-0.91 1.65,-0.72 1.72,-0.51 1.78,-0.30 1.79,-0.09 1.80,0.12 1.76,0.34 1.72,0.55 1.63,0.75 1.54,0.95 1.40,1.12 1.26,1.29 1.09,1.42 0.92,1.55 0.72,1.64 0.52,1.73 0.30,1.77 0.09,1.80 -0.12,1.79 -0.34,1.77 -0.55,1.71 -0.76,1.64 -0.94,1.52 -1.13,1.41 -1.91,0.78 L -2.69,0.16 Z"></path></g><g transform="translate(107.03260869565293 10) rotate(0 -13.5 14.499999999999993)" stroke="none" fill="#000000"><path d="M 0.17,2.49 Q 0.17,2.49 -1.33,4.31 -2.83,6.13 -4.23,7.71 -5.63,9.29 -7.14,10.73 -8.65,12.18 -9.98,13.48 -11.31,14.79 -12.45,15.91 -13.60,17.04 -14.95,18.38 -16.30,19.71 -17.46,20.84 -18.63,21.97 -19.89,23.12 -21.15,24.27 -22.16,25.15 -23.17,26.03 -23.09,27.41 -23.02,28.78 -23.69,29.64 -24.35,30.49 -24.71,30.82 -25.07,31.15 -25.51,31.35 -25.96,31.55 -26.44,31.60 -26.92,31.64 -27.40,31.53 -27.87,31.42 -28.28,31.16 -28.70,30.91 -29.01,30.53 -29.32,30.16 -29.49,29.70 -29.66,29.25 -29.68,28.76 -29.70,28.28 -29.57,27.81 -29.43,27.35 -29.15,26.95 -28.87,26.55 -28.48,26.26 -28.09,25.97 -27.63,25.82 -27.17,25.67 -26.68,25.68 -26.19,25.69 -25.74,25.85 -25.28,26.01 -24.89,26.31 -24.51,26.61 -24.24,27.01 -23.98,27.42 -23.85,27.89 -23.73,28.36 -23.76,28.84 -23.79,29.33 -23.98,29.78 -24.17,30.23 -24.49,30.59 -24.81,30.96 -25.23,31.21 -25.65,31.45 -26.12,31.55 -26.60,31.65 -27.08,31.59 -27.56,31.53 -28.00,31.32 -28.44,31.11 -28.79,30.77 -29.14,30.43 -29.36,30.00 -29.58,29.56 -29.65,29.08 -29.73,28.60 -29.64,28.12 -29.56,27.65 -29.32,27.22 -29.09,26.79 -28.51,26.06 -27.93,25.32 -26.48,24.75 -25.03,24.17 -24.15,23.16 -23.27,22.15 -22.12,20.89 -20.97,19.63 -19.83,18.47 -18.70,17.31 -17.35,15.95 -16.01,14.60 -14.86,13.47 -13.72,12.33 -12.37,11.01 -11.02,9.69 -9.61,8.35 -8.20,7.01 -6.78,5.41 -5.36,3.81 -3.92,2.09 -2.47,0.37 -1.75,-0.48 -1.03,-1.34 -0.85,-1.44 -0.67,-1.55 -0.48,-1.61 -0.28,-1.66 -0.08,-1.67 0.11,-1.68 0.31,-1.65 0.52,-1.61 0.70,-1.52 0.89,-1.44 1.05,-1.31 1.20,-1.18 1.33,-1.02 1.45,-0.86 1.54,-0.67 1.62,-0.48 1.65,-0.28 1.69,-0.08 1.67,0.11 1.66,0.32 1.59,0.51 1.53,0.71 1.42,0.88 1.32,1.05 0.74,1.77 L 0.17,2.49 Z"></path></g><g transform="translate(76.16304347826167 81.63043478260869) rotate(0 -13.5 14.5)" stroke="none" fill="#000000"><path d="M 0.17,2.49 Q 0.17,2.49 -1.33,4.31 -2.83,6.13 -4.23,7.71 -5.63,9.29 -7.14,10.73 -8.65,12.18 -9.98,13.48 -11.31,14.79 -12.45,15.91 -13.60,17.04 -14.95,18.38 -16.30,19.71 -17.46,20.84 -18.63,21.97 -19.89,23.12 -21.15,24.27 -22.16,25.15 -23.17,26.03 -23.09,27.41 -23.02,28.78 -23.69,29.64 -24.35,30.49 -24.71,30.82 -25.07,31.15 -25.51,31.35 -25.96,31.55 -26.44,31.60 -26.92,31.64 -27.40,31.53 -27.87,31.42 -28.28,31.16 -28.70,30.91 -29.01,30.53 -29.32,30.16 -29.49,29.70 -29.66,29.25 -29.68,28.76 -29.70,28.28 -29.57,27.81 -29.43,27.35 -29.15,26.95 -28.87,26.55 -28.48,26.26 -28.09,25.97 -27.63,25.82 -27.17,25.67 -26.68,25.68 -26.19,25.69 -25.74,25.85 -25.28,26.01 -24.89,26.31 -24.51,26.61 -24.24,27.01 -23.98,27.42 -23.85,27.89 -23.73,28.36 -23.76,28.84 -23.79,29.33 -23.98,29.78 -24.17,30.23 -24.49,30.59 -24.81,30.96 -25.23,31.21 -25.65,31.45 -26.12,31.55 -26.60,31.65 -27.08,31.59 -27.56,31.53 -28.00,31.32 -28.44,31.11 -28.79,30.77 -29.14,30.43 -29.36,30.00 -29.58,29.56 -29.65,29.08 -29.73,28.60 -29.64,28.12 -29.56,27.65 -29.32,27.22 -29.09,26.79 -28.51,26.06 -27.93,25.32 -26.48,24.75 -25.03,24.17 -24.15,23.16 -23.27,22.15 -22.12,20.89 -20.97,19.63 -19.83,18.47 -18.70,17.31 -17.35,15.95 -16.01,14.60 -14.86,13.47 -13.72,12.33 -12.37,11.01 -11.02,9.69 -9.61,8.35 -8.20,7.01 -6.78,5.41 -5.36,3.81 -3.92,2.09 -2.47,0.37 -1.75,-0.48 -1.03,-1.34 -0.85,-1.44 -0.67,-1.55 -0.48,-1.61 -0.28,-1.66 -0.08,-1.67 0.11,-1.68 0.31,-1.65 0.52,-1.61 0.70,-1.52 0.89,-1.44 1.05,-1.31 1.20,-1.18 1.33,-1.02 1.45,-0.86 1.54,-0.67 1.62,-0.48 1.65,-0.28 1.69,-0.08 1.67,0.11 1.66,0.32 1.59,0.51 1.53,0.71 1.42,0.88 1.32,1.05 0.74,1.77 L 0.17,2.49 Z"></path></g><g transform="translate(45.51086956521749 147.93478260869566) rotate(0 -13.5 14.499999999999986)" stroke="none" fill="#000000"><path d="M 0.17,2.49 Q 0.17,2.49 -1.33,4.31 -2.83,6.13 -4.23,7.71 -5.63,9.29 -7.14,10.73 -8.65,12.18 -9.98,13.48 -11.31,14.79 -12.45,15.91 -13.60,17.04 -14.95,18.38 -16.30,19.71 -17.46,20.84 -18.63,21.97 -19.89,23.12 -21.15,24.27 -22.16,25.15 -23.17,26.03 -23.09,27.41 -23.02,28.78 -23.69,29.64 -24.35,30.49 -24.71,30.82 -25.07,31.15 -25.51,31.35 -25.96,31.55 -26.44,31.60 -26.92,31.64 -27.40,31.53 -27.87,31.42 -28.28,31.16 -28.70,30.91 -29.01,30.53 -29.32,30.16 -29.49,29.70 -29.66,29.25 -29.68,28.76 -29.70,28.28 -29.57,27.81 -29.43,27.35 -29.15,26.95 -28.87,26.55 -28.48,26.26 -28.09,25.97 -27.63,25.82 -27.17,25.67 -26.68,25.68 -26.19,25.69 -25.74,25.85 -25.28,26.01 -24.89,26.31 -24.51,26.61 -24.24,27.01 -23.98,27.42 -23.85,27.89 -23.73,28.36 -23.76,28.84 -23.79,29.33 -23.98,29.78 -24.17,30.23 -24.49,30.59 -24.81,30.96 -25.23,31.21 -25.65,31.45 -26.12,31.55 -26.60,31.65 -27.08,31.59 -27.56,31.53 -28.00,31.32 -28.44,31.11 -28.79,30.77 -29.14,30.43 -29.36,30.00 -29.58,29.56 -29.65,29.08 -29.73,28.60 -29.64,28.12 -29.56,27.65 -29.32,27.22 -29.09,26.79 -28.51,26.06 -27.93,25.32 -26.48,24.75 -25.03,24.17 -24.15,23.16 -23.27,22.15 -22.12,20.89 -20.97,19.63 -19.83,18.47 -18.70,17.31 -17.35,15.95 -16.01,14.60 -14.86,13.47 -13.72,12.33 -12.37,11.01 -11.02,9.69 -9.61,8.35 -8.20,7.01 -6.78,5.41 -5.36,3.81 -3.92,2.09 -2.47,0.37 -1.75,-0.48 -1.03,-1.34 -0.85,-1.44 -0.67,-1.55 -0.48,-1.61 -0.28,-1.66 -0.08,-1.67 0.11,-1.68 0.31,-1.65 0.52,-1.61 0.70,-1.52 0.89,-1.44 1.05,-1.31 1.20,-1.18 1.33,-1.02 1.45,-0.86 1.54,-0.67 1.62,-0.48 1.65,-0.28 1.69,-0.08 1.67,0.11 1.66,0.32 1.59,0.51 1.53,0.71 1.42,0.88 1.32,1.05 0.74,1.77 L 0.17,2.49 Z"></path></g><g transform="translate(79.46739130434844 41.53260869565216) rotate(0 -0.5 20.25)" stroke="none" fill="#000000"><path d="M 1.84,1.46 Q 1.84,1.46 1.98,3.22 2.13,4.98 2.17,6.13 2.20,7.29 2.08,9.37 1.96,11.44 1.76,12.97 1.56,14.50 1.48,16.35 1.41,18.21 1.22,20.09 1.04,21.97 0.97,23.56 0.90,25.15 0.72,26.91 0.55,28.66 0.48,30.20 0.40,31.73 0.37,32.82 0.34,33.91 0.32,35.61 0.30,37.30 0.30,38.64 0.29,39.97 0.27,39.98 0.24,39.99 0.22,40.20 0.19,40.41 0.12,40.60 0.04,40.80 -0.07,40.97 -0.19,41.15 -0.35,41.28 -0.50,41.42 -0.69,41.52 -0.88,41.62 -1.08,41.67 -1.29,41.72 -1.50,41.72 -1.71,41.72 -1.91,41.67 -2.12,41.62 -2.30,41.52 -2.49,41.42 -2.65,41.28 -2.80,41.14 -2.92,40.97 -3.04,40.79 -3.12,40.60 -3.19,40.40 -3.22,40.19 -3.24,39.98 -3.87,39.06 -4.50,38.15 -4.42,37.67 -4.34,37.19 -4.12,36.76 -3.89,36.33 -3.53,35.99 -3.18,35.66 -2.74,35.46 -2.30,35.25 -1.82,35.20 -1.33,35.15 -0.86,35.25 -0.38,35.35 0.02,35.61 0.44,35.86 0.76,36.23 1.07,36.60 1.25,37.05 1.43,37.50 1.46,37.99 1.48,38.47 1.35,38.94 1.22,39.41 0.95,39.81 0.68,40.21 0.29,40.51 -0.09,40.80 -0.55,40.96 -1.01,41.11 -1.49,41.11 -1.98,41.11 -2.44,40.96 -2.90,40.80 -3.29,40.51 -3.68,40.21 -3.95,39.81 -4.22,39.41 -4.35,38.94 -4.48,38.47 -4.46,37.99 -4.43,37.50 -4.25,37.05 -4.07,36.60 -3.76,36.23 -3.44,35.86 -3.02,35.61 -2.61,35.35 -2.13,35.25 -1.66,35.15 -1.17,35.20 -0.69,35.25 -0.25,35.46 0.18,35.66 0.53,35.99 0.89,36.33 1.12,36.76 1.34,37.19 1.42,37.67 1.50,38.15 0.87,39.07 0.24,39.99 0.22,40.20 0.19,40.40 0.12,40.60 0.04,40.80 -0.07,40.97 -0.19,41.15 -0.35,41.28 -0.50,41.42 -0.69,41.52 -0.88,41.62 -1.08,41.67 -1.29,41.72 -1.50,41.72 -1.71,41.72 -1.91,41.67 -2.12,41.62 -2.30,41.52 -2.49,41.42 -2.65,41.28 -2.80,41.14 -2.92,40.97 -3.04,40.79 -3.12,40.60 -3.19,40.40 -3.22,40.19 -3.24,39.98 -3.27,39.98 -3.29,39.97 -3.29,38.62 -3.28,37.28 -3.27,35.54 -3.25,33.81 -3.22,32.69 -3.18,31.56 -3.10,29.93 -3.03,28.29 -2.85,26.64 -2.67,24.99 -2.59,23.30 -2.51,21.62 -2.33,19.83 -2.15,18.05 -2.05,16.04 -1.96,14.02 -1.75,12.52 -1.55,11.02 -1.39,9.17 -1.24,7.32 -1.22,6.19 -1.21,5.07 -1.23,3.52 -1.26,1.98 -1.41,0.93 -1.56,-0.12 -1.53,-0.30 -1.49,-0.49 -1.41,-0.66 -1.33,-0.83 -1.21,-0.98 -1.09,-1.13 -0.94,-1.24 -0.79,-1.36 -0.61,-1.43 -0.44,-1.51 -0.25,-1.54 -0.06,-1.57 0.11,-1.55 0.30,-1.54 0.48,-1.48 0.66,-1.42 0.83,-1.32 0.99,-1.22 1.12,-1.08 1.25,-0.95 1.35,-0.78 1.44,-0.62 1.49,-0.44 1.55,-0.25 1.69,0.60 L 1.84,1.46 Z"></path></g><g transform="translate(49.14130434782669 111.31521739130434) rotate(0 -0.5 20.25)" stroke="none" fill="#000000"><path d="M 1.84,1.46 Q 1.84,1.46 1.98,3.22 2.13,4.98 2.17,6.13 2.20,7.29 2.08,9.37 1.96,11.44 1.76,12.97 1.56,14.50 1.48,16.35 1.41,18.21 1.22,20.09 1.04,21.97 0.97,23.56 0.90,25.15 0.72,26.91 0.55,28.66 0.48,30.20 0.40,31.73 0.37,32.82 0.34,33.91 0.32,35.61 0.30,37.30 0.30,38.64 0.29,39.97 0.27,39.98 0.24,39.99 0.22,40.20 0.19,40.41 0.12,40.60 0.04,40.80 -0.07,40.97 -0.19,41.15 -0.35,41.28 -0.50,41.42 -0.69,41.52 -0.88,41.62 -1.08,41.67 -1.29,41.72 -1.50,41.72 -1.71,41.72 -1.91,41.67 -2.12,41.62 -2.30,41.52 -2.49,41.42 -2.65,41.28 -2.80,41.14 -2.92,40.97 -3.04,40.79 -3.12,40.60 -3.19,40.40 -3.22,40.19 -3.24,39.98 -3.87,39.06 -4.50,38.15 -4.42,37.67 -4.34,37.19 -4.12,36.76 -3.89,36.33 -3.53,35.99 -3.18,35.66 -2.74,35.46 -2.30,35.25 -1.82,35.20 -1.33,35.15 -0.86,35.25 -0.38,35.35 0.02,35.61 0.44,35.86 0.76,36.23 1.07,36.60 1.25,37.05 1.43,37.50 1.46,37.99 1.48,38.47 1.35,38.94 1.22,39.41 0.95,39.81 0.68,40.21 0.29,40.51 -0.09,40.80 -0.55,40.96 -1.01,41.11 -1.49,41.11 -1.98,41.11 -2.44,40.96 -2.90,40.80 -3.29,40.51 -3.68,40.21 -3.95,39.81 -4.22,39.41 -4.35,38.94 -4.48,38.47 -4.46,37.99 -4.43,37.50 -4.25,37.05 -4.07,36.60 -3.76,36.23 -3.44,35.86 -3.02,35.61 -2.61,35.35 -2.13,35.25 -1.66,35.15 -1.17,35.20 -0.69,35.25 -0.25,35.46 0.18,35.66 0.53,35.99 0.89,36.33 1.12,36.76 1.34,37.19 1.42,37.67 1.50,38.15 0.87,39.07 0.24,39.99 0.22,40.20 0.19,40.40 0.12,40.60 0.04,40.80 -0.07,40.97 -0.19,41.15 -0.35,41.28 -0.50,41.42 -0.69,41.52 -0.88,41.62 -1.08,41.67 -1.29,41.72 -1.50,41.72 -1.71,41.72 -1.91,41.67 -2.12,41.62 -2.30,41.52 -2.49,41.42 -2.65,41.28 -2.80,41.14 -2.92,40.97 -3.04,40.79 -3.12,40.60 -3.19,40.40 -3.22,40.19 -3.24,39.98 -3.27,39.98 -3.29,39.97 -3.29,38.62 -3.28,37.28 -3.27,35.54 -3.25,33.81 -3.22,32.69 -3.18,31.56 -3.10,29.93 -3.03,28.29 -2.85,26.64 -2.67,24.99 -2.59,23.30 -2.51,21.62 -2.33,19.83 -2.15,18.05 -2.05,16.04 -1.96,14.02 -1.75,12.52 -1.55,11.02 -1.39,9.17 -1.24,7.32 -1.22,6.19 -1.21,5.07 -1.23,3.52 -1.26,1.98 -1.41,0.93 -1.56,-0.12 -1.53,-0.30 -1.49,-0.49 -1.41,-0.66 -1.33,-0.83 -1.21,-0.98 -1.09,-1.13 -0.94,-1.24 -0.79,-1.36 -0.61,-1.43 -0.44,-1.51 -0.25,-1.54 -0.06,-1.57 0.11,-1.55 0.30,-1.54 0.48,-1.48 0.66,-1.42 0.83,-1.32 0.99,-1.22 1.12,-1.08 1.25,-0.95 1.35,-0.78 1.44,-0.62 1.49,-0.44 1.55,-0.25 1.69,0.60 L 1.84,1.46 Z"></path></g><g transform="translate(15.33695652173924 177.5108695652174) rotate(0 -0.5 20.249999999999986)" stroke="none" fill="#000000"><path d="M 1.84,1.46 Q 1.84,1.46 1.98,3.22 2.13,4.98 2.17,6.13 2.20,7.29 2.08,9.37 1.96,11.44 1.76,12.97 1.56,14.50 1.48,16.35 1.41,18.21 1.22,20.09 1.04,21.97 0.97,23.56 0.90,25.15 0.72,26.91 0.55,28.66 0.48,30.20 0.40,31.73 0.37,32.82 0.34,33.91 0.32,35.61 0.30,37.30 0.30,38.64 0.29,39.97 0.27,39.98 0.24,39.99 0.22,40.20 0.19,40.41 0.12,40.60 0.04,40.80 -0.07,40.97 -0.19,41.15 -0.35,41.28 -0.50,41.42 -0.69,41.52 -0.88,41.62 -1.08,41.67 -1.29,41.72 -1.50,41.72 -1.71,41.72 -1.91,41.67 -2.12,41.62 -2.30,41.52 -2.49,41.42 -2.65,41.28 -2.80,41.14 -2.92,40.97 -3.04,40.79 -3.12,40.60 -3.19,40.40 -3.22,40.19 -3.24,39.98 -3.87,39.06 -4.50,38.15 -4.42,37.67 -4.34,37.19 -4.12,36.76 -3.89,36.33 -3.53,35.99 -3.18,35.66 -2.74,35.46 -2.30,35.25 -1.82,35.20 -1.33,35.15 -0.86,35.25 -0.38,35.35 0.02,35.61 0.44,35.86 0.76,36.23 1.07,36.60 1.25,37.05 1.43,37.50 1.46,37.99 1.48,38.47 1.35,38.94 1.22,39.41 0.95,39.81 0.68,40.21 0.29,40.51 -0.09,40.80 -0.55,40.96 -1.01,41.11 -1.49,41.11 -1.98,41.11 -2.44,40.96 -2.90,40.80 -3.29,40.51 -3.68,40.21 -3.95,39.81 -4.22,39.41 -4.35,38.94 -4.48,38.47 -4.46,37.99 -4.43,37.50 -4.25,37.05 -4.07,36.60 -3.76,36.23 -3.44,35.86 -3.02,35.61 -2.61,35.35 -2.13,35.25 -1.66,35.15 -1.17,35.20 -0.69,35.25 -0.25,35.46 0.18,35.66 0.53,35.99 0.89,36.33 1.12,36.76 1.34,37.19 1.42,37.67 1.50,38.15 0.87,39.07 0.24,39.99 0.22,40.20 0.19,40.40 0.12,40.60 0.04,40.80 -0.07,40.97 -0.19,41.15 -0.35,41.28 -0.50,41.42 -0.69,41.52 -0.88,41.62 -1.08,41.67 -1.29,41.72 -1.50,41.72 -1.71,41.72 -1.91,41.67 -2.12,41.62 -2.30,41.52 -2.49,41.42 -2.65,41.28 -2.80,41.14 -2.92,40.97 -3.04,40.79 -3.12,40.60 -3.19,40.40 -3.22,40.19 -3.24,39.98 -3.27,39.98 -3.29,39.97 -3.29,38.62 -3.28,37.28 -3.27,35.54 -3.25,33.81 -3.22,32.69 -3.18,31.56 -3.10,29.93 -3.03,28.29 -2.85,26.64 -2.67,24.99 -2.59,23.30 -2.51,21.62 -2.33,19.83 -2.15,18.05 -2.05,16.04 -1.96,14.02 -1.75,12.52 -1.55,11.02 -1.39,9.17 -1.24,7.32 -1.22,6.19 -1.21,5.07 -1.23,3.52 -1.26,1.98 -1.41,0.93 -1.56,-0.12 -1.53,-0.30 -1.49,-0.49 -1.41,-0.66 -1.33,-0.83 -1.21,-0.98 -1.09,-1.13 -0.94,-1.24 -0.79,-1.36 -0.61,-1.43 -0.44,-1.51 -0.25,-1.54 -0.06,-1.57 0.11,-1.55 0.30,-1.54 0.48,-1.48 0.66,-1.42 0.83,-1.32 0.99,-1.22 1.12,-1.08 1.25,-0.95 1.35,-0.78 1.44,-0.62 1.49,-0.44 1.55,-0.25 1.69,0.60 L 1.84,1.46 Z"></path></g><g transform="translate(99.67391304347848 259.9891304347827) rotate(0 -44.29347826086973 -20.92391304347828)" stroke="none" fill="#000000"><path d="M -2.69,0.16 Q -2.69,0.16 -3.82,-0.70 -4.94,-1.58 -6.14,-2.37 -7.34,-3.17 -8.70,-4.17 -10.06,-5.17 -11.65,-6.17 -13.25,-7.16 -15.67,-8.69 -18.10,-10.23 -20.95,-11.79 -23.80,-13.34 -26.41,-14.63 -29.01,-15.91 -31.70,-17.24 -34.39,-18.57 -37.05,-19.75 -39.71,-20.92 -42.87,-22.20 -46.02,-23.48 -48.51,-24.68 -51.01,-25.89 -53.65,-27.37 -56.29,-28.84 -58.63,-30.07 -60.96,-31.31 -63.52,-32.61 -66.07,-33.91 -67.91,-34.76 -69.75,-35.61 -71.49,-36.10 -73.24,-36.58 -74.52,-36.97 -75.81,-37.35 -76.98,-37.49 -78.15,-37.62 -80.04,-37.89 -81.93,-38.17 -83.68,-38.68 -85.43,-39.20 -86.48,-39.54 -87.54,-39.88 -88.04,-38.99 -88.55,-38.09 -89.03,-37.99 -89.50,-37.89 -89.98,-37.95 -90.47,-38.01 -90.91,-38.22 -91.34,-38.43 -91.69,-38.77 -92.04,-39.11 -92.26,-39.54 -92.48,-39.97 -92.56,-40.45 -92.63,-40.93 -92.54,-41.41 -92.46,-41.89 -92.23,-42.32 -91.99,-42.74 -91.63,-43.07 -91.28,-43.40 -90.83,-43.60 -90.39,-43.80 -89.91,-43.85 -89.42,-43.89 -88.95,-43.78 -88.47,-43.67 -88.06,-43.41 -87.65,-43.16 -87.34,-42.78 -87.03,-42.41 -86.85,-41.95 -86.68,-41.50 -86.66,-41.01 -86.64,-40.53 -86.78,-40.06 -86.91,-39.59 -87.19,-39.20 -87.47,-38.80 -87.86,-38.51 -88.25,-38.22 -88.72,-38.07 -89.18,-37.92 -89.66,-37.93 -90.15,-37.93 -90.61,-38.10 -91.07,-38.26 -91.45,-38.56 -91.83,-38.86 -92.10,-39.26 -92.37,-39.67 -92.49,-40.14 -92.62,-40.61 -92.58,-41.09 -92.55,-41.58 -92.36,-42.03 -92.18,-42.48 -91.86,-42.84 -91.54,-43.21 -91.12,-43.46 -90.70,-43.70 -90.52,-43.06 -90.35,-42.42 -89.25,-43.00 -88.15,-43.57 -86.74,-43.35 -85.33,-43.13 -84.13,-42.65 -82.94,-42.18 -81.40,-41.78 -79.87,-41.38 -78.79,-41.31 -77.71,-41.24 -76.24,-41.05 -74.77,-40.86 -73.51,-40.49 -72.25,-40.12 -70.22,-39.55 -68.19,-38.99 -66.29,-38.10 -64.38,-37.22 -61.81,-35.91 -59.24,-34.60 -56.86,-33.36 -54.48,-32.12 -51.92,-30.72 -49.36,-29.33 -46.96,-28.19 -44.57,-27.05 -41.36,-25.76 -38.15,-24.46 -35.41,-23.25 -32.67,-22.04 -29.99,-20.70 -27.31,-19.37 -24.63,-18.05 -21.95,-16.72 -18.99,-15.10 -16.04,-13.48 -13.62,-11.94 -11.20,-10.40 -9.49,-9.30 -7.78,-8.21 -6.51,-7.24 -5.24,-6.27 -3.94,-5.37 -2.63,-4.47 -1.53,-3.57 -0.43,-2.66 0.50,-1.88 1.43,-1.10 1.54,-0.91 1.65,-0.72 1.72,-0.51 1.78,-0.30 1.79,-0.09 1.80,0.12 1.76,0.34 1.72,0.55 1.63,0.75 1.54,0.95 1.40,1.12 1.26,1.29 1.09,1.42 0.92,1.55 0.72,1.64 0.52,1.73 0.30,1.77 0.09,1.80 -0.12,1.79 -0.34,1.77 -0.55,1.71 -0.76,1.64 -0.94,1.52 -1.13,1.41 -1.91,0.78 L -2.69,0.16 Z"></path></g></svg>