<svg version="1.1" xmlns="http://www.w3.org/2000/svg" viewBox="0 0 721.2149803857476 273.63985509745123" width="721.2149803857476" height="273.63985509745123">
  <!-- svg-source:excalidraw -->
  
  <defs>
    <style>
      @font-face {
        font-family: "Virgil";
        src: url("https://excalidraw.com/Virgil.woff2");
      }
      @font-face {
        font-family: "Cascadia";
        src: url("https://excalidraw.com/Cascadia.woff2");
      }
    </style>
  </defs>
  <g transform="translate(202.51241395431384 52.557021086231074) rotate(0 -0.20161290322585046 67.74193548387098)" stroke="none" fill="#000000"><path d="M 1.30,0.11 Q 1.30,0.11 1.31,2.80 1.31,5.48 1.11,7.56 0.91,9.64 0.71,11.56 0.51,13.48 0.44,18.04 0.37,22.60 0.19,29.56 0.01,36.52 -0.21,43.43 -0.43,50.33 -0.53,57.07 -0.63,63.82 -0.59,72.00 -0.56,80.19 -0.32,86.78 -0.08,93.38 0.42,100.22 0.93,107.06 1.26,112.20 1.58,117.33 2.08,122.03 2.58,126.74 2.88,130.44 3.19,134.15 3.17,134.36 3.15,134.57 3.07,134.77 2.98,134.96 2.84,135.12 2.70,135.28 2.52,135.38 2.33,135.49 2.12,135.53 1.91,135.57 1.70,135.54 1.49,135.51 1.30,135.42 1.11,135.32 0.96,135.17 0.81,135.02 0.72,134.83 0.62,134.64 0.59,134.43 0.56,134.22 0.60,134.01 0.64,133.80 0.75,133.62 0.85,133.43 1.01,133.29 1.17,133.15 1.36,133.07 1.56,132.98 1.77,132.96 1.98,132.95 2.19,133.00 2.40,133.05 2.57,133.16 2.75,133.28 2.89,133.44 3.02,133.61 3.09,133.81 3.17,134.01 3.17,134.22 3.18,134.43 3.12,134.64 3.05,134.84 2.93,135.01 2.81,135.18 2.63,135.31 2.46,135.43 2.26,135.49 2.06,135.56 1.84,135.55 1.63,135.55 1.43,135.47 1.23,135.40 1.07,135.27 0.90,135.13 0.79,134.95 0.67,134.78 0.62,134.57 0.57,134.36 0.57,134.36 0.57,134.36 0.27,130.69 -0.03,127.02 -0.53,122.27 -1.03,117.52 -1.43,112.41 -1.84,107.30 -2.47,100.40 -3.11,93.50 -3.41,86.86 -3.70,80.22 -3.84,72.00 -3.98,63.78 -3.92,57.01 -3.86,50.24 -3.72,43.34 -3.59,36.44 -3.46,29.49 -3.33,22.53 -3.23,17.81 -3.12,13.09 -2.91,11.18 -2.69,9.26 -2.47,7.22 -2.24,5.17 -1.77,2.53 -1.30,-0.11 -1.27,-0.26 -1.24,-0.42 -1.17,-0.56 -1.10,-0.70 -1.00,-0.83 -0.90,-0.95 -0.77,-1.04 -0.64,-1.14 -0.50,-1.20 -0.35,-1.26 -0.20,-1.28 -0.04,-1.31 0.11,-1.29 0.27,-1.28 0.42,-1.23 0.57,-1.18 0.70,-1.09 0.83,-1.01 0.94,-0.89 1.05,-0.78 1.13,-0.64 1.21,-0.50 1.25,-0.35 1.29,-0.20 1.30,-0.04 1.30,0.11 1.30,0.11 L 1.30,0.11 Z"></path></g><g transform="translate(199.01886556721706 50.84089205397299) rotate(0 0.00005000000010113581 0.00005000000000165983)" stroke="none" fill="#000000"><path d="M 2.12,-2.12 Q 2.12,-2.12 2.40,-1.73 2.69,-1.33 2.83,-0.87 2.97,-0.40 2.96,0.08 2.95,0.56 2.78,1.02 2.61,1.47 2.31,1.85 2.00,2.23 1.59,2.49 1.18,2.76 0.71,2.87 0.24,2.99 -0.24,2.95 -0.72,2.91 -1.17,2.72 -1.61,2.53 -1.98,2.20 -2.34,1.88 -2.58,1.45 -2.82,1.03 -2.91,0.55 -3.00,0.08 -2.93,-0.40 -2.87,-0.88 -2.65,-1.31 -2.44,-1.75 -2.09,-2.09 -1.75,-2.44 -1.31,-2.65 -0.88,-2.87 -0.39,-2.93 0.08,-3.00 0.55,-2.91 1.03,-2.82 1.46,-2.58 1.88,-2.34 2.20,-1.97 2.53,-1.61 2.72,-1.17 2.91,-0.72 2.95,-0.23 2.99,0.24 2.87,0.71 2.76,1.18 2.49,1.59 2.23,2.00 1.85,2.31 1.47,2.61 1.02,2.78 0.56,2.95 0.07,2.96 -0.40,2.97 -0.87,2.83 -1.33,2.69 -1.73,2.40 -2.12,2.12 -2.12,2.12 -2.12,2.12 -2.34,1.83 -2.57,1.55 -2.72,1.22 -2.86,0.89 -2.93,0.53 -2.99,0.18 -2.97,-0.18 -2.95,-0.54 -2.84,-0.88 -2.74,-1.23 -2.55,-1.54 -2.36,-1.85 -2.10,-2.10 -1.85,-2.36 -1.54,-2.55 -1.23,-2.74 -0.88,-2.84 -0.54,-2.95 -0.17,-2.97 0.18,-2.99 0.53,-2.93 0.89,-2.86 1.22,-2.72 1.55,-2.57 1.84,-2.34 2.12,-2.12 2.12,-2.12 L 2.12,-2.12 Z"></path></g><g transform="translate(199.01886556721706 51.34089205397299) rotate(0 0.00005000000010113581 0.00005000000000165983)" stroke="none" fill="#000000"><path d="M 2.12,-2.12 Q 2.12,-2.12 2.40,-1.73 2.69,-1.33 2.83,-0.87 2.97,-0.40 2.96,0.08 2.95,0.56 2.78,1.02 2.61,1.47 2.31,1.85 2.00,2.23 1.59,2.49 1.18,2.76 0.71,2.87 0.24,2.99 -0.24,2.95 -0.72,2.91 -1.17,2.72 -1.61,2.53 -1.98,2.20 -2.34,1.88 -2.58,1.45 -2.82,1.03 -2.91,0.55 -3.00,0.08 -2.93,-0.40 -2.87,-0.88 -2.65,-1.31 -2.44,-1.75 -2.09,-2.09 -1.75,-2.44 -1.31,-2.65 -0.88,-2.87 -0.39,-2.93 0.08,-3.00 0.55,-2.91 1.03,-2.82 1.46,-2.58 1.88,-2.34 2.20,-1.97 2.53,-1.61 2.72,-1.17 2.91,-0.72 2.95,-0.23 2.99,0.24 2.87,0.71 2.76,1.18 2.49,1.59 2.23,2.00 1.85,2.31 1.47,2.61 1.02,2.78 0.56,2.95 0.07,2.96 -0.40,2.97 -0.87,2.83 -1.33,2.69 -1.73,2.40 -2.12,2.12 -2.12,2.12 -2.12,2.12 -2.34,1.83 -2.57,1.55 -2.72,1.22 -2.86,0.89 -2.93,0.53 -2.99,0.18 -2.97,-0.18 -2.95,-0.54 -2.84,-0.88 -2.74,-1.23 -2.55,-1.54 -2.36,-1.85 -2.10,-2.10 -1.85,-2.36 -1.54,-2.55 -1.23,-2.74 -0.88,-2.84 -0.54,-2.95 -0.17,-2.97 0.18,-2.99 0.53,-2.93 0.89,-2.86 1.22,-2.72 1.55,-2.57 1.84,-2.34 2.12,-2.12 2.12,-2.12 L 2.12,-2.12 Z"></path></g><g transform="translate(199.01886556721706 51.84089205397301) rotate(0 0.00005000000010113581 0.00005000000000165983)" stroke="none" fill="#000000"><path d="M 2.12,-2.12 Q 2.12,-2.12 2.40,-1.73 2.69,-1.33 2.83,-0.87 2.97,-0.40 2.96,0.08 2.95,0.56 2.78,1.02 2.61,1.47 2.31,1.85 2.00,2.23 1.59,2.49 1.18,2.76 0.71,2.87 0.24,2.99 -0.24,2.95 -0.72,2.91 -1.17,2.72 -1.61,2.53 -1.98,2.20 -2.34,1.88 -2.58,1.45 -2.82,1.03 -2.91,0.55 -3.00,0.08 -2.93,-0.40 -2.87,-0.88 -2.65,-1.31 -2.44,-1.75 -2.09,-2.09 -1.75,-2.44 -1.31,-2.65 -0.88,-2.87 -0.39,-2.93 0.08,-3.00 0.55,-2.91 1.03,-2.82 1.46,-2.58 1.88,-2.34 2.20,-1.97 2.53,-1.61 2.72,-1.17 2.91,-0.72 2.95,-0.23 2.99,0.24 2.87,0.71 2.76,1.18 2.49,1.59 2.23,2.00 1.85,2.31 1.47,2.61 1.02,2.78 0.56,2.95 0.07,2.96 -0.40,2.97 -0.87,2.83 -1.33,2.69 -1.73,2.40 -2.12,2.12 -2.12,2.12 -2.12,2.12 -2.34,1.83 -2.57,1.55 -2.72,1.22 -2.86,0.89 -2.93,0.53 -2.99,0.18 -2.97,-0.18 -2.95,-0.54 -2.84,-0.88 -2.74,-1.23 -2.55,-1.54 -2.36,-1.85 -2.10,-2.10 -1.85,-2.36 -1.54,-2.55 -1.23,-2.74 -0.88,-2.84 -0.54,-2.95 -0.17,-2.97 0.18,-2.99 0.53,-2.93 0.89,-2.86 1.22,-2.72 1.55,-2.57 1.84,-2.34 2.12,-2.12 2.12,-2.12 L 2.12,-2.12 Z"></path></g><g transform="translate(199.01886556721706 51.84089205397301) rotate(0 0.25 0.25)" stroke="none" fill="#000000"><path d="M 1.25,-0.39 Q 1.25,-0.39 1.27,-0.07 1.29,0.23 1.16,0.52 1.03,0.80 0.78,1.00 0.53,1.19 0.22,1.25 -0.07,1.31 -0.37,1.21 -0.67,1.12 -0.90,0.90 -1.12,0.67 -1.21,0.37 -1.31,0.07 -1.25,-0.23 -1.19,-0.53 -1.00,-0.78 -0.80,-1.03 -0.52,-1.16 -0.23,-1.29 0.07,-1.27 0.39,-1.25 0.65,-1.09 0.92,-0.92 1.09,-0.65 L 1.25,-0.39 Z"></path></g><g transform="translate(200.01886556721706 54.34089205397301) rotate(0 0.00005000000010113581 0.00005000000000165983)" stroke="none" fill="#000000"><path d="M 2.12,-2.12 Q 2.12,-2.12 2.40,-1.73 2.69,-1.33 2.83,-0.87 2.97,-0.40 2.96,0.08 2.95,0.56 2.78,1.02 2.61,1.47 2.31,1.85 2.00,2.23 1.59,2.49 1.18,2.76 0.71,2.87 0.24,2.99 -0.24,2.95 -0.72,2.91 -1.17,2.72 -1.61,2.53 -1.98,2.20 -2.34,1.88 -2.58,1.45 -2.82,1.03 -2.91,0.55 -3.00,0.08 -2.93,-0.40 -2.87,-0.88 -2.65,-1.31 -2.44,-1.75 -2.09,-2.09 -1.75,-2.44 -1.31,-2.65 -0.88,-2.87 -0.39,-2.93 0.08,-3.00 0.55,-2.91 1.03,-2.82 1.46,-2.58 1.88,-2.34 2.20,-1.97 2.53,-1.61 2.72,-1.17 2.91,-0.72 2.95,-0.23 2.99,0.24 2.87,0.71 2.76,1.18 2.49,1.59 2.23,2.00 1.85,2.31 1.47,2.61 1.02,2.78 0.56,2.95 0.07,2.96 -0.40,2.97 -0.87,2.83 -1.33,2.69 -1.73,2.40 -2.12,2.12 -2.12,2.12 -2.12,2.12 -2.34,1.83 -2.57,1.55 -2.72,1.22 -2.86,0.89 -2.93,0.53 -2.99,0.18 -2.97,-0.18 -2.95,-0.54 -2.84,-0.88 -2.74,-1.23 -2.55,-1.54 -2.36,-1.85 -2.10,-2.10 -1.85,-2.36 -1.54,-2.55 -1.23,-2.74 -0.88,-2.84 -0.54,-2.95 -0.17,-2.97 0.18,-2.99 0.53,-2.93 0.89,-2.86 1.22,-2.72 1.55,-2.57 1.84,-2.34 2.12,-2.12 2.12,-2.12 L 2.12,-2.12 Z"></path></g><g transform="translate(200.01886556721706 54.34089205397301) rotate(0 0.00005000000010113581 0.00005000000000165983)" stroke="none" fill="#000000"><path d="M 2.12,-2.12 Q 2.12,-2.12 2.40,-1.73 2.69,-1.33 2.83,-0.87 2.97,-0.40 2.96,0.08 2.95,0.56 2.78,1.02 2.61,1.47 2.31,1.85 2.00,2.23 1.59,2.49 1.18,2.76 0.71,2.87 0.24,2.99 -0.24,2.95 -0.72,2.91 -1.17,2.72 -1.61,2.53 -1.98,2.20 -2.34,1.88 -2.58,1.45 -2.82,1.03 -2.91,0.55 -3.00,0.08 -2.93,-0.40 -2.87,-0.88 -2.65,-1.31 -2.44,-1.75 -2.09,-2.09 -1.75,-2.44 -1.31,-2.65 -0.88,-2.87 -0.39,-2.93 0.08,-3.00 0.55,-2.91 1.03,-2.82 1.46,-2.58 1.88,-2.34 2.20,-1.97 2.53,-1.61 2.72,-1.17 2.91,-0.72 2.95,-0.23 2.99,0.24 2.87,0.71 2.76,1.18 2.49,1.59 2.23,2.00 1.85,2.31 1.47,2.61 1.02,2.78 0.56,2.95 0.07,2.96 -0.40,2.97 -0.87,2.83 -1.33,2.69 -1.73,2.40 -2.12,2.12 -2.12,2.12 -2.12,2.12 -2.34,1.83 -2.57,1.55 -2.72,1.22 -2.86,0.89 -2.93,0.53 -2.99,0.18 -2.97,-0.18 -2.95,-0.54 -2.84,-0.88 -2.74,-1.23 -2.55,-1.54 -2.36,-1.85 -2.10,-2.10 -1.85,-2.36 -1.54,-2.55 -1.23,-2.74 -0.88,-2.84 -0.54,-2.95 -0.17,-2.97 0.18,-2.99 0.53,-2.93 0.89,-2.86 1.22,-2.72 1.55,-2.57 1.84,-2.34 2.12,-2.12 2.12,-2.12 L 2.12,-2.12 Z"></path></g><g transform="translate(200.01886556721706 53.84089205397301) rotate(0 -13.5 14.499999999999993)" stroke="none" fill="#000000"><path d="M 1.02,0.82 Q 1.02,0.82 0.59,1.65 0.17,2.49 -1.33,4.31 -2.83,6.13 -4.23,7.71 -5.63,9.29 -7.14,10.73 -8.65,12.18 -9.98,13.48 -11.31,14.79 -12.45,15.91 -13.60,17.04 -14.95,18.38 -16.30,19.71 -17.46,20.84 -18.63,21.97 -19.89,23.12 -21.15,24.27 -22.16,25.15 -23.17,26.03 -24.43,27.74 -25.69,29.45 -25.84,29.60 -26.00,29.74 -26.19,29.83 -26.39,29.91 -26.60,29.93 -26.81,29.95 -27.02,29.91 -27.22,29.86 -27.40,29.75 -27.58,29.63 -27.72,29.47 -27.86,29.31 -27.93,29.11 -28.01,28.91 -28.02,28.70 -28.02,28.48 -27.96,28.28 -27.91,28.08 -27.78,27.90 -27.66,27.73 -27.49,27.60 -27.32,27.48 -27.12,27.41 -26.92,27.35 -26.70,27.35 -26.49,27.35 -26.29,27.42 -26.09,27.49 -25.92,27.62 -25.76,27.75 -25.64,27.93 -25.52,28.11 -25.47,28.31 -25.41,28.52 -25.43,28.73 -25.44,28.94 -25.52,29.14 -25.60,29.34 -25.74,29.50 -25.88,29.66 -26.07,29.76 -26.25,29.87 -26.46,29.91 -26.67,29.96 -26.88,29.93 -27.09,29.90 -27.28,29.81 -27.47,29.72 -27.62,29.57 -27.78,29.42 -27.87,29.24 -27.97,29.05 -28.00,28.84 -28.03,28.63 -28.00,28.42 -27.96,28.21 -27.86,28.02 -27.76,27.84 -27.76,27.84 -27.76,27.84 -26.39,26.00 -25.03,24.17 -24.15,23.16 -23.27,22.15 -22.12,20.89 -20.97,19.63 -19.83,18.47 -18.70,17.31 -17.35,15.95 -16.01,14.60 -14.86,13.47 -13.72,12.33 -12.37,11.01 -11.02,9.69 -9.61,8.35 -8.20,7.01 -6.78,5.41 -5.36,3.81 -3.92,2.09 -2.47,0.37 -1.74,-0.22 -1.02,-0.82 -0.91,-0.93 -0.79,-1.04 -0.66,-1.12 -0.52,-1.20 -0.37,-1.24 -0.22,-1.29 -0.06,-1.30 0.09,-1.31 0.24,-1.27 0.40,-1.24 0.54,-1.18 0.69,-1.11 0.81,-1.01 0.93,-0.91 1.03,-0.79 1.13,-0.66 1.19,-0.52 1.25,-0.37 1.28,-0.22 1.31,-0.06 1.30,0.09 1.28,0.24 1.24,0.40 1.19,0.55 1.10,0.68 1.02,0.82 1.02,0.82 L 1.02,0.82 Z"></path></g><g transform="translate(169.01886556721706 83.340892053973) rotate(0 -0.5 20.25)" stroke="none" fill="#000000"><path d="M 1.29,-0.21 Q 1.29,-0.21 1.56,0.62 1.84,1.46 1.98,3.22 2.13,4.98 2.17,6.13 2.20,7.29 2.08,9.37 1.96,11.44 1.76,12.97 1.56,14.50 1.48,16.35 1.41,18.21 1.22,20.09 1.04,21.97 0.97,23.56 0.90,25.15 0.72,26.91 0.55,28.66 0.48,30.20 0.40,31.73 0.37,32.82 0.34,33.91 0.32,35.61 0.30,37.30 -1.25,37.73 -2.81,38.15 -2.77,37.94 -2.74,37.73 -2.64,37.54 -2.54,37.35 -2.39,37.21 -2.23,37.06 -2.04,36.97 -1.85,36.88 -1.64,36.86 -1.42,36.84 -1.22,36.88 -1.01,36.93 -0.83,37.04 -0.64,37.15 -0.51,37.31 -0.37,37.47 -0.29,37.67 -0.21,37.86 -0.20,38.08 -0.19,38.29 -0.25,38.49 -0.30,38.70 -0.42,38.87 -0.54,39.05 -0.71,39.18 -0.88,39.31 -1.08,39.38 -1.28,39.44 -1.50,39.44 -1.71,39.44 -1.91,39.37 -2.11,39.31 -2.28,39.18 -2.45,39.05 -2.57,38.87 -2.69,38.70 -2.74,38.49 -2.80,38.29 -2.79,38.08 -2.78,37.86 -2.70,37.67 -2.62,37.47 -2.48,37.31 -2.35,37.15 -2.16,37.04 -1.98,36.93 -1.77,36.88 -1.57,36.84 -1.35,36.86 -1.14,36.88 -0.95,36.97 -0.76,37.06 -0.60,37.21 -0.45,37.35 -0.35,37.54 -0.25,37.73 -0.22,37.94 -0.18,38.15 -0.18,38.15 -0.18,38.15 -1.73,37.71 -3.28,37.28 -3.27,35.54 -3.25,33.81 -3.22,32.69 -3.18,31.56 -3.10,29.93 -3.03,28.29 -2.85,26.64 -2.67,24.99 -2.59,23.30 -2.51,21.62 -2.33,19.83 -2.15,18.05 -2.05,16.04 -1.96,14.02 -1.75,12.52 -1.55,11.02 -1.39,9.17 -1.24,7.32 -1.22,6.19 -1.21,5.07 -1.23,3.52 -1.26,1.98 -1.28,1.09 -1.29,0.21 -1.30,0.05 -1.30,-0.10 -1.27,-0.25 -1.24,-0.41 -1.18,-0.55 -1.11,-0.69 -1.01,-0.82 -0.91,-0.94 -0.78,-1.03 -0.66,-1.13 -0.51,-1.19 -0.37,-1.25 -0.21,-1.28 -0.05,-1.31 0.09,-1.29 0.25,-1.28 0.40,-1.23 0.55,-1.18 0.69,-1.10 0.82,-1.02 0.93,-0.90 1.04,-0.79 1.12,-0.65 1.20,-0.51 1.25,-0.36 1.29,-0.21 1.29,-0.21 L 1.29,-0.21 Z"></path></g><g transform="translate(165.51886556721706 125.840892053973) rotate(0 0.00005000000010113581 0.00005000000000165983)" stroke="none" fill="#000000"><path d="M 2.12,-2.12 Q 2.12,-2.12 2.40,-1.73 2.69,-1.33 2.83,-0.87 2.97,-0.40 2.96,0.08 2.95,0.56 2.78,1.02 2.61,1.47 2.31,1.85 2.00,2.23 1.59,2.49 1.18,2.76 0.71,2.87 0.24,2.99 -0.24,2.95 -0.72,2.91 -1.17,2.72 -1.61,2.53 -1.98,2.20 -2.34,1.88 -2.58,1.45 -2.82,1.03 -2.91,0.55 -3.00,0.08 -2.93,-0.40 -2.87,-0.88 -2.65,-1.31 -2.44,-1.75 -2.09,-2.09 -1.75,-2.44 -1.31,-2.65 -0.88,-2.87 -0.39,-2.93 0.08,-3.00 0.55,-2.91 1.03,-2.82 1.46,-2.58 1.88,-2.34 2.20,-1.97 2.53,-1.61 2.72,-1.17 2.91,-0.72 2.95,-0.23 2.99,0.24 2.87,0.71 2.76,1.18 2.49,1.59 2.23,2.00 1.85,2.31 1.47,2.61 1.02,2.78 0.56,2.95 0.07,2.96 -0.40,2.97 -0.87,2.83 -1.33,2.69 -1.73,2.40 -2.12,2.12 -2.12,2.12 -2.12,2.12 -2.34,1.83 -2.57,1.55 -2.72,1.22 -2.86,0.89 -2.93,0.53 -2.99,0.18 -2.97,-0.18 -2.95,-0.54 -2.84,-0.88 -2.74,-1.23 -2.55,-1.54 -2.36,-1.85 -2.10,-2.10 -1.85,-2.36 -1.54,-2.55 -1.23,-2.74 -0.88,-2.84 -0.54,-2.95 -0.17,-2.97 0.18,-2.99 0.53,-2.93 0.89,-2.86 1.22,-2.72 1.55,-2.57 1.84,-2.34 2.12,-2.12 2.12,-2.12 L 2.12,-2.12 Z"></path></g><g transform="translate(165.51886556721706 126.840892053973) rotate(0 0.00005000000010113581 0.00005000000000165983)" stroke="none" fill="#000000"><path d="M 2.12,-2.12 Q 2.12,-2.12 2.40,-1.73 2.69,-1.33 2.83,-0.87 2.97,-0.40 2.96,0.08 2.95,0.56 2.78,1.02 2.61,1.47 2.31,1.85 2.00,2.23 1.59,2.49 1.18,2.76 0.71,2.87 0.24,2.99 -0.24,2.95 -0.72,2.91 -1.17,2.72 -1.61,2.53 -1.98,2.20 -2.34,1.88 -2.58,1.45 -2.82,1.03 -2.91,0.55 -3.00,0.08 -2.93,-0.40 -2.87,-0.88 -2.65,-1.31 -2.44,-1.75 -2.09,-2.09 -1.75,-2.44 -1.31,-2.65 -0.88,-2.87 -0.39,-2.93 0.08,-3.00 0.55,-2.91 1.03,-2.82 1.46,-2.58 1.88,-2.34 2.20,-1.97 2.53,-1.61 2.72,-1.17 2.91,-0.72 2.95,-0.23 2.99,0.24 2.87,0.71 2.76,1.18 2.49,1.59 2.23,2.00 1.85,2.31 1.47,2.61 1.02,2.78 0.56,2.95 0.07,2.96 -0.40,2.97 -0.87,2.83 -1.33,2.69 -1.73,2.40 -2.12,2.12 -2.12,2.12 -2.12,2.12 -2.34,1.83 -2.57,1.55 -2.72,1.22 -2.86,0.89 -2.93,0.53 -2.99,0.18 -2.97,-0.18 -2.95,-0.54 -2.84,-0.88 -2.74,-1.23 -2.55,-1.54 -2.36,-1.85 -2.10,-2.10 -1.85,-2.36 -1.54,-2.55 -1.23,-2.74 -0.88,-2.84 -0.54,-2.95 -0.17,-2.97 0.18,-2.99 0.53,-2.93 0.89,-2.86 1.22,-2.72 1.55,-2.57 1.84,-2.34 2.12,-2.12 2.12,-2.12 L 2.12,-2.12 Z"></path></g><g transform="translate(167.5688155672176 120.24084205397298) rotate(0 0.00005000000010113581 0.00005000000000165983)" stroke="none" fill="#000000"><path d="M 2.12,-2.12 Q 2.12,-2.12 2.40,-1.73 2.69,-1.33 2.83,-0.87 2.97,-0.40 2.96,0.08 2.95,0.56 2.78,1.02 2.61,1.47 2.31,1.85 2.00,2.23 1.59,2.49 1.18,2.76 0.71,2.87 0.24,2.99 -0.24,2.95 -0.72,2.91 -1.17,2.72 -1.61,2.53 -1.98,2.20 -2.34,1.88 -2.58,1.45 -2.82,1.03 -2.91,0.55 -3.00,0.08 -2.93,-0.40 -2.87,-0.88 -2.65,-1.31 -2.44,-1.75 -2.09,-2.09 -1.75,-2.44 -1.31,-2.65 -0.88,-2.87 -0.39,-2.93 0.08,-3.00 0.55,-2.91 1.03,-2.82 1.46,-2.58 1.88,-2.34 2.20,-1.97 2.53,-1.61 2.72,-1.17 2.91,-0.72 2.95,-0.23 2.99,0.24 2.87,0.71 2.76,1.18 2.49,1.59 2.23,2.00 1.85,2.31 1.47,2.61 1.02,2.78 0.56,2.95 0.07,2.96 -0.40,2.97 -0.87,2.83 -1.33,2.69 -1.73,2.40 -2.12,2.12 -2.12,2.12 -2.12,2.12 -2.34,1.83 -2.57,1.55 -2.72,1.22 -2.86,0.89 -2.93,0.53 -2.99,0.18 -2.97,-0.18 -2.95,-0.54 -2.84,-0.88 -2.74,-1.23 -2.55,-1.54 -2.36,-1.85 -2.10,-2.10 -1.85,-2.36 -1.54,-2.55 -1.23,-2.74 -0.88,-2.84 -0.54,-2.95 -0.17,-2.97 0.18,-2.99 0.53,-2.93 0.89,-2.86 1.22,-2.72 1.55,-2.57 1.84,-2.34 2.12,-2.12 2.12,-2.12 L 2.12,-2.12 Z"></path></g><g transform="translate(167.5688155672176 120.74084205397298) rotate(0 0.00005000000010113581 0.00005000000000165983)" stroke="none" fill="#000000"><path d="M 2.12,-2.12 Q 2.12,-2.12 2.40,-1.73 2.69,-1.33 2.83,-0.87 2.97,-0.40 2.96,0.08 2.95,0.56 2.78,1.02 2.61,1.47 2.31,1.85 2.00,2.23 1.59,2.49 1.18,2.76 0.71,2.87 0.24,2.99 -0.24,2.95 -0.72,2.91 -1.17,2.72 -1.61,2.53 -1.98,2.20 -2.34,1.88 -2.58,1.45 -2.82,1.03 -2.91,0.55 -3.00,0.08 -2.93,-0.40 -2.87,-0.88 -2.65,-1.31 -2.44,-1.75 -2.09,-2.09 -1.75,-2.44 -1.31,-2.65 -0.88,-2.87 -0.39,-2.93 0.08,-3.00 0.55,-2.91 1.03,-2.82 1.46,-2.58 1.88,-2.34 2.20,-1.97 2.53,-1.61 2.72,-1.17 2.91,-0.72 2.95,-0.23 2.99,0.24 2.87,0.71 2.76,1.18 2.49,1.59 2.23,2.00 1.85,2.31 1.47,2.61 1.02,2.78 0.56,2.95 0.07,2.96 -0.40,2.97 -0.87,2.83 -1.33,2.69 -1.73,2.40 -2.12,2.12 -2.12,2.12 -2.12,2.12 -2.34,1.83 -2.57,1.55 -2.72,1.22 -2.86,0.89 -2.93,0.53 -2.99,0.18 -2.97,-0.18 -2.95,-0.54 -2.84,-0.88 -2.74,-1.23 -2.55,-1.54 -2.36,-1.85 -2.10,-2.10 -1.85,-2.36 -1.54,-2.55 -1.23,-2.74 -0.88,-2.84 -0.54,-2.95 -0.17,-2.97 0.18,-2.99 0.53,-2.93 0.89,-2.86 1.22,-2.72 1.55,-2.57 1.84,-2.34 2.12,-2.12 2.12,-2.12 L 2.12,-2.12 Z"></path></g><g transform="translate(167.5688155672176 121.24084205397298) rotate(0 0.00005000000010113581 0.00005000000000165983)" stroke="none" fill="#000000"><path d="M 2.12,-2.12 Q 2.12,-2.12 2.40,-1.73 2.69,-1.33 2.83,-0.87 2.97,-0.40 2.96,0.08 2.95,0.56 2.78,1.02 2.61,1.47 2.31,1.85 2.00,2.23 1.59,2.49 1.18,2.76 0.71,2.87 0.24,2.99 -0.24,2.95 -0.72,2.91 -1.17,2.72 -1.61,2.53 -1.98,2.20 -2.34,1.88 -2.58,1.45 -2.82,1.03 -2.91,0.55 -3.00,0.08 -2.93,-0.40 -2.87,-0.88 -2.65,-1.31 -2.44,-1.75 -2.09,-2.09 -1.75,-2.44 -1.31,-2.65 -0.88,-2.87 -0.39,-2.93 0.08,-3.00 0.55,-2.91 1.03,-2.82 1.46,-2.58 1.88,-2.34 2.20,-1.97 2.53,-1.61 2.72,-1.17 2.91,-0.72 2.95,-0.23 2.99,0.24 2.87,0.71 2.76,1.18 2.49,1.59 2.23,2.00 1.85,2.31 1.47,2.61 1.02,2.78 0.56,2.95 0.07,2.96 -0.40,2.97 -0.87,2.83 -1.33,2.69 -1.73,2.40 -2.12,2.12 -2.12,2.12 -2.12,2.12 -2.34,1.83 -2.57,1.55 -2.72,1.22 -2.86,0.89 -2.93,0.53 -2.99,0.18 -2.97,-0.18 -2.95,-0.54 -2.84,-0.88 -2.74,-1.23 -2.55,-1.54 -2.36,-1.85 -2.10,-2.10 -1.85,-2.36 -1.54,-2.55 -1.23,-2.74 -0.88,-2.84 -0.54,-2.95 -0.17,-2.97 0.18,-2.99 0.53,-2.93 0.89,-2.86 1.22,-2.72 1.55,-2.57 1.84,-2.34 2.12,-2.12 2.12,-2.12 L 2.12,-2.12 Z"></path></g><g transform="translate(167.5688155672176 121.24084205397298) rotate(0 0.25 0.25)" stroke="none" fill="#000000"><path d="M 1.25,-0.39 Q 1.25,-0.39 1.27,-0.07 1.29,0.23 1.16,0.52 1.03,0.80 0.78,1.00 0.53,1.19 0.22,1.25 -0.07,1.31 -0.37,1.21 -0.67,1.12 -0.90,0.90 -1.12,0.67 -1.21,0.37 -1.31,0.07 -1.25,-0.23 -1.19,-0.53 -1.00,-0.78 -0.80,-1.03 -0.52,-1.16 -0.23,-1.29 0.07,-1.27 0.39,-1.25 0.65,-1.09 0.92,-0.92 1.09,-0.65 L 1.25,-0.39 Z"></path></g><g transform="translate(168.5688155672176 123.74084205397298) rotate(0 0.00005000000010113581 0.00005000000000165983)" stroke="none" fill="#000000"><path d="M 2.12,-2.12 Q 2.12,-2.12 2.40,-1.73 2.69,-1.33 2.83,-0.87 2.97,-0.40 2.96,0.08 2.95,0.56 2.78,1.02 2.61,1.47 2.31,1.85 2.00,2.23 1.59,2.49 1.18,2.76 0.71,2.87 0.24,2.99 -0.24,2.95 -0.72,2.91 -1.17,2.72 -1.61,2.53 -1.98,2.20 -2.34,1.88 -2.58,1.45 -2.82,1.03 -2.91,0.55 -3.00,0.08 -2.93,-0.40 -2.87,-0.88 -2.65,-1.31 -2.44,-1.75 -2.09,-2.09 -1.75,-2.44 -1.31,-2.65 -0.88,-2.87 -0.39,-2.93 0.08,-3.00 0.55,-2.91 1.03,-2.82 1.46,-2.58 1.88,-2.34 2.20,-1.97 2.53,-1.61 2.72,-1.17 2.91,-0.72 2.95,-0.23 2.99,0.24 2.87,0.71 2.76,1.18 2.49,1.59 2.23,2.00 1.85,2.31 1.47,2.61 1.02,2.78 0.56,2.95 0.07,2.96 -0.40,2.97 -0.87,2.83 -1.33,2.69 -1.73,2.40 -2.12,2.12 -2.12,2.12 -2.12,2.12 -2.34,1.83 -2.57,1.55 -2.72,1.22 -2.86,0.89 -2.93,0.53 -2.99,0.18 -2.97,-0.18 -2.95,-0.54 -2.84,-0.88 -2.74,-1.23 -2.55,-1.54 -2.36,-1.85 -2.10,-2.10 -1.85,-2.36 -1.54,-2.55 -1.23,-2.74 -0.88,-2.84 -0.54,-2.95 -0.17,-2.97 0.18,-2.99 0.53,-2.93 0.89,-2.86 1.22,-2.72 1.55,-2.57 1.84,-2.34 2.12,-2.12 2.12,-2.12 L 2.12,-2.12 Z"></path></g><g transform="translate(168.5688155672176 123.74084205397298) rotate(0 0.00005000000010113581 0.00005000000000165983)" stroke="none" fill="#000000"><path d="M 2.12,-2.12 Q 2.12,-2.12 2.40,-1.73 2.69,-1.33 2.83,-0.87 2.97,-0.40 2.96,0.08 2.95,0.56 2.78,1.02 2.61,1.47 2.31,1.85 2.00,2.23 1.59,2.49 1.18,2.76 0.71,2.87 0.24,2.99 -0.24,2.95 -0.72,2.91 -1.17,2.72 -1.61,2.53 -1.98,2.20 -2.34,1.88 -2.58,1.45 -2.82,1.03 -2.91,0.55 -3.00,0.08 -2.93,-0.40 -2.87,-0.88 -2.65,-1.31 -2.44,-1.75 -2.09,-2.09 -1.75,-2.44 -1.31,-2.65 -0.88,-2.87 -0.39,-2.93 0.08,-3.00 0.55,-2.91 1.03,-2.82 1.46,-2.58 1.88,-2.34 2.20,-1.97 2.53,-1.61 2.72,-1.17 2.91,-0.72 2.95,-0.23 2.99,0.24 2.87,0.71 2.76,1.18 2.49,1.59 2.23,2.00 1.85,2.31 1.47,2.61 1.02,2.78 0.56,2.95 0.07,2.96 -0.40,2.97 -0.87,2.83 -1.33,2.69 -1.73,2.40 -2.12,2.12 -2.12,2.12 -2.12,2.12 -2.34,1.83 -2.57,1.55 -2.72,1.22 -2.86,0.89 -2.93,0.53 -2.99,0.18 -2.97,-0.18 -2.95,-0.54 -2.84,-0.88 -2.74,-1.23 -2.55,-1.54 -2.36,-1.85 -2.10,-2.10 -1.85,-2.36 -1.54,-2.55 -1.23,-2.74 -0.88,-2.84 -0.54,-2.95 -0.17,-2.97 0.18,-2.99 0.53,-2.93 0.89,-2.86 1.22,-2.72 1.55,-2.57 1.84,-2.34 2.12,-2.12 2.12,-2.12 L 2.12,-2.12 Z"></path></g><g transform="translate(168.5688155672176 123.24084205397298) rotate(0 -13.5 14.5)" stroke="none" fill="#000000"><path d="M 1.02,0.82 Q 1.02,0.82 0.59,1.65 0.17,2.49 -1.33,4.31 -2.83,6.13 -4.23,7.71 -5.63,9.29 -7.14,10.73 -8.65,12.18 -9.98,13.48 -11.31,14.79 -12.45,15.91 -13.60,17.04 -14.95,18.38 -16.30,19.71 -17.46,20.84 -18.63,21.97 -19.89,23.12 -21.15,24.27 -22.16,25.15 -23.17,26.03 -24.43,27.74 -25.69,29.45 -25.84,29.60 -26.00,29.74 -26.19,29.83 -26.39,29.91 -26.60,29.93 -26.81,29.95 -27.02,29.91 -27.22,29.86 -27.40,29.75 -27.58,29.63 -27.72,29.47 -27.86,29.31 -27.93,29.11 -28.01,28.91 -28.02,28.70 -28.02,28.48 -27.96,28.28 -27.91,28.08 -27.78,27.90 -27.66,27.73 -27.49,27.60 -27.32,27.48 -27.12,27.41 -26.92,27.35 -26.70,27.35 -26.49,27.35 -26.29,27.42 -26.09,27.49 -25.92,27.62 -25.76,27.75 -25.64,27.93 -25.52,28.11 -25.47,28.31 -25.41,28.52 -25.43,28.73 -25.44,28.94 -25.52,29.14 -25.60,29.34 -25.74,29.50 -25.88,29.66 -26.07,29.76 -26.25,29.87 -26.46,29.91 -26.67,29.96 -26.88,29.93 -27.09,29.90 -27.28,29.81 -27.47,29.72 -27.62,29.57 -27.78,29.42 -27.87,29.24 -27.97,29.05 -28.00,28.84 -28.03,28.63 -28.00,28.42 -27.96,28.21 -27.86,28.02 -27.76,27.84 -27.76,27.84 -27.76,27.84 -26.39,26.00 -25.03,24.17 -24.15,23.16 -23.27,22.15 -22.12,20.89 -20.97,19.63 -19.83,18.47 -18.70,17.31 -17.35,15.95 -16.01,14.60 -14.86,13.47 -13.72,12.33 -12.37,11.01 -11.02,9.69 -9.61,8.35 -8.20,7.01 -6.78,5.41 -5.36,3.81 -3.92,2.09 -2.47,0.37 -1.74,-0.22 -1.02,-0.82 -0.91,-0.93 -0.79,-1.04 -0.66,-1.12 -0.52,-1.20 -0.37,-1.24 -0.22,-1.29 -0.06,-1.30 0.09,-1.31 0.24,-1.27 0.40,-1.24 0.54,-1.18 0.69,-1.11 0.81,-1.01 0.93,-0.91 1.03,-0.79 1.13,-0.66 1.19,-0.52 1.25,-0.37 1.28,-0.22 1.31,-0.06 1.30,0.09 1.28,0.24 1.24,0.40 1.19,0.55 1.10,0.68 1.02,0.82 1.02,0.82 L 1.02,0.82 Z"></path></g><g transform="translate(137.5688155672176 152.74084205397298) rotate(0 -0.5 18.07608695652175)" stroke="none" fill="#000000"><path d="M 1.29,-0.24 Q 1.29,-0.24 1.56,0.50 1.83,1.25 1.98,2.84 2.13,4.43 2.18,6.16 2.23,7.89 2.10,9.08 1.96,10.26 1.76,11.63 1.56,12.99 1.48,14.63 1.41,16.27 1.22,17.96 1.04,19.65 0.97,21.06 0.90,22.47 0.72,24.05 0.54,25.63 0.47,26.99 0.40,28.35 0.36,30.11 0.32,31.86 0.31,33.02 0.30,34.17 -1.25,34.11 -2.81,34.05 -2.77,33.84 -2.74,33.63 -2.64,33.44 -2.54,33.26 -2.39,33.11 -2.23,32.96 -2.04,32.87 -1.85,32.79 -1.64,32.76 -1.42,32.74 -1.22,32.79 -1.01,32.83 -0.83,32.94 -0.64,33.05 -0.51,33.21 -0.37,33.37 -0.29,33.57 -0.21,33.77 -0.20,33.98 -0.19,34.19 -0.25,34.40 -0.30,34.60 -0.42,34.78 -0.54,34.95 -0.71,35.08 -0.88,35.21 -1.08,35.28 -1.28,35.35 -1.50,35.35 -1.71,35.35 -1.91,35.28 -2.11,35.21 -2.28,35.08 -2.45,34.95 -2.57,34.78 -2.69,34.60 -2.74,34.40 -2.80,34.19 -2.79,33.98 -2.78,33.77 -2.70,33.57 -2.62,33.37 -2.48,33.21 -2.35,33.05 -2.16,32.94 -1.98,32.83 -1.77,32.79 -1.57,32.74 -1.35,32.76 -1.14,32.79 -0.95,32.87 -0.76,32.96 -0.60,33.11 -0.45,33.26 -0.35,33.44 -0.25,33.63 -0.22,33.84 -0.18,34.05 -0.18,34.05 -0.18,34.05 -1.74,34.10 -3.29,34.15 -3.28,32.98 -3.28,31.80 -3.23,29.98 -3.18,28.16 -3.10,26.68 -3.02,25.21 -2.85,23.75 -2.67,22.28 -2.59,20.77 -2.50,19.25 -2.33,17.68 -2.15,16.10 -2.05,14.28 -1.95,12.46 -1.60,10.19 -1.25,7.91 -1.23,6.22 -1.21,4.53 -1.23,3.18 -1.26,1.82 -1.27,1.03 -1.29,0.24 -1.30,0.08 -1.31,-0.07 -1.28,-0.23 -1.25,-0.38 -1.19,-0.53 -1.12,-0.67 -1.02,-0.80 -0.93,-0.92 -0.80,-1.02 -0.68,-1.12 -0.53,-1.18 -0.39,-1.25 -0.23,-1.28 -0.08,-1.31 0.07,-1.30 0.23,-1.29 0.38,-1.24 0.53,-1.19 0.67,-1.11 0.80,-1.03 0.91,-0.92 1.03,-0.81 1.11,-0.67 1.19,-0.54 1.24,-0.39 1.29,-0.24 1.29,-0.24 L 1.29,-0.24 Z"></path></g><g transform="translate(134.0688155672176 195.24084205397298) rotate(0 0.00004999999998744897 0.00004999999998744897)" stroke="none" fill="#000000"><path d="M 2.12,-2.12 Q 2.12,-2.12 2.40,-1.73 2.69,-1.33 2.83,-0.87 2.97,-0.40 2.96,0.08 2.95,0.56 2.78,1.02 2.61,1.47 2.31,1.85 2.00,2.23 1.59,2.49 1.18,2.76 0.71,2.87 0.24,2.99 -0.24,2.95 -0.72,2.91 -1.17,2.72 -1.61,2.53 -1.98,2.20 -2.34,1.88 -2.58,1.45 -2.82,1.03 -2.91,0.55 -3.00,0.08 -2.93,-0.40 -2.87,-0.88 -2.65,-1.31 -2.44,-1.75 -2.09,-2.09 -1.75,-2.44 -1.31,-2.65 -0.88,-2.87 -0.39,-2.93 0.08,-3.00 0.55,-2.91 1.03,-2.82 1.46,-2.58 1.88,-2.34 2.20,-1.97 2.53,-1.61 2.72,-1.17 2.91,-0.72 2.95,-0.23 2.99,0.24 2.87,0.71 2.76,1.18 2.49,1.59 2.23,2.00 1.85,2.31 1.47,2.61 1.02,2.78 0.56,2.95 0.07,2.96 -0.40,2.97 -0.87,2.83 -1.33,2.69 -1.73,2.40 -2.12,2.12 -2.12,2.12 -2.12,2.12 -2.34,1.83 -2.57,1.55 -2.72,1.22 -2.86,0.89 -2.93,0.53 -2.99,0.18 -2.97,-0.18 -2.95,-0.54 -2.84,-0.88 -2.74,-1.23 -2.55,-1.54 -2.36,-1.85 -2.10,-2.10 -1.85,-2.36 -1.54,-2.55 -1.23,-2.74 -0.88,-2.84 -0.54,-2.95 -0.17,-2.97 0.18,-2.99 0.53,-2.93 0.89,-2.86 1.22,-2.72 1.55,-2.57 1.84,-2.34 2.12,-2.12 2.12,-2.12 L 2.12,-2.12 Z"></path></g><g transform="translate(134.0688155672176 196.24084205397298) rotate(0 0.00004999999998744897 0.00004999999998744897)" stroke="none" fill="#000000"><path d="M 2.12,-2.12 Q 2.12,-2.12 2.40,-1.73 2.69,-1.33 2.83,-0.87 2.97,-0.40 2.96,0.08 2.95,0.56 2.78,1.02 2.61,1.47 2.31,1.85 2.00,2.23 1.59,2.49 1.18,2.76 0.71,2.87 0.24,2.99 -0.24,2.95 -0.72,2.91 -1.17,2.72 -1.61,2.53 -1.98,2.20 -2.34,1.88 -2.58,1.45 -2.82,1.03 -2.91,0.55 -3.00,0.08 -2.93,-0.40 -2.87,-0.88 -2.65,-1.31 -2.44,-1.75 -2.09,-2.09 -1.75,-2.44 -1.31,-2.65 -0.88,-2.87 -0.39,-2.93 0.08,-3.00 0.55,-2.91 1.03,-2.82 1.46,-2.58 1.88,-2.34 2.20,-1.97 2.53,-1.61 2.72,-1.17 2.91,-0.72 2.95,-0.23 2.99,0.24 2.87,0.71 2.76,1.18 2.49,1.59 2.23,2.00 1.85,2.31 1.47,2.61 1.02,2.78 0.56,2.95 0.07,2.96 -0.40,2.97 -0.87,2.83 -1.33,2.69 -1.73,2.40 -2.12,2.12 -2.12,2.12 -2.12,2.12 -2.34,1.83 -2.57,1.55 -2.72,1.22 -2.86,0.89 -2.93,0.53 -2.99,0.18 -2.97,-0.18 -2.95,-0.54 -2.84,-0.88 -2.74,-1.23 -2.55,-1.54 -2.36,-1.85 -2.10,-2.10 -1.85,-2.36 -1.54,-2.55 -1.23,-2.74 -0.88,-2.84 -0.54,-2.95 -0.17,-2.97 0.18,-2.99 0.53,-2.93 0.89,-2.86 1.22,-2.72 1.55,-2.57 1.84,-2.34 2.12,-2.12 2.12,-2.12 L 2.12,-2.12 Z"></path></g><g transform="translate(135.25794600199947 187.63975509745126) rotate(0 0.00004999999998744897 0.00004999999998744897)" stroke="none" fill="#000000"><path d="M 2.12,-2.12 Q 2.12,-2.12 2.40,-1.73 2.69,-1.33 2.83,-0.87 2.97,-0.40 2.96,0.08 2.95,0.56 2.78,1.02 2.61,1.47 2.31,1.85 2.00,2.23 1.59,2.49 1.18,2.76 0.71,2.87 0.24,2.99 -0.24,2.95 -0.72,2.91 -1.17,2.72 -1.61,2.53 -1.98,2.20 -2.34,1.88 -2.58,1.45 -2.82,1.03 -2.91,0.55 -3.00,0.08 -2.93,-0.40 -2.87,-0.88 -2.65,-1.31 -2.44,-1.75 -2.09,-2.09 -1.75,-2.44 -1.31,-2.65 -0.88,-2.87 -0.39,-2.93 0.08,-3.00 0.55,-2.91 1.03,-2.82 1.46,-2.58 1.88,-2.34 2.20,-1.97 2.53,-1.61 2.72,-1.17 2.91,-0.72 2.95,-0.23 2.99,0.24 2.87,0.71 2.76,1.18 2.49,1.59 2.23,2.00 1.85,2.31 1.47,2.61 1.02,2.78 0.56,2.95 0.07,2.96 -0.40,2.97 -0.87,2.83 -1.33,2.69 -1.73,2.40 -2.12,2.12 -2.12,2.12 -2.12,2.12 -2.34,1.83 -2.57,1.55 -2.72,1.22 -2.86,0.89 -2.93,0.53 -2.99,0.18 -2.97,-0.18 -2.95,-0.54 -2.84,-0.88 -2.74,-1.23 -2.55,-1.54 -2.36,-1.85 -2.10,-2.10 -1.85,-2.36 -1.54,-2.55 -1.23,-2.74 -0.88,-2.84 -0.54,-2.95 -0.17,-2.97 0.18,-2.99 0.53,-2.93 0.89,-2.86 1.22,-2.72 1.55,-2.57 1.84,-2.34 2.12,-2.12 2.12,-2.12 L 2.12,-2.12 Z"></path></g><g transform="translate(135.25794600199947 188.13975509745126) rotate(0 0.00004999999998744897 0.00004999999998744897)" stroke="none" fill="#000000"><path d="M 2.12,-2.12 Q 2.12,-2.12 2.40,-1.73 2.69,-1.33 2.83,-0.87 2.97,-0.40 2.96,0.08 2.95,0.56 2.78,1.02 2.61,1.47 2.31,1.85 2.00,2.23 1.59,2.49 1.18,2.76 0.71,2.87 0.24,2.99 -0.24,2.95 -0.72,2.91 -1.17,2.72 -1.61,2.53 -1.98,2.20 -2.34,1.88 -2.58,1.45 -2.82,1.03 -2.91,0.55 -3.00,0.08 -2.93,-0.40 -2.87,-0.88 -2.65,-1.31 -2.44,-1.75 -2.09,-2.09 -1.75,-2.44 -1.31,-2.65 -0.88,-2.87 -0.39,-2.93 0.08,-3.00 0.55,-2.91 1.03,-2.82 1.46,-2.58 1.88,-2.34 2.20,-1.97 2.53,-1.61 2.72,-1.17 2.91,-0.72 2.95,-0.23 2.99,0.24 2.87,0.71 2.76,1.18 2.49,1.59 2.23,2.00 1.85,2.31 1.47,2.61 1.02,2.78 0.56,2.95 0.07,2.96 -0.40,2.97 -0.87,2.83 -1.33,2.69 -1.73,2.40 -2.12,2.12 -2.12,2.12 -2.12,2.12 -2.34,1.83 -2.57,1.55 -2.72,1.22 -2.86,0.89 -2.93,0.53 -2.99,0.18 -2.97,-0.18 -2.95,-0.54 -2.84,-0.88 -2.74,-1.23 -2.55,-1.54 -2.36,-1.85 -2.10,-2.10 -1.85,-2.36 -1.54,-2.55 -1.23,-2.74 -0.88,-2.84 -0.54,-2.95 -0.17,-2.97 0.18,-2.99 0.53,-2.93 0.89,-2.86 1.22,-2.72 1.55,-2.57 1.84,-2.34 2.12,-2.12 2.12,-2.12 L 2.12,-2.12 Z"></path></g><g transform="translate(135.25794600199947 188.63975509745126) rotate(0 0.00004999999998744897 0.00004999999998744897)" stroke="none" fill="#000000"><path d="M 2.12,-2.12 Q 2.12,-2.12 2.40,-1.73 2.69,-1.33 2.83,-0.87 2.97,-0.40 2.96,0.08 2.95,0.56 2.78,1.02 2.61,1.47 2.31,1.85 2.00,2.23 1.59,2.49 1.18,2.76 0.71,2.87 0.24,2.99 -0.24,2.95 -0.72,2.91 -1.17,2.72 -1.61,2.53 -1.98,2.20 -2.34,1.88 -2.58,1.45 -2.82,1.03 -2.91,0.55 -3.00,0.08 -2.93,-0.40 -2.87,-0.88 -2.65,-1.31 -2.44,-1.75 -2.09,-2.09 -1.75,-2.44 -1.31,-2.65 -0.88,-2.87 -0.39,-2.93 0.08,-3.00 0.55,-2.91 1.03,-2.82 1.46,-2.58 1.88,-2.34 2.20,-1.97 2.53,-1.61 2.72,-1.17 2.91,-0.72 2.95,-0.23 2.99,0.24 2.87,0.71 2.76,1.18 2.49,1.59 2.23,2.00 1.85,2.31 1.47,2.61 1.02,2.78 0.56,2.95 0.07,2.96 -0.40,2.97 -0.87,2.83 -1.33,2.69 -1.73,2.40 -2.12,2.12 -2.12,2.12 -2.12,2.12 -2.34,1.83 -2.57,1.55 -2.72,1.22 -2.86,0.89 -2.93,0.53 -2.99,0.18 -2.97,-0.18 -2.95,-0.54 -2.84,-0.88 -2.74,-1.23 -2.55,-1.54 -2.36,-1.85 -2.10,-2.10 -1.85,-2.36 -1.54,-2.55 -1.23,-2.74 -0.88,-2.84 -0.54,-2.95 -0.17,-2.97 0.18,-2.99 0.53,-2.93 0.89,-2.86 1.22,-2.72 1.55,-2.57 1.84,-2.34 2.12,-2.12 2.12,-2.12 L 2.12,-2.12 Z"></path></g><g transform="translate(135.25794600199947 188.63975509745126) rotate(0 0.25 0.25)" stroke="none" fill="#000000"><path d="M 1.25,-0.39 Q 1.25,-0.39 1.27,-0.07 1.29,0.23 1.16,0.52 1.03,0.80 0.78,1.00 0.53,1.19 0.22,1.25 -0.07,1.31 -0.37,1.21 -0.67,1.12 -0.90,0.90 -1.12,0.67 -1.21,0.37 -1.31,0.07 -1.25,-0.23 -1.19,-0.53 -1.00,-0.78 -0.80,-1.03 -0.52,-1.16 -0.23,-1.29 0.07,-1.27 0.39,-1.25 0.65,-1.09 0.92,-0.92 1.09,-0.65 L 1.25,-0.39 Z"></path></g><g transform="translate(136.25794600199947 191.13975509745126) rotate(0 0.00004999999998744897 0.00004999999998744897)" stroke="none" fill="#000000"><path d="M 2.12,-2.12 Q 2.12,-2.12 2.40,-1.73 2.69,-1.33 2.83,-0.87 2.97,-0.40 2.96,0.08 2.95,0.56 2.78,1.02 2.61,1.47 2.31,1.85 2.00,2.23 1.59,2.49 1.18,2.76 0.71,2.87 0.24,2.99 -0.24,2.95 -0.72,2.91 -1.17,2.72 -1.61,2.53 -1.98,2.20 -2.34,1.88 -2.58,1.45 -2.82,1.03 -2.91,0.55 -3.00,0.08 -2.93,-0.40 -2.87,-0.88 -2.65,-1.31 -2.44,-1.75 -2.09,-2.09 -1.75,-2.44 -1.31,-2.65 -0.88,-2.87 -0.39,-2.93 0.08,-3.00 0.55,-2.91 1.03,-2.82 1.46,-2.58 1.88,-2.34 2.20,-1.97 2.53,-1.61 2.72,-1.17 2.91,-0.72 2.95,-0.23 2.99,0.24 2.87,0.71 2.76,1.18 2.49,1.59 2.23,2.00 1.85,2.31 1.47,2.61 1.02,2.78 0.56,2.95 0.07,2.96 -0.40,2.97 -0.87,2.83 -1.33,2.69 -1.73,2.40 -2.12,2.12 -2.12,2.12 -2.12,2.12 -2.34,1.83 -2.57,1.55 -2.72,1.22 -2.86,0.89 -2.93,0.53 -2.99,0.18 -2.97,-0.18 -2.95,-0.54 -2.84,-0.88 -2.74,-1.23 -2.55,-1.54 -2.36,-1.85 -2.10,-2.10 -1.85,-2.36 -1.54,-2.55 -1.23,-2.74 -0.88,-2.84 -0.54,-2.95 -0.17,-2.97 0.18,-2.99 0.53,-2.93 0.89,-2.86 1.22,-2.72 1.55,-2.57 1.84,-2.34 2.12,-2.12 2.12,-2.12 L 2.12,-2.12 Z"></path></g><g transform="translate(136.25794600199947 191.13975509745126) rotate(0 0.00004999999998744897 0.00004999999998744897)" stroke="none" fill="#000000"><path d="M 2.12,-2.12 Q 2.12,-2.12 2.40,-1.73 2.69,-1.33 2.83,-0.87 2.97,-0.40 2.96,0.08 2.95,0.56 2.78,1.02 2.61,1.47 2.31,1.85 2.00,2.23 1.59,2.49 1.18,2.76 0.71,2.87 0.24,2.99 -0.24,2.95 -0.72,2.91 -1.17,2.72 -1.61,2.53 -1.98,2.20 -2.34,1.88 -2.58,1.45 -2.82,1.03 -2.91,0.55 -3.00,0.08 -2.93,-0.40 -2.87,-0.88 -2.65,-1.31 -2.44,-1.75 -2.09,-2.09 -1.75,-2.44 -1.31,-2.65 -0.88,-2.87 -0.39,-2.93 0.08,-3.00 0.55,-2.91 1.03,-2.82 1.46,-2.58 1.88,-2.34 2.20,-1.97 2.53,-1.61 2.72,-1.17 2.91,-0.72 2.95,-0.23 2.99,0.24 2.87,0.71 2.76,1.18 2.49,1.59 2.23,2.00 1.85,2.31 1.47,2.61 1.02,2.78 0.56,2.95 0.07,2.96 -0.40,2.97 -0.87,2.83 -1.33,2.69 -1.73,2.40 -2.12,2.12 -2.12,2.12 -2.12,2.12 -2.34,1.83 -2.57,1.55 -2.72,1.22 -2.86,0.89 -2.93,0.53 -2.99,0.18 -2.97,-0.18 -2.95,-0.54 -2.84,-0.88 -2.74,-1.23 -2.55,-1.54 -2.36,-1.85 -2.10,-2.10 -1.85,-2.36 -1.54,-2.55 -1.23,-2.74 -0.88,-2.84 -0.54,-2.95 -0.17,-2.97 0.18,-2.99 0.53,-2.93 0.89,-2.86 1.22,-2.72 1.55,-2.57 1.84,-2.34 2.12,-2.12 2.12,-2.12 L 2.12,-2.12 Z"></path></g><g transform="translate(136.25794600199947 190.63975509745126) rotate(0 -13.5 14.5)" stroke="none" fill="#000000"><path d="M 1.02,0.82 Q 1.02,0.82 0.59,1.65 0.17,2.49 -1.33,4.31 -2.83,6.13 -4.23,7.71 -5.63,9.29 -7.14,10.73 -8.65,12.18 -9.98,13.48 -11.31,14.79 -12.45,15.91 -13.60,17.04 -14.95,18.38 -16.30,19.71 -17.46,20.84 -18.63,21.97 -19.89,23.12 -21.15,24.27 -22.16,25.15 -23.17,26.03 -24.43,27.74 -25.69,29.45 -25.84,29.60 -26.00,29.74 -26.19,29.83 -26.39,29.91 -26.60,29.93 -26.81,29.95 -27.02,29.91 -27.22,29.86 -27.40,29.75 -27.58,29.63 -27.72,29.47 -27.86,29.31 -27.93,29.11 -28.01,28.91 -28.02,28.70 -28.02,28.48 -27.96,28.28 -27.91,28.08 -27.78,27.90 -27.66,27.73 -27.49,27.60 -27.32,27.48 -27.12,27.41 -26.92,27.35 -26.70,27.35 -26.49,27.35 -26.29,27.42 -26.09,27.49 -25.92,27.62 -25.76,27.75 -25.64,27.93 -25.52,28.11 -25.47,28.31 -25.41,28.52 -25.43,28.73 -25.44,28.94 -25.52,29.14 -25.60,29.34 -25.74,29.50 -25.88,29.66 -26.07,29.76 -26.25,29.87 -26.46,29.91 -26.67,29.96 -26.88,29.93 -27.09,29.90 -27.28,29.81 -27.47,29.72 -27.62,29.57 -27.78,29.42 -27.87,29.24 -27.97,29.05 -28.00,28.84 -28.03,28.63 -28.00,28.42 -27.96,28.21 -27.86,28.02 -27.76,27.84 -27.76,27.84 -27.76,27.84 -26.39,26.00 -25.03,24.17 -24.15,23.16 -23.27,22.15 -22.12,20.89 -20.97,19.63 -19.83,18.47 -18.70,17.31 -17.35,15.95 -16.01,14.60 -14.86,13.47 -13.72,12.33 -12.37,11.01 -11.02,9.69 -9.61,8.35 -8.20,7.01 -6.78,5.41 -5.36,3.81 -3.92,2.09 -2.47,0.37 -1.74,-0.22 -1.02,-0.82 -0.91,-0.93 -0.79,-1.04 -0.66,-1.12 -0.52,-1.20 -0.37,-1.24 -0.22,-1.29 -0.06,-1.30 0.09,-1.31 0.24,-1.27 0.40,-1.24 0.54,-1.18 0.69,-1.11 0.81,-1.01 0.93,-0.91 1.03,-0.79 1.13,-0.66 1.19,-0.52 1.25,-0.37 1.28,-0.22 1.31,-0.06 1.30,0.09 1.28,0.24 1.24,0.40 1.19,0.55 1.10,0.68 1.02,0.82 1.02,0.82 L 1.02,0.82 Z"></path></g><g transform="translate(105.25794600199947 220.13975509745126) rotate(0 -0.5 20.25)" stroke="none" fill="#000000"><path d="M 1.29,-0.21 Q 1.29,-0.21 1.56,0.62 1.84,1.46 1.98,3.22 2.13,4.98 2.17,6.13 2.20,7.29 2.08,9.37 1.96,11.44 1.76,12.97 1.56,14.50 1.48,16.35 1.41,18.21 1.22,20.09 1.04,21.97 0.97,23.56 0.90,25.15 0.72,26.91 0.55,28.66 0.48,30.20 0.40,31.73 0.37,32.82 0.34,33.91 0.32,35.61 0.30,37.30 -1.25,37.73 -2.81,38.15 -2.77,37.94 -2.74,37.73 -2.64,37.54 -2.54,37.35 -2.39,37.21 -2.23,37.06 -2.04,36.97 -1.85,36.88 -1.64,36.86 -1.42,36.84 -1.22,36.88 -1.01,36.93 -0.83,37.04 -0.64,37.15 -0.51,37.31 -0.37,37.47 -0.29,37.67 -0.21,37.86 -0.20,38.08 -0.19,38.29 -0.25,38.49 -0.30,38.70 -0.42,38.87 -0.54,39.05 -0.71,39.18 -0.88,39.31 -1.08,39.38 -1.28,39.44 -1.50,39.44 -1.71,39.44 -1.91,39.37 -2.11,39.31 -2.28,39.18 -2.45,39.05 -2.57,38.87 -2.69,38.70 -2.74,38.49 -2.80,38.29 -2.79,38.08 -2.78,37.86 -2.70,37.67 -2.62,37.47 -2.48,37.31 -2.35,37.15 -2.16,37.04 -1.98,36.93 -1.77,36.88 -1.57,36.84 -1.35,36.86 -1.14,36.88 -0.95,36.97 -0.76,37.06 -0.60,37.21 -0.45,37.35 -0.35,37.54 -0.25,37.73 -0.22,37.94 -0.18,38.15 -0.18,38.15 -0.18,38.15 -1.73,37.71 -3.28,37.28 -3.27,35.54 -3.25,33.81 -3.22,32.69 -3.18,31.56 -3.10,29.93 -3.03,28.29 -2.85,26.64 -2.67,24.99 -2.59,23.30 -2.51,21.62 -2.33,19.83 -2.15,18.05 -2.05,16.04 -1.96,14.02 -1.75,12.52 -1.55,11.02 -1.39,9.17 -1.24,7.32 -1.22,6.19 -1.21,5.07 -1.23,3.52 -1.26,1.98 -1.28,1.09 -1.29,0.21 -1.30,0.05 -1.30,-0.10 -1.27,-0.25 -1.24,-0.41 -1.18,-0.55 -1.11,-0.69 -1.01,-0.82 -0.91,-0.94 -0.78,-1.03 -0.66,-1.13 -0.51,-1.19 -0.37,-1.25 -0.21,-1.28 -0.05,-1.31 0.09,-1.29 0.25,-1.28 0.40,-1.23 0.55,-1.18 0.69,-1.10 0.82,-1.02 0.93,-0.90 1.04,-0.79 1.12,-0.65 1.20,-0.51 1.25,-0.36 1.29,-0.21 1.29,-0.21 L 1.29,-0.21 Z"></path></g><g transform="translate(101.75794600199947 262.63975509745126) rotate(0 0.00004999999998744897 0.00004999999998744897)" stroke="none" fill="#000000"><path d="M 2.12,-2.12 Q 2.12,-2.12 2.40,-1.73 2.69,-1.33 2.83,-0.87 2.97,-0.40 2.96,0.08 2.95,0.56 2.78,1.02 2.61,1.47 2.31,1.85 2.00,2.23 1.59,2.49 1.18,2.76 0.71,2.87 0.24,2.99 -0.24,2.95 -0.72,2.91 -1.17,2.72 -1.61,2.53 -1.98,2.20 -2.34,1.88 -2.58,1.45 -2.82,1.03 -2.91,0.55 -3.00,0.08 -2.93,-0.40 -2.87,-0.88 -2.65,-1.31 -2.44,-1.75 -2.09,-2.09 -1.75,-2.44 -1.31,-2.65 -0.88,-2.87 -0.39,-2.93 0.08,-3.00 0.55,-2.91 1.03,-2.82 1.46,-2.58 1.88,-2.34 2.20,-1.97 2.53,-1.61 2.72,-1.17 2.91,-0.72 2.95,-0.23 2.99,0.24 2.87,0.71 2.76,1.18 2.49,1.59 2.23,2.00 1.85,2.31 1.47,2.61 1.02,2.78 0.56,2.95 0.07,2.96 -0.40,2.97 -0.87,2.83 -1.33,2.69 -1.73,2.40 -2.12,2.12 -2.12,2.12 -2.12,2.12 -2.34,1.83 -2.57,1.55 -2.72,1.22 -2.86,0.89 -2.93,0.53 -2.99,0.18 -2.97,-0.18 -2.95,-0.54 -2.84,-0.88 -2.74,-1.23 -2.55,-1.54 -2.36,-1.85 -2.10,-2.10 -1.85,-2.36 -1.54,-2.55 -1.23,-2.74 -0.88,-2.84 -0.54,-2.95 -0.17,-2.97 0.18,-2.99 0.53,-2.93 0.89,-2.86 1.22,-2.72 1.55,-2.57 1.84,-2.34 2.12,-2.12 2.12,-2.12 L 2.12,-2.12 Z"></path></g><g transform="translate(101.75794600199947 263.63975509745126) rotate(0 0.00004999999998744897 0.00004999999998744897)" stroke="none" fill="#000000"><path d="M 2.12,-2.12 Q 2.12,-2.12 2.40,-1.73 2.69,-1.33 2.83,-0.87 2.97,-0.40 2.96,0.08 2.95,0.56 2.78,1.02 2.61,1.47 2.31,1.85 2.00,2.23 1.59,2.49 1.18,2.76 0.71,2.87 0.24,2.99 -0.24,2.95 -0.72,2.91 -1.17,2.72 -1.61,2.53 -1.98,2.20 -2.34,1.88 -2.58,1.45 -2.82,1.03 -2.91,0.55 -3.00,0.08 -2.93,-0.40 -2.87,-0.88 -2.65,-1.31 -2.44,-1.75 -2.09,-2.09 -1.75,-2.44 -1.31,-2.65 -0.88,-2.87 -0.39,-2.93 0.08,-3.00 0.55,-2.91 1.03,-2.82 1.46,-2.58 1.88,-2.34 2.20,-1.97 2.53,-1.61 2.72,-1.17 2.91,-0.72 2.95,-0.23 2.99,0.24 2.87,0.71 2.76,1.18 2.49,1.59 2.23,2.00 1.85,2.31 1.47,2.61 1.02,2.78 0.56,2.95 0.07,2.96 -0.40,2.97 -0.87,2.83 -1.33,2.69 -1.73,2.40 -2.12,2.12 -2.12,2.12 -2.12,2.12 -2.34,1.83 -2.57,1.55 -2.72,1.22 -2.86,0.89 -2.93,0.53 -2.99,0.18 -2.97,-0.18 -2.95,-0.54 -2.84,-0.88 -2.74,-1.23 -2.55,-1.54 -2.36,-1.85 -2.10,-2.10 -1.85,-2.36 -1.54,-2.55 -1.23,-2.74 -0.88,-2.84 -0.54,-2.95 -0.17,-2.97 0.18,-2.99 0.53,-2.93 0.89,-2.86 1.22,-2.72 1.55,-2.57 1.84,-2.34 2.12,-2.12 2.12,-2.12 L 2.12,-2.12 Z"></path></g><g transform="translate(204.07608695652266 188.08695652173913) rotate(0 0.00005000000010113581 0.00004999999998744897)" stroke="none" fill="#000000"><path d="M 2.12,-2.12 Q 2.12,-2.12 2.40,-1.73 2.69,-1.33 2.83,-0.87 2.97,-0.40 2.96,0.08 2.95,0.56 2.78,1.02 2.61,1.47 2.31,1.85 2.00,2.23 1.59,2.49 1.18,2.76 0.71,2.87 0.24,2.99 -0.24,2.95 -0.72,2.91 -1.17,2.72 -1.61,2.53 -1.98,2.20 -2.34,1.88 -2.58,1.45 -2.82,1.03 -2.91,0.55 -3.00,0.08 -2.93,-0.40 -2.87,-0.88 -2.65,-1.31 -2.44,-1.75 -2.09,-2.09 -1.75,-2.44 -1.31,-2.65 -0.88,-2.87 -0.39,-2.93 0.08,-3.00 0.55,-2.91 1.03,-2.82 1.46,-2.58 1.88,-2.34 2.20,-1.97 2.53,-1.61 2.72,-1.17 2.91,-0.72 2.95,-0.23 2.99,0.24 2.87,0.71 2.76,1.18 2.49,1.59 2.23,2.00 1.85,2.31 1.47,2.61 1.02,2.78 0.56,2.95 0.07,2.96 -0.40,2.97 -0.87,2.83 -1.33,2.69 -1.73,2.40 -2.12,2.12 -2.12,2.12 -2.12,2.12 -2.34,1.83 -2.57,1.55 -2.72,1.22 -2.86,0.89 -2.93,0.53 -2.99,0.18 -2.97,-0.18 -2.95,-0.54 -2.84,-0.88 -2.74,-1.23 -2.55,-1.54 -2.36,-1.85 -2.10,-2.10 -1.85,-2.36 -1.54,-2.55 -1.23,-2.74 -0.88,-2.84 -0.54,-2.95 -0.17,-2.97 0.18,-2.99 0.53,-2.93 0.89,-2.86 1.22,-2.72 1.55,-2.57 1.84,-2.34 2.12,-2.12 2.12,-2.12 L 2.12,-2.12 Z"></path></g><g transform="translate(200.27173913043566 187.00000000000006) rotate(0 -45.6521739130435 37.22826086956522)" stroke="none" fill="#000000"><path d="M 6.20,1.06 Q 6.20,1.06 5.54,1.54 4.88,2.02 3.24,2.92 1.60,3.83 0.24,4.94 -1.11,6.05 -2.23,6.93 -3.34,7.81 -4.70,8.70 -6.06,9.60 -8.24,11.09 -10.42,12.58 -12.53,13.90 -14.64,15.22 -16.83,16.59 -19.03,17.95 -21.39,19.62 -23.76,21.29 -25.75,22.79 -27.74,24.28 -29.59,25.69 -31.45,27.10 -33.87,29.22 -36.30,31.34 -38.35,33.08 -40.41,34.82 -42.59,36.68 -44.78,38.54 -46.38,39.83 -47.98,41.12 -49.53,42.18 -51.08,43.24 -52.67,44.46 -54.25,45.67 -55.40,46.64 -56.55,47.62 -57.90,48.70 -59.25,49.78 -60.34,50.57 -61.43,51.37 -62.32,52.14 -63.22,52.90 -64.16,53.60 -65.11,54.30 -66.23,54.96 -67.35,55.62 -68.96,56.52 -70.57,57.42 -71.86,58.25 -73.15,59.09 -74.14,59.89 -75.13,60.69 -76.20,61.29 -77.27,61.89 -78.26,62.65 -79.26,63.42 -80.30,64.38 -81.33,65.35 -82.31,66.21 -83.28,67.07 -84.21,67.82 -85.13,68.56 -86.10,69.50 -87.06,70.44 -88.07,71.38 -89.09,72.31 -90.28,73.01 -91.47,73.71 -94.59,74.24 -97.72,74.77 -97.82,74.58 -97.91,74.40 -97.95,74.19 -97.98,73.98 -97.94,73.77 -97.91,73.56 -97.81,73.37 -97.70,73.18 -97.55,73.04 -97.39,72.89 -97.20,72.81 -97.01,72.72 -96.79,72.70 -96.58,72.68 -96.38,72.72 -96.17,72.77 -95.99,72.88 -95.81,72.99 -95.67,73.16 -95.53,73.32 -95.46,73.52 -95.38,73.72 -95.37,73.93 -95.36,74.14 -95.42,74.35 -95.48,74.55 -95.60,74.72 -95.72,74.90 -95.89,75.03 -96.06,75.15 -96.26,75.22 -96.46,75.29 -96.68,75.28 -96.89,75.28 -97.09,75.21 -97.29,75.14 -97.46,75.01 -97.63,74.88 -97.74,74.71 -97.86,74.53 -97.92,74.32 -97.97,74.12 -97.96,73.91 -97.95,73.69 -97.87,73.50 -97.78,73.30 -97.65,73.14 -97.51,72.98 -97.32,72.87 -97.14,72.76 -96.93,72.72 -96.72,72.68 -96.51,72.70 -96.30,72.73 -96.11,72.82 -95.92,72.91 -95.77,73.06 -95.61,73.20 -95.61,73.20 -95.61,73.20 -95.03,72.56 -94.45,71.91 -93.32,71.15 -92.19,70.39 -91.38,69.61 -90.57,68.84 -89.65,68.15 -88.73,67.46 -87.66,66.46 -86.58,65.45 -85.69,64.47 -84.79,63.49 -83.59,62.49 -82.38,61.49 -81.30,60.57 -80.23,59.65 -78.77,58.79 -77.31,57.94 -76.17,57.05 -75.03,56.16 -73.64,55.28 -72.26,54.39 -70.67,53.50 -69.08,52.61 -67.27,51.44 -65.46,50.27 -64.46,49.42 -63.47,48.58 -62.44,47.83 -61.41,47.08 -60.10,46.03 -58.79,44.98 -57.56,43.95 -56.34,42.92 -54.67,41.67 -53.00,40.42 -51.55,39.44 -50.10,38.47 -48.53,37.22 -46.96,35.98 -44.78,34.12 -42.60,32.26 -40.60,30.53 -38.61,28.80 -36.16,26.49 -33.72,24.19 -31.87,22.71 -30.03,21.24 -27.98,19.70 -25.93,18.17 -23.44,16.46 -20.96,14.76 -18.73,13.45 -16.50,12.14 -14.43,10.92 -12.35,9.70 -10.11,8.24 -7.87,6.78 -6.59,5.97 -5.32,5.17 -4.11,4.31 -2.91,3.45 -1.34,2.44 0.22,1.43 1.78,0.66 3.34,-0.10 4.00,-0.58 4.66,-1.06 4.80,-1.13 4.93,-1.21 5.09,-1.25 5.24,-1.29 5.40,-1.30 5.56,-1.30 5.71,-1.27 5.87,-1.23 6.01,-1.16 6.15,-1.09 6.27,-0.99 6.39,-0.89 6.48,-0.76 6.58,-0.63 6.64,-0.49 6.70,-0.34 6.72,-0.18 6.74,-0.03 6.73,0.12 6.71,0.28 6.66,0.43 6.61,0.58 6.52,0.71 6.43,0.84 6.32,0.95 6.20,1.06 6.20,1.06 L 6.20,1.06 Z"></path></g><g transform="translate(104.0760869565222 217.97826086956525) rotate(0 0.00004999999998744897 0.00004999999998744897)" stroke="none" fill="#000000"><path d="M 2.12,-2.12 Q 2.12,-2.12 2.40,-1.73 2.69,-1.33 2.83,-0.87 2.97,-0.40 2.96,0.08 2.95,0.56 2.78,1.02 2.61,1.47 2.31,1.85 2.00,2.23 1.59,2.49 1.18,2.76 0.71,2.87 0.24,2.99 -0.24,2.95 -0.72,2.91 -1.17,2.72 -1.61,2.53 -1.98,2.20 -2.34,1.88 -2.58,1.45 -2.82,1.03 -2.91,0.55 -3.00,0.08 -2.93,-0.40 -2.87,-0.88 -2.65,-1.31 -2.44,-1.75 -2.09,-2.09 -1.75,-2.44 -1.31,-2.65 -0.88,-2.87 -0.39,-2.93 0.08,-3.00 0.55,-2.91 1.03,-2.82 1.46,-2.58 1.88,-2.34 2.20,-1.97 2.53,-1.61 2.72,-1.17 2.91,-0.72 2.95,-0.23 2.99,0.24 2.87,0.71 2.76,1.18 2.49,1.59 2.23,2.00 1.85,2.31 1.47,2.61 1.02,2.78 0.56,2.95 0.07,2.96 -0.40,2.97 -0.87,2.83 -1.33,2.69 -1.73,2.40 -2.12,2.12 -2.12,2.12 -2.12,2.12 -2.34,1.83 -2.57,1.55 -2.72,1.22 -2.86,0.89 -2.93,0.53 -2.99,0.18 -2.97,-0.18 -2.95,-0.54 -2.84,-0.88 -2.74,-1.23 -2.55,-1.54 -2.36,-1.85 -2.10,-2.10 -1.85,-2.36 -1.54,-2.55 -1.23,-2.74 -0.88,-2.84 -0.54,-2.95 -0.17,-2.97 0.18,-2.99 0.53,-2.93 0.89,-2.86 1.22,-2.72 1.55,-2.57 1.84,-2.34 2.12,-2.12 2.12,-2.12 L 2.12,-2.12 Z"></path></g><g transform="translate(104.61956521739171 217.97826086956525) rotate(0 0.00004999999998744897 0.00004999999998744897)" stroke="none" fill="#000000"><path d="M 2.12,-2.12 Q 2.12,-2.12 2.40,-1.73 2.69,-1.33 2.83,-0.87 2.97,-0.40 2.96,0.08 2.95,0.56 2.78,1.02 2.61,1.47 2.31,1.85 2.00,2.23 1.59,2.49 1.18,2.76 0.71,2.87 0.24,2.99 -0.24,2.95 -0.72,2.91 -1.17,2.72 -1.61,2.53 -1.98,2.20 -2.34,1.88 -2.58,1.45 -2.82,1.03 -2.91,0.55 -3.00,0.08 -2.93,-0.40 -2.87,-0.88 -2.65,-1.31 -2.44,-1.75 -2.09,-2.09 -1.75,-2.44 -1.31,-2.65 -0.88,-2.87 -0.39,-2.93 0.08,-3.00 0.55,-2.91 1.03,-2.82 1.46,-2.58 1.88,-2.34 2.20,-1.97 2.53,-1.61 2.72,-1.17 2.91,-0.72 2.95,-0.23 2.99,0.24 2.87,0.71 2.76,1.18 2.49,1.59 2.23,2.00 1.85,2.31 1.47,2.61 1.02,2.78 0.56,2.95 0.07,2.96 -0.40,2.97 -0.87,2.83 -1.33,2.69 -1.73,2.40 -2.12,2.12 -2.12,2.12 -2.12,2.12 -2.34,1.83 -2.57,1.55 -2.72,1.22 -2.86,0.89 -2.93,0.53 -2.99,0.18 -2.97,-0.18 -2.95,-0.54 -2.84,-0.88 -2.74,-1.23 -2.55,-1.54 -2.36,-1.85 -2.10,-2.10 -1.85,-2.36 -1.54,-2.55 -1.23,-2.74 -0.88,-2.84 -0.54,-2.95 -0.17,-2.97 0.18,-2.99 0.53,-2.93 0.89,-2.86 1.22,-2.72 1.55,-2.57 1.84,-2.34 2.12,-2.12 2.12,-2.12 L 2.12,-2.12 Z"></path></g><g transform="translate(105.70652173913095 217.97826086956525) rotate(0 -44.29347826086973 -20.92391304347828)" stroke="none" fill="#000000"><path d="M -0.82,1.02 Q -0.82,1.02 -1.75,0.59 -2.69,0.16 -3.82,-0.70 -4.94,-1.58 -6.14,-2.37 -7.34,-3.17 -8.70,-4.17 -10.06,-5.17 -11.65,-6.17 -13.25,-7.16 -15.67,-8.69 -18.10,-10.23 -20.95,-11.79 -23.80,-13.34 -26.41,-14.63 -29.01,-15.91 -31.70,-17.24 -34.39,-18.57 -37.05,-19.75 -39.71,-20.92 -42.87,-22.20 -46.02,-23.48 -48.51,-24.68 -51.01,-25.89 -53.65,-27.37 -56.29,-28.84 -58.63,-30.07 -60.96,-31.31 -63.52,-32.61 -66.07,-33.91 -67.91,-34.76 -69.75,-35.61 -71.49,-36.10 -73.24,-36.58 -74.52,-36.97 -75.81,-37.35 -76.98,-37.49 -78.15,-37.62 -80.04,-37.89 -81.93,-38.17 -83.68,-38.68 -85.43,-39.20 -86.48,-39.54 -87.54,-39.88 -87.96,-40.19 -88.37,-40.49 -88.47,-40.30 -88.57,-40.11 -88.72,-39.96 -88.87,-39.82 -89.07,-39.72 -89.26,-39.63 -89.47,-39.61 -89.68,-39.58 -89.89,-39.62 -90.10,-39.67 -90.28,-39.78 -90.46,-39.88 -90.60,-40.04 -90.74,-40.20 -90.82,-40.40 -90.90,-40.60 -90.92,-40.81 -90.93,-41.02 -90.88,-41.23 -90.82,-41.43 -90.71,-41.61 -90.59,-41.79 -90.42,-41.92 -90.25,-42.05 -90.05,-42.12 -89.85,-42.19 -89.64,-42.19 -89.43,-42.19 -89.22,-42.13 -89.02,-42.06 -88.85,-41.93 -88.68,-41.81 -88.56,-41.63 -88.44,-41.46 -88.38,-41.25 -88.32,-41.05 -88.33,-40.84 -88.34,-40.63 -88.41,-40.43 -88.49,-40.23 -88.63,-40.07 -88.76,-39.90 -88.94,-39.79 -89.12,-39.68 -89.33,-39.63 -89.54,-39.58 -89.75,-39.60 -89.96,-39.62 -90.16,-39.71 -90.35,-39.80 -90.50,-39.94 -90.66,-40.09 -90.76,-40.27 -90.86,-40.46 -90.90,-40.67 -90.94,-40.88 -90.91,-41.09 -90.87,-41.30 -90.87,-41.30 -90.87,-41.30 -88.10,-42.21 -85.33,-43.13 -84.13,-42.65 -82.94,-42.18 -81.40,-41.78 -79.87,-41.38 -78.79,-41.31 -77.71,-41.24 -76.24,-41.05 -74.77,-40.86 -73.51,-40.49 -72.25,-40.12 -70.22,-39.55 -68.19,-38.99 -66.29,-38.10 -64.38,-37.22 -61.81,-35.91 -59.24,-34.60 -56.86,-33.36 -54.48,-32.12 -51.92,-30.72 -49.36,-29.33 -46.96,-28.19 -44.57,-27.05 -41.36,-25.76 -38.15,-24.46 -35.41,-23.25 -32.67,-22.04 -29.99,-20.70 -27.31,-19.37 -24.63,-18.05 -21.95,-16.72 -18.99,-15.10 -16.04,-13.48 -13.62,-11.94 -11.20,-10.40 -9.49,-9.30 -7.78,-8.21 -6.51,-7.24 -5.24,-6.27 -3.94,-5.37 -2.63,-4.47 -1.53,-3.57 -0.43,-2.66 0.19,-1.84 0.82,-1.02 0.93,-0.91 1.04,-0.79 1.12,-0.66 1.20,-0.52 1.24,-0.37 1.29,-0.22 1.30,-0.06 1.31,0.09 1.27,0.24 1.24,0.40 1.18,0.54 1.11,0.69 1.01,0.81 0.91,0.93 0.79,1.03 0.66,1.13 0.52,1.19 0.37,1.25 0.22,1.28 0.06,1.31 -0.09,1.30 -0.24,1.28 -0.40,1.24 -0.55,1.19 -0.68,1.10 -0.82,1.02 -0.82,1.02 L -0.82,1.02 Z"></path></g><g transform="translate(134.6739130434787 190.9673913043478) rotate(0 -44.29347826086973 -20.92391304347828)" stroke="none" fill="#000000"><path d="M -0.82,1.02 Q -0.82,1.02 -1.75,0.59 -2.69,0.16 -3.82,-0.70 -4.94,-1.58 -6.14,-2.37 -7.34,-3.17 -8.70,-4.17 -10.06,-5.17 -11.65,-6.17 -13.25,-7.16 -15.67,-8.69 -18.10,-10.23 -20.95,-11.79 -23.80,-13.34 -26.41,-14.63 -29.01,-15.91 -31.70,-17.24 -34.39,-18.57 -37.05,-19.75 -39.71,-20.92 -42.87,-22.20 -46.02,-23.48 -48.51,-24.68 -51.01,-25.89 -53.65,-27.37 -56.29,-28.84 -58.63,-30.07 -60.96,-31.31 -63.52,-32.61 -66.07,-33.91 -67.91,-34.76 -69.75,-35.61 -71.49,-36.10 -73.24,-36.58 -74.52,-36.97 -75.81,-37.35 -76.98,-37.49 -78.15,-37.62 -80.04,-37.89 -81.93,-38.17 -83.68,-38.68 -85.43,-39.20 -86.48,-39.54 -87.54,-39.88 -87.96,-40.19 -88.37,-40.49 -88.47,-40.30 -88.57,-40.11 -88.72,-39.96 -88.87,-39.82 -89.07,-39.72 -89.26,-39.63 -89.47,-39.61 -89.68,-39.58 -89.89,-39.62 -90.10,-39.67 -90.28,-39.78 -90.46,-39.88 -90.60,-40.04 -90.74,-40.20 -90.82,-40.40 -90.90,-40.60 -90.92,-40.81 -90.93,-41.02 -90.88,-41.23 -90.82,-41.43 -90.71,-41.61 -90.59,-41.79 -90.42,-41.92 -90.25,-42.05 -90.05,-42.12 -89.85,-42.19 -89.64,-42.19 -89.43,-42.19 -89.22,-42.13 -89.02,-42.06 -88.85,-41.93 -88.68,-41.81 -88.56,-41.63 -88.44,-41.46 -88.38,-41.25 -88.32,-41.05 -88.33,-40.84 -88.34,-40.63 -88.41,-40.43 -88.49,-40.23 -88.63,-40.07 -88.76,-39.90 -88.94,-39.79 -89.12,-39.68 -89.33,-39.63 -89.54,-39.58 -89.75,-39.60 -89.96,-39.62 -90.16,-39.71 -90.35,-39.80 -90.50,-39.94 -90.66,-40.09 -90.76,-40.27 -90.86,-40.46 -90.90,-40.67 -90.94,-40.88 -90.91,-41.09 -90.87,-41.30 -90.87,-41.30 -90.87,-41.30 -88.10,-42.21 -85.33,-43.13 -84.13,-42.65 -82.94,-42.18 -81.40,-41.78 -79.87,-41.38 -78.79,-41.31 -77.71,-41.24 -76.24,-41.05 -74.77,-40.86 -73.51,-40.49 -72.25,-40.12 -70.22,-39.55 -68.19,-38.99 -66.29,-38.10 -64.38,-37.22 -61.81,-35.91 -59.24,-34.60 -56.86,-33.36 -54.48,-32.12 -51.92,-30.72 -49.36,-29.33 -46.96,-28.19 -44.57,-27.05 -41.36,-25.76 -38.15,-24.46 -35.41,-23.25 -32.67,-22.04 -29.99,-20.70 -27.31,-19.37 -24.63,-18.05 -21.95,-16.72 -18.99,-15.10 -16.04,-13.48 -13.62,-11.94 -11.20,-10.40 -9.49,-9.30 -7.78,-8.21 -6.51,-7.24 -5.24,-6.27 -3.94,-5.37 -2.63,-4.47 -1.53,-3.57 -0.43,-2.66 0.19,-1.84 0.82,-1.02 0.93,-0.91 1.04,-0.79 1.12,-0.66 1.20,-0.52 1.24,-0.37 1.29,-0.22 1.30,-0.06 1.31,0.09 1.27,0.24 1.24,0.40 1.18,0.54 1.11,0.69 1.01,0.81 0.91,0.93 0.79,1.03 0.66,1.13 0.52,1.19 0.37,1.25 0.22,1.28 0.06,1.31 -0.09,1.30 -0.24,1.28 -0.40,1.24 -0.55,1.19 -0.68,1.10 -0.82,1.02 -0.82,1.02 L -0.82,1.02 Z"></path></g><g transform="translate(165.65217391304418 123.68478260869571) rotate(0 -44.29347826086973 -20.92391304347828)" stroke="none" fill="#000000"><path d="M -0.82,1.02 Q -0.82,1.02 -1.75,0.59 -2.69,0.16 -3.82,-0.70 -4.94,-1.58 -6.14,-2.37 -7.34,-3.17 -8.70,-4.17 -10.06,-5.17 -11.65,-6.17 -13.25,-7.16 -15.67,-8.69 -18.10,-10.23 -20.95,-11.79 -23.80,-13.34 -26.41,-14.63 -29.01,-15.91 -31.70,-17.24 -34.39,-18.57 -37.05,-19.75 -39.71,-20.92 -42.87,-22.20 -46.02,-23.48 -48.51,-24.68 -51.01,-25.89 -53.65,-27.37 -56.29,-28.84 -58.63,-30.07 -60.96,-31.31 -63.52,-32.61 -66.07,-33.91 -67.91,-34.76 -69.75,-35.61 -71.49,-36.10 -73.24,-36.58 -74.52,-36.97 -75.81,-37.35 -76.98,-37.49 -78.15,-37.62 -80.04,-37.89 -81.93,-38.17 -83.68,-38.68 -85.43,-39.20 -86.48,-39.54 -87.54,-39.88 -87.96,-40.19 -88.37,-40.49 -88.47,-40.30 -88.57,-40.11 -88.72,-39.96 -88.87,-39.82 -89.07,-39.72 -89.26,-39.63 -89.47,-39.61 -89.68,-39.58 -89.89,-39.62 -90.10,-39.67 -90.28,-39.78 -90.46,-39.88 -90.60,-40.04 -90.74,-40.20 -90.82,-40.40 -90.90,-40.60 -90.92,-40.81 -90.93,-41.02 -90.88,-41.23 -90.82,-41.43 -90.71,-41.61 -90.59,-41.79 -90.42,-41.92 -90.25,-42.05 -90.05,-42.12 -89.85,-42.19 -89.64,-42.19 -89.43,-42.19 -89.22,-42.13 -89.02,-42.06 -88.85,-41.93 -88.68,-41.81 -88.56,-41.63 -88.44,-41.46 -88.38,-41.25 -88.32,-41.05 -88.33,-40.84 -88.34,-40.63 -88.41,-40.43 -88.49,-40.23 -88.63,-40.07 -88.76,-39.90 -88.94,-39.79 -89.12,-39.68 -89.33,-39.63 -89.54,-39.58 -89.75,-39.60 -89.96,-39.62 -90.16,-39.71 -90.35,-39.80 -90.50,-39.94 -90.66,-40.09 -90.76,-40.27 -90.86,-40.46 -90.90,-40.67 -90.94,-40.88 -90.91,-41.09 -90.87,-41.30 -90.87,-41.30 -90.87,-41.30 -88.10,-42.21 -85.33,-43.13 -84.13,-42.65 -82.94,-42.18 -81.40,-41.78 -79.87,-41.38 -78.79,-41.31 -77.71,-41.24 -76.24,-41.05 -74.77,-40.86 -73.51,-40.49 -72.25,-40.12 -70.22,-39.55 -68.19,-38.99 -66.29,-38.10 -64.38,-37.22 -61.81,-35.91 -59.24,-34.60 -56.86,-33.36 -54.48,-32.12 -51.92,-30.72 -49.36,-29.33 -46.96,-28.19 -44.57,-27.05 -41.36,-25.76 -38.15,-24.46 -35.41,-23.25 -32.67,-22.04 -29.99,-20.70 -27.31,-19.37 -24.63,-18.05 -21.95,-16.72 -18.99,-15.10 -16.04,-13.48 -13.62,-11.94 -11.20,-10.40 -9.49,-9.30 -7.78,-8.21 -6.51,-7.24 -5.24,-6.27 -3.94,-5.37 -2.63,-4.47 -1.53,-3.57 -0.43,-2.66 0.19,-1.84 0.82,-1.02 0.93,-0.91 1.04,-0.79 1.12,-0.66 1.20,-0.52 1.24,-0.37 1.29,-0.22 1.30,-0.06 1.31,0.09 1.27,0.24 1.24,0.40 1.18,0.54 1.11,0.69 1.01,0.81 0.91,0.93 0.79,1.03 0.66,1.13 0.52,1.19 0.37,1.25 0.22,1.28 0.06,1.31 -0.09,1.30 -0.24,1.28 -0.40,1.24 -0.55,1.19 -0.68,1.10 -0.82,1.02 -0.82,1.02 L -0.82,1.02 Z"></path></g><g transform="translate(136.73913043478296 150.64130434782612) rotate(0 -44.29347826086973 -20.92391304347828)" stroke="none" fill="#000000"><path d="M -0.82,1.02 Q -0.82,1.02 -1.75,0.59 -2.69,0.16 -3.82,-0.70 -4.94,-1.58 -6.14,-2.37 -7.34,-3.17 -8.70,-4.17 -10.06,-5.17 -11.65,-6.17 -13.25,-7.16 -15.67,-8.69 -18.10,-10.23 -20.95,-11.79 -23.80,-13.34 -26.41,-14.63 -29.01,-15.91 -31.70,-17.24 -34.39,-18.57 -37.05,-19.75 -39.71,-20.92 -42.87,-22.20 -46.02,-23.48 -48.51,-24.68 -51.01,-25.89 -53.65,-27.37 -56.29,-28.84 -58.63,-30.07 -60.96,-31.31 -63.52,-32.61 -66.07,-33.91 -67.91,-34.76 -69.75,-35.61 -71.49,-36.10 -73.24,-36.58 -74.52,-36.97 -75.81,-37.35 -76.98,-37.49 -78.15,-37.62 -80.04,-37.89 -81.93,-38.17 -83.68,-38.68 -85.43,-39.20 -86.48,-39.54 -87.54,-39.88 -87.96,-40.19 -88.37,-40.49 -88.47,-40.30 -88.57,-40.11 -88.72,-39.96 -88.87,-39.82 -89.07,-39.72 -89.26,-39.63 -89.47,-39.61 -89.68,-39.58 -89.89,-39.62 -90.10,-39.67 -90.28,-39.78 -90.46,-39.88 -90.60,-40.04 -90.74,-40.20 -90.82,-40.40 -90.90,-40.60 -90.92,-40.81 -90.93,-41.02 -90.88,-41.23 -90.82,-41.43 -90.71,-41.61 -90.59,-41.79 -90.42,-41.92 -90.25,-42.05 -90.05,-42.12 -89.85,-42.19 -89.64,-42.19 -89.43,-42.19 -89.22,-42.13 -89.02,-42.06 -88.85,-41.93 -88.68,-41.81 -88.56,-41.63 -88.44,-41.46 -88.38,-41.25 -88.32,-41.05 -88.33,-40.84 -88.34,-40.63 -88.41,-40.43 -88.49,-40.23 -88.63,-40.07 -88.76,-39.90 -88.94,-39.79 -89.12,-39.68 -89.33,-39.63 -89.54,-39.58 -89.75,-39.60 -89.96,-39.62 -90.16,-39.71 -90.35,-39.80 -90.50,-39.94 -90.66,-40.09 -90.76,-40.27 -90.86,-40.46 -90.90,-40.67 -90.94,-40.88 -90.91,-41.09 -90.87,-41.30 -90.87,-41.30 -90.87,-41.30 -88.10,-42.21 -85.33,-43.13 -84.13,-42.65 -82.94,-42.18 -81.40,-41.78 -79.87,-41.38 -78.79,-41.31 -77.71,-41.24 -76.24,-41.05 -74.77,-40.86 -73.51,-40.49 -72.25,-40.12 -70.22,-39.55 -68.19,-38.99 -66.29,-38.10 -64.38,-37.22 -61.81,-35.91 -59.24,-34.60 -56.86,-33.36 -54.48,-32.12 -51.92,-30.72 -49.36,-29.33 -46.96,-28.19 -44.57,-27.05 -41.36,-25.76 -38.15,-24.46 -35.41,-23.25 -32.67,-22.04 -29.99,-20.70 -27.31,-19.37 -24.63,-18.05 -21.95,-16.72 -18.99,-15.10 -16.04,-13.48 -13.62,-11.94 -11.20,-10.40 -9.49,-9.30 -7.78,-8.21 -6.51,-7.24 -5.24,-6.27 -3.94,-5.37 -2.63,-4.47 -1.53,-3.57 -0.43,-2.66 0.19,-1.84 0.82,-1.02 0.93,-0.91 1.04,-0.79 1.12,-0.66 1.20,-0.52 1.24,-0.37 1.29,-0.22 1.30,-0.06 1.31,0.09 1.27,0.24 1.24,0.40 1.18,0.54 1.11,0.69 1.01,0.81 0.91,0.93 0.79,1.03 0.66,1.13 0.52,1.19 0.37,1.25 0.22,1.28 0.06,1.31 -0.09,1.30 -0.24,1.28 -0.40,1.24 -0.55,1.19 -0.68,1.10 -0.82,1.02 -0.82,1.02 L -0.82,1.02 Z"></path></g><g transform="translate(198.15217391304373 52.271739130434796) rotate(0 -44.29347826086973 -20.92391304347828)" stroke="none" fill="#000000"><path d="M -0.82,1.02 Q -0.82,1.02 -1.75,0.59 -2.69,0.16 -3.82,-0.70 -4.94,-1.58 -6.14,-2.37 -7.34,-3.17 -8.70,-4.17 -10.06,-5.17 -11.65,-6.17 -13.25,-7.16 -15.67,-8.69 -18.10,-10.23 -20.95,-11.79 -23.80,-13.34 -26.41,-14.63 -29.01,-15.91 -31.70,-17.24 -34.39,-18.57 -37.05,-19.75 -39.71,-20.92 -42.87,-22.20 -46.02,-23.48 -48.51,-24.68 -51.01,-25.89 -53.65,-27.37 -56.29,-28.84 -58.63,-30.07 -60.96,-31.31 -63.52,-32.61 -66.07,-33.91 -67.91,-34.76 -69.75,-35.61 -71.49,-36.10 -73.24,-36.58 -74.52,-36.97 -75.81,-37.35 -76.98,-37.49 -78.15,-37.62 -80.04,-37.89 -81.93,-38.17 -83.68,-38.68 -85.43,-39.20 -86.48,-39.54 -87.54,-39.88 -87.96,-40.19 -88.37,-40.49 -88.47,-40.30 -88.57,-40.11 -88.72,-39.96 -88.87,-39.82 -89.07,-39.72 -89.26,-39.63 -89.47,-39.61 -89.68,-39.58 -89.89,-39.62 -90.10,-39.67 -90.28,-39.78 -90.46,-39.88 -90.60,-40.04 -90.74,-40.20 -90.82,-40.40 -90.90,-40.60 -90.92,-40.81 -90.93,-41.02 -90.88,-41.23 -90.82,-41.43 -90.71,-41.61 -90.59,-41.79 -90.42,-41.92 -90.25,-42.05 -90.05,-42.12 -89.85,-42.19 -89.64,-42.19 -89.43,-42.19 -89.22,-42.13 -89.02,-42.06 -88.85,-41.93 -88.68,-41.81 -88.56,-41.63 -88.44,-41.46 -88.38,-41.25 -88.32,-41.05 -88.33,-40.84 -88.34,-40.63 -88.41,-40.43 -88.49,-40.23 -88.63,-40.07 -88.76,-39.90 -88.94,-39.79 -89.12,-39.68 -89.33,-39.63 -89.54,-39.58 -89.75,-39.60 -89.96,-39.62 -90.16,-39.71 -90.35,-39.80 -90.50,-39.94 -90.66,-40.09 -90.76,-40.27 -90.86,-40.46 -90.90,-40.67 -90.94,-40.88 -90.91,-41.09 -90.87,-41.30 -90.87,-41.30 -90.87,-41.30 -88.10,-42.21 -85.33,-43.13 -84.13,-42.65 -82.94,-42.18 -81.40,-41.78 -79.87,-41.38 -78.79,-41.31 -77.71,-41.24 -76.24,-41.05 -74.77,-40.86 -73.51,-40.49 -72.25,-40.12 -70.22,-39.55 -68.19,-38.99 -66.29,-38.10 -64.38,-37.22 -61.81,-35.91 -59.24,-34.60 -56.86,-33.36 -54.48,-32.12 -51.92,-30.72 -49.36,-29.33 -46.96,-28.19 -44.57,-27.05 -41.36,-25.76 -38.15,-24.46 -35.41,-23.25 -32.67,-22.04 -29.99,-20.70 -27.31,-19.37 -24.63,-18.05 -21.95,-16.72 -18.99,-15.10 -16.04,-13.48 -13.62,-11.94 -11.20,-10.40 -9.49,-9.30 -7.78,-8.21 -6.51,-7.24 -5.24,-6.27 -3.94,-5.37 -2.63,-4.47 -1.53,-3.57 -0.43,-2.66 0.19,-1.84 0.82,-1.02 0.93,-0.91 1.04,-0.79 1.12,-0.66 1.20,-0.52 1.24,-0.37 1.29,-0.22 1.30,-0.06 1.31,0.09 1.27,0.24 1.24,0.40 1.18,0.54 1.11,0.69 1.01,0.81 0.91,0.93 0.79,1.03 0.66,1.13 0.52,1.19 0.37,1.25 0.22,1.28 0.06,1.31 -0.09,1.30 -0.24,1.28 -0.40,1.24 -0.55,1.19 -0.68,1.10 -0.82,1.02 -0.82,1.02 L -0.82,1.02 Z"></path></g><g transform="translate(168.4782608695648 82.05434782608697) rotate(0 -44.29347826086973 -20.92391304347828)" stroke="none" fill="#000000"><path d="M -0.82,1.02 Q -0.82,1.02 -1.75,0.59 -2.69,0.16 -3.82,-0.70 -4.94,-1.58 -6.14,-2.37 -7.34,-3.17 -8.70,-4.17 -10.06,-5.17 -11.65,-6.17 -13.25,-7.16 -15.67,-8.69 -18.10,-10.23 -20.95,-11.79 -23.80,-13.34 -26.41,-14.63 -29.01,-15.91 -31.70,-17.24 -34.39,-18.57 -37.05,-19.75 -39.71,-20.92 -42.87,-22.20 -46.02,-23.48 -48.51,-24.68 -51.01,-25.89 -53.65,-27.37 -56.29,-28.84 -58.63,-30.07 -60.96,-31.31 -63.52,-32.61 -66.07,-33.91 -67.91,-34.76 -69.75,-35.61 -71.49,-36.10 -73.24,-36.58 -74.52,-36.97 -75.81,-37.35 -76.98,-37.49 -78.15,-37.62 -80.04,-37.89 -81.93,-38.17 -83.68,-38.68 -85.43,-39.20 -86.48,-39.54 -87.54,-39.88 -87.96,-40.19 -88.37,-40.49 -88.47,-40.30 -88.57,-40.11 -88.72,-39.96 -88.87,-39.82 -89.07,-39.72 -89.26,-39.63 -89.47,-39.61 -89.68,-39.58 -89.89,-39.62 -90.10,-39.67 -90.28,-39.78 -90.46,-39.88 -90.60,-40.04 -90.74,-40.20 -90.82,-40.40 -90.90,-40.60 -90.92,-40.81 -90.93,-41.02 -90.88,-41.23 -90.82,-41.43 -90.71,-41.61 -90.59,-41.79 -90.42,-41.92 -90.25,-42.05 -90.05,-42.12 -89.85,-42.19 -89.64,-42.19 -89.43,-42.19 -89.22,-42.13 -89.02,-42.06 -88.85,-41.93 -88.68,-41.81 -88.56,-41.63 -88.44,-41.46 -88.38,-41.25 -88.32,-41.05 -88.33,-40.84 -88.34,-40.63 -88.41,-40.43 -88.49,-40.23 -88.63,-40.07 -88.76,-39.90 -88.94,-39.79 -89.12,-39.68 -89.33,-39.63 -89.54,-39.58 -89.75,-39.60 -89.96,-39.62 -90.16,-39.71 -90.35,-39.80 -90.50,-39.94 -90.66,-40.09 -90.76,-40.27 -90.86,-40.46 -90.90,-40.67 -90.94,-40.88 -90.91,-41.09 -90.87,-41.30 -90.87,-41.30 -90.87,-41.30 -88.10,-42.21 -85.33,-43.13 -84.13,-42.65 -82.94,-42.18 -81.40,-41.78 -79.87,-41.38 -78.79,-41.31 -77.71,-41.24 -76.24,-41.05 -74.77,-40.86 -73.51,-40.49 -72.25,-40.12 -70.22,-39.55 -68.19,-38.99 -66.29,-38.10 -64.38,-37.22 -61.81,-35.91 -59.24,-34.60 -56.86,-33.36 -54.48,-32.12 -51.92,-30.72 -49.36,-29.33 -46.96,-28.19 -44.57,-27.05 -41.36,-25.76 -38.15,-24.46 -35.41,-23.25 -32.67,-22.04 -29.99,-20.70 -27.31,-19.37 -24.63,-18.05 -21.95,-16.72 -18.99,-15.10 -16.04,-13.48 -13.62,-11.94 -11.20,-10.40 -9.49,-9.30 -7.78,-8.21 -6.51,-7.24 -5.24,-6.27 -3.94,-5.37 -2.63,-4.47 -1.53,-3.57 -0.43,-2.66 0.19,-1.84 0.82,-1.02 0.93,-0.91 1.04,-0.79 1.12,-0.66 1.20,-0.52 1.24,-0.37 1.29,-0.22 1.30,-0.06 1.31,0.09 1.27,0.24 1.24,0.40 1.18,0.54 1.11,0.69 1.01,0.81 0.91,0.93 0.79,1.03 0.66,1.13 0.52,1.19 0.37,1.25 0.22,1.28 0.06,1.31 -0.09,1.30 -0.24,1.28 -0.40,1.24 -0.55,1.19 -0.68,1.10 -0.82,1.02 -0.82,1.02 L -0.82,1.02 Z"></path></g><g transform="translate(107.03260869565293 10) rotate(0 -13.5 14.499999999999993)" stroke="none" fill="#000000"><path d="M 1.02,0.82 Q 1.02,0.82 0.59,1.65 0.17,2.49 -1.33,4.31 -2.83,6.13 -4.23,7.71 -5.63,9.29 -7.14,10.73 -8.65,12.18 -9.98,13.48 -11.31,14.79 -12.45,15.91 -13.60,17.04 -14.95,18.38 -16.30,19.71 -17.46,20.84 -18.63,21.97 -19.89,23.12 -21.15,24.27 -22.16,25.15 -23.17,26.03 -24.43,27.74 -25.69,29.45 -25.84,29.60 -26.00,29.74 -26.19,29.83 -26.39,29.91 -26.60,29.93 -26.81,29.95 -27.02,29.91 -27.22,29.86 -27.40,29.75 -27.58,29.63 -27.72,29.47 -27.86,29.31 -27.93,29.11 -28.01,28.91 -28.02,28.70 -28.02,28.48 -27.96,28.28 -27.91,28.08 -27.78,27.90 -27.66,27.73 -27.49,27.60 -27.32,27.48 -27.12,27.41 -26.92,27.35 -26.70,27.35 -26.49,27.35 -26.29,27.42 -26.09,27.49 -25.92,27.62 -25.76,27.75 -25.64,27.93 -25.52,28.11 -25.47,28.31 -25.41,28.52 -25.43,28.73 -25.44,28.94 -25.52,29.14 -25.60,29.34 -25.74,29.50 -25.88,29.66 -26.07,29.76 -26.25,29.87 -26.46,29.91 -26.67,29.96 -26.88,29.93 -27.09,29.90 -27.28,29.81 -27.47,29.72 -27.62,29.57 -27.78,29.42 -27.87,29.24 -27.97,29.05 -28.00,28.84 -28.03,28.63 -28.00,28.42 -27.96,28.21 -27.86,28.02 -27.76,27.84 -27.76,27.84 -27.76,27.84 -26.39,26.00 -25.03,24.17 -24.15,23.16 -23.27,22.15 -22.12,20.89 -20.97,19.63 -19.83,18.47 -18.70,17.31 -17.35,15.95 -16.01,14.60 -14.86,13.47 -13.72,12.33 -12.37,11.01 -11.02,9.69 -9.61,8.35 -8.20,7.01 -6.78,5.41 -5.36,3.81 -3.92,2.09 -2.47,0.37 -1.74,-0.22 -1.02,-0.82 -0.91,-0.93 -0.79,-1.04 -0.66,-1.12 -0.52,-1.20 -0.37,-1.24 -0.22,-1.29 -0.06,-1.30 0.09,-1.31 0.24,-1.27 0.40,-1.24 0.54,-1.18 0.69,-1.11 0.81,-1.01 0.93,-0.91 1.03,-0.79 1.13,-0.66 1.19,-0.52 1.25,-0.37 1.28,-0.22 1.31,-0.06 1.30,0.09 1.28,0.24 1.24,0.40 1.19,0.55 1.10,0.68 1.02,0.82 1.02,0.82 L 1.02,0.82 Z"></path></g><g transform="translate(76.16304347826167 81.63043478260869) rotate(0 -13.5 14.5)" stroke="none" fill="#000000"><path d="M 1.02,0.82 Q 1.02,0.82 0.59,1.65 0.17,2.49 -1.33,4.31 -2.83,6.13 -4.23,7.71 -5.63,9.29 -7.14,10.73 -8.65,12.18 -9.98,13.48 -11.31,14.79 -12.45,15.91 -13.60,17.04 -14.95,18.38 -16.30,19.71 -17.46,20.84 -18.63,21.97 -19.89,23.12 -21.15,24.27 -22.16,25.15 -23.17,26.03 -24.43,27.74 -25.69,29.45 -25.84,29.60 -26.00,29.74 -26.19,29.83 -26.39,29.91 -26.60,29.93 -26.81,29.95 -27.02,29.91 -27.22,29.86 -27.40,29.75 -27.58,29.63 -27.72,29.47 -27.86,29.31 -27.93,29.11 -28.01,28.91 -28.02,28.70 -28.02,28.48 -27.96,28.28 -27.91,28.08 -27.78,27.90 -27.66,27.73 -27.49,27.60 -27.32,27.48 -27.12,27.41 -26.92,27.35 -26.70,27.35 -26.49,27.35 -26.29,27.42 -26.09,27.49 -25.92,27.62 -25.76,27.75 -25.64,27.93 -25.52,28.11 -25.47,28.31 -25.41,28.52 -25.43,28.73 -25.44,28.94 -25.52,29.14 -25.60,29.34 -25.74,29.50 -25.88,29.66 -26.07,29.76 -26.25,29.87 -26.46,29.91 -26.67,29.96 -26.88,29.93 -27.09,29.90 -27.28,29.81 -27.47,29.72 -27.62,29.57 -27.78,29.42 -27.87,29.24 -27.97,29.05 -28.00,28.84 -28.03,28.63 -28.00,28.42 -27.96,28.21 -27.86,28.02 -27.76,27.84 -27.76,27.84 -27.76,27.84 -26.39,26.00 -25.03,24.17 -24.15,23.16 -23.27,22.15 -22.12,20.89 -20.97,19.63 -19.83,18.47 -18.70,17.31 -17.35,15.95 -16.01,14.60 -14.86,13.47 -13.72,12.33 -12.37,11.01 -11.02,9.69 -9.61,8.35 -8.20,7.01 -6.78,5.41 -5.36,3.81 -3.92,2.09 -2.47,0.37 -1.74,-0.22 -1.02,-0.82 -0.91,-0.93 -0.79,-1.04 -0.66,-1.12 -0.52,-1.20 -0.37,-1.24 -0.22,-1.29 -0.06,-1.30 0.09,-1.31 0.24,-1.27 0.40,-1.24 0.54,-1.18 0.69,-1.11 0.81,-1.01 0.93,-0.91 1.03,-0.79 1.13,-0.66 1.19,-0.52 1.25,-0.37 1.28,-0.22 1.31,-0.06 1.30,0.09 1.28,0.24 1.24,0.40 1.19,0.55 1.10,0.68 1.02,0.82 1.02,0.82 L 1.02,0.82 Z"></path></g><g transform="translate(45.51086956521749 147.93478260869566) rotate(0 -13.5 14.499999999999986)" stroke="none" fill="#000000"><path d="M 1.02,0.82 Q 1.02,0.82 0.59,1.65 0.17,2.49 -1.33,4.31 -2.83,6.13 -4.23,7.71 -5.63,9.29 -7.14,10.73 -8.65,12.18 -9.98,13.48 -11.31,14.79 -12.45,15.91 -13.60,17.04 -14.95,18.38 -16.30,19.71 -17.46,20.84 -18.63,21.97 -19.89,23.12 -21.15,24.27 -22.16,25.15 -23.17,26.03 -24.43,27.74 -25.69,29.45 -25.84,29.60 -26.00,29.74 -26.19,29.83 -26.39,29.91 -26.60,29.93 -26.81,29.95 -27.02,29.91 -27.22,29.86 -27.40,29.75 -27.58,29.63 -27.72,29.47 -27.86,29.31 -27.93,29.11 -28.01,28.91 -28.02,28.70 -28.02,28.48 -27.96,28.28 -27.91,28.08 -27.78,27.90 -27.66,27.73 -27.49,27.60 -27.32,27.48 -27.12,27.41 -26.92,27.35 -26.70,27.35 -26.49,27.35 -26.29,27.42 -26.09,27.49 -25.92,27.62 -25.76,27.75 -25.64,27.93 -25.52,28.11 -25.47,28.31 -25.41,28.52 -25.43,28.73 -25.44,28.94 -25.52,29.14 -25.60,29.34 -25.74,29.50 -25.88,29.66 -26.07,29.76 -26.25,29.87 -26.46,29.91 -26.67,29.96 -26.88,29.93 -27.09,29.90 -27.28,29.81 -27.47,29.72 -27.62,29.57 -27.78,29.42 -27.87,29.24 -27.97,29.05 -28.00,28.84 -28.03,28.63 -28.00,28.42 -27.96,28.21 -27.86,28.02 -27.76,27.84 -27.76,27.84 -27.76,27.84 -26.39,26.00 -25.03,24.17 -24.15,23.16 -23.27,22.15 -22.12,20.89 -20.97,19.63 -19.83,18.47 -18.70,17.31 -17.35,15.95 -16.01,14.60 -14.86,13.47 -13.72,12.33 -12.37,11.01 -11.02,9.69 -9.61,8.35 -8.20,7.01 -6.78,5.41 -5.36,3.81 -3.92,2.09 -2.47,0.37 -1.74,-0.22 -1.02,-0.82 -0.91,-0.93 -0.79,-1.04 -0.66,-1.12 -0.52,-1.20 -0.37,-1.24 -0.22,-1.29 -0.06,-1.30 0.09,-1.31 0.24,-1.27 0.40,-1.24 0.54,-1.18 0.69,-1.11 0.81,-1.01 0.93,-0.91 1.03,-0.79 1.13,-0.66 1.19,-0.52 1.25,-0.37 1.28,-0.22 1.31,-0.06 1.30,0.09 1.28,0.24 1.24,0.40 1.19,0.55 1.10,0.68 1.02,0.82 1.02,0.82 L 1.02,0.82 Z"></path></g><g transform="translate(79.46739130434844 41.53260869565216) rotate(0 -0.5 20.25)" stroke="none" fill="#000000"><path d="M 1.29,-0.21 Q 1.29,-0.21 1.56,0.62 1.84,1.46 1.98,3.22 2.13,4.98 2.17,6.13 2.20,7.29 2.08,9.37 1.96,11.44 1.76,12.97 1.56,14.50 1.48,16.35 1.41,18.21 1.22,20.09 1.04,21.97 0.97,23.56 0.90,25.15 0.72,26.91 0.55,28.66 0.48,30.20 0.40,31.73 0.37,32.82 0.34,33.91 0.32,35.61 0.30,37.30 -1.25,37.73 -2.81,38.15 -2.77,37.94 -2.74,37.73 -2.64,37.54 -2.54,37.35 -2.39,37.21 -2.23,37.06 -2.04,36.97 -1.85,36.88 -1.64,36.86 -1.42,36.84 -1.22,36.88 -1.01,36.93 -0.83,37.04 -0.64,37.15 -0.51,37.31 -0.37,37.47 -0.29,37.67 -0.21,37.86 -0.20,38.08 -0.19,38.29 -0.25,38.49 -0.30,38.70 -0.42,38.87 -0.54,39.05 -0.71,39.18 -0.88,39.31 -1.08,39.38 -1.28,39.44 -1.50,39.44 -1.71,39.44 -1.91,39.37 -2.11,39.31 -2.28,39.18 -2.45,39.05 -2.57,38.87 -2.69,38.70 -2.74,38.49 -2.80,38.29 -2.79,38.08 -2.78,37.86 -2.70,37.67 -2.62,37.47 -2.48,37.31 -2.35,37.15 -2.16,37.04 -1.98,36.93 -1.77,36.88 -1.57,36.84 -1.35,36.86 -1.14,36.88 -0.95,36.97 -0.76,37.06 -0.60,37.21 -0.45,37.35 -0.35,37.54 -0.25,37.73 -0.22,37.94 -0.18,38.15 -0.18,38.15 -0.18,38.15 -1.73,37.71 -3.28,37.28 -3.27,35.54 -3.25,33.81 -3.22,32.69 -3.18,31.56 -3.10,29.93 -3.03,28.29 -2.85,26.64 -2.67,24.99 -2.59,23.30 -2.51,21.62 -2.33,19.83 -2.15,18.05 -2.05,16.04 -1.96,14.02 -1.75,12.52 -1.55,11.02 -1.39,9.17 -1.24,7.32 -1.22,6.19 -1.21,5.07 -1.23,3.52 -1.26,1.98 -1.28,1.09 -1.29,0.21 -1.30,0.05 -1.30,-0.10 -1.27,-0.25 -1.24,-0.41 -1.18,-0.55 -1.11,-0.69 -1.01,-0.82 -0.91,-0.94 -0.78,-1.03 -0.66,-1.13 -0.51,-1.19 -0.37,-1.25 -0.21,-1.28 -0.05,-1.31 0.09,-1.29 0.25,-1.28 0.40,-1.23 0.55,-1.18 0.69,-1.10 0.82,-1.02 0.93,-0.90 1.04,-0.79 1.12,-0.65 1.20,-0.51 1.25,-0.36 1.29,-0.21 1.29,-0.21 L 1.29,-0.21 Z"></path></g><g transform="translate(49.14130434782669 111.31521739130434) rotate(0 -0.5 20.25)" stroke="none" fill="#000000"><path d="M 1.29,-0.21 Q 1.29,-0.21 1.56,0.62 1.84,1.46 1.98,3.22 2.13,4.98 2.17,6.13 2.20,7.29 2.08,9.37 1.96,11.44 1.76,12.97 1.56,14.50 1.48,16.35 1.41,18.21 1.22,20.09 1.04,21.97 0.97,23.56 0.90,25.15 0.72,26.91 0.55,28.66 0.48,30.20 0.40,31.73 0.37,32.82 0.34,33.91 0.32,35.61 0.30,37.30 -1.25,37.73 -2.81,38.15 -2.77,37.94 -2.74,37.73 -2.64,37.54 -2.54,37.35 -2.39,37.21 -2.23,37.06 -2.04,36.97 -1.85,36.88 -1.64,36.86 -1.42,36.84 -1.22,36.88 -1.01,36.93 -0.83,37.04 -0.64,37.15 -0.51,37.31 -0.37,37.47 -0.29,37.67 -0.21,37.86 -0.20,38.08 -0.19,38.29 -0.25,38.49 -0.30,38.70 -0.42,38.87 -0.54,39.05 -0.71,39.18 -0.88,39.31 -1.08,39.38 -1.28,39.44 -1.50,39.44 -1.71,39.44 -1.91,39.37 -2.11,39.31 -2.28,39.18 -2.45,39.05 -2.57,38.87 -2.69,38.70 -2.74,38.49 -2.80,38.29 -2.79,38.08 -2.78,37.86 -2.70,37.67 -2.62,37.47 -2.48,37.31 -2.35,37.15 -2.16,37.04 -1.98,36.93 -1.77,36.88 -1.57,36.84 -1.35,36.86 -1.14,36.88 -0.95,36.97 -0.76,37.06 -0.60,37.21 -0.45,37.35 -0.35,37.54 -0.25,37.73 -0.22,37.94 -0.18,38.15 -0.18,38.15 -0.18,38.15 -1.73,37.71 -3.28,37.28 -3.27,35.54 -3.25,33.81 -3.22,32.69 -3.18,31.56 -3.10,29.93 -3.03,28.29 -2.85,26.64 -2.67,24.99 -2.59,23.30 -2.51,21.62 -2.33,19.83 -2.15,18.05 -2.05,16.04 -1.96,14.02 -1.75,12.52 -1.55,11.02 -1.39,9.17 -1.24,7.32 -1.22,6.19 -1.21,5.07 -1.23,3.52 -1.26,1.98 -1.28,1.09 -1.29,0.21 -1.30,0.05 -1.30,-0.10 -1.27,-0.25 -1.24,-0.41 -1.18,-0.55 -1.11,-0.69 -1.01,-0.82 -0.91,-0.94 -0.78,-1.03 -0.66,-1.13 -0.51,-1.19 -0.37,-1.25 -0.21,-1.28 -0.05,-1.31 0.09,-1.29 0.25,-1.28 0.40,-1.23 0.55,-1.18 0.69,-1.10 0.82,-1.02 0.93,-0.90 1.04,-0.79 1.12,-0.65 1.20,-0.51 1.25,-0.36 1.29,-0.21 1.29,-0.21 L 1.29,-0.21 Z"></path></g><g transform="translate(15.33695652173924 177.5108695652174) rotate(0 -0.5 20.249999999999986)" stroke="none" fill="#000000"><path d="M 1.29,-0.21 Q 1.29,-0.21 1.56,0.62 1.84,1.46 1.98,3.22 2.13,4.98 2.17,6.13 2.20,7.29 2.08,9.37 1.96,11.44 1.76,12.97 1.56,14.50 1.48,16.35 1.41,18.21 1.22,20.09 1.04,21.97 0.97,23.56 0.90,25.15 0.72,26.91 0.55,28.66 0.48,30.20 0.40,31.73 0.37,32.82 0.34,33.91 0.32,35.61 0.30,37.30 -1.25,37.73 -2.81,38.15 -2.77,37.94 -2.74,37.73 -2.64,37.54 -2.54,37.35 -2.39,37.21 -2.23,37.06 -2.04,36.97 -1.85,36.88 -1.64,36.86 -1.42,36.84 -1.22,36.88 -1.01,36.93 -0.83,37.04 -0.64,37.15 -0.51,37.31 -0.37,37.47 -0.29,37.67 -0.21,37.86 -0.20,38.08 -0.19,38.29 -0.25,38.49 -0.30,38.70 -0.42,38.87 -0.54,39.05 -0.71,39.18 -0.88,39.31 -1.08,39.38 -1.28,39.44 -1.50,39.44 -1.71,39.44 -1.91,39.37 -2.11,39.31 -2.28,39.18 -2.45,39.05 -2.57,38.87 -2.69,38.70 -2.74,38.49 -2.80,38.29 -2.79,38.08 -2.78,37.86 -2.70,37.67 -2.62,37.47 -2.48,37.31 -2.35,37.15 -2.16,37.04 -1.98,36.93 -1.77,36.88 -1.57,36.84 -1.35,36.86 -1.14,36.88 -0.95,36.97 -0.76,37.06 -0.60,37.21 -0.45,37.35 -0.35,37.54 -0.25,37.73 -0.22,37.94 -0.18,38.15 -0.18,38.15 -0.18,38.15 -1.73,37.71 -3.28,37.28 -3.27,35.54 -3.25,33.81 -3.22,32.69 -3.18,31.56 -3.10,29.93 -3.03,28.29 -2.85,26.64 -2.67,24.99 -2.59,23.30 -2.51,21.62 -2.33,19.83 -2.15,18.05 -2.05,16.04 -1.96,14.02 -1.75,12.52 -1.55,11.02 -1.39,9.17 -1.24,7.32 -1.22,6.19 -1.21,5.07 -1.23,3.52 -1.26,1.98 -1.28,1.09 -1.29,0.21 -1.30,0.05 -1.30,-0.10 -1.27,-0.25 -1.24,-0.41 -1.18,-0.55 -1.11,-0.69 -1.01,-0.82 -0.91,-0.94 -0.78,-1.03 -0.66,-1.13 -0.51,-1.19 -0.37,-1.25 -0.21,-1.28 -0.05,-1.31 0.09,-1.29 0.25,-1.28 0.40,-1.23 0.55,-1.18 0.69,-1.10 0.82,-1.02 0.93,-0.90 1.04,-0.79 1.12,-0.65 1.20,-0.51 1.25,-0.36 1.29,-0.21 1.29,-0.21 L 1.29,-0.21 Z"></path></g><g transform="translate(99.67391304347848 259.9891304347827) rotate(0 -44.29347826086973 -20.92391304347828)" stroke="none" fill="#000000"><path d="M -0.82,1.02 Q -0.82,1.02 -1.75,0.59 -2.69,0.16 -3.82,-0.70 -4.94,-1.58 -6.14,-2.37 -7.34,-3.17 -8.70,-4.17 -10.06,-5.17 -11.65,-6.17 -13.25,-7.16 -15.67,-8.69 -18.10,-10.23 -20.95,-11.79 -23.80,-13.34 -26.41,-14.63 -29.01,-15.91 -31.70,-17.24 -34.39,-18.57 -37.05,-19.75 -39.71,-20.92 -42.87,-22.20 -46.02,-23.48 -48.51,-24.68 -51.01,-25.89 -53.65,-27.37 -56.29,-28.84 -58.63,-30.07 -60.96,-31.31 -63.52,-32.61 -66.07,-33.91 -67.91,-34.76 -69.75,-35.61 -71.49,-36.10 -73.24,-36.58 -74.52,-36.97 -75.81,-37.35 -76.98,-37.49 -78.15,-37.62 -80.04,-37.89 -81.93,-38.17 -83.68,-38.68 -85.43,-39.20 -86.48,-39.54 -87.54,-39.88 -87.96,-40.19 -88.37,-40.49 -88.47,-40.30 -88.57,-40.11 -88.72,-39.96 -88.87,-39.82 -89.07,-39.72 -89.26,-39.63 -89.47,-39.61 -89.68,-39.58 -89.89,-39.62 -90.10,-39.67 -90.28,-39.78 -90.46,-39.88 -90.60,-40.04 -90.74,-40.20 -90.82,-40.40 -90.90,-40.60 -90.92,-40.81 -90.93,-41.02 -90.88,-41.23 -90.82,-41.43 -90.71,-41.61 -90.59,-41.79 -90.42,-41.92 -90.25,-42.05 -90.05,-42.12 -89.85,-42.19 -89.64,-42.19 -89.43,-42.19 -89.22,-42.13 -89.02,-42.06 -88.85,-41.93 -88.68,-41.81 -88.56,-41.63 -88.44,-41.46 -88.38,-41.25 -88.32,-41.05 -88.33,-40.84 -88.34,-40.63 -88.41,-40.43 -88.49,-40.23 -88.63,-40.07 -88.76,-39.90 -88.94,-39.79 -89.12,-39.68 -89.33,-39.63 -89.54,-39.58 -89.75,-39.60 -89.96,-39.62 -90.16,-39.71 -90.35,-39.80 -90.50,-39.94 -90.66,-40.09 -90.76,-40.27 -90.86,-40.46 -90.90,-40.67 -90.94,-40.88 -90.91,-41.09 -90.87,-41.30 -90.87,-41.30 -90.87,-41.30 -88.10,-42.21 -85.33,-43.13 -84.13,-42.65 -82.94,-42.18 -81.40,-41.78 -79.87,-41.38 -78.79,-41.31 -77.71,-41.24 -76.24,-41.05 -74.77,-40.86 -73.51,-40.49 -72.25,-40.12 -70.22,-39.55 -68.19,-38.99 -66.29,-38.10 -64.38,-37.22 -61.81,-35.91 -59.24,-34.60 -56.86,-33.36 -54.48,-32.12 -51.92,-30.72 -49.36,-29.33 -46.96,-28.19 -44.57,-27.05 -41.36,-25.76 -38.15,-24.46 -35.41,-23.25 -32.67,-22.04 -29.99,-20.70 -27.31,-19.37 -24.63,-18.05 -21.95,-16.72 -18.99,-15.10 -16.04,-13.48 -13.62,-11.94 -11.20,-10.40 -9.49,-9.30 -7.78,-8.21 -6.51,-7.24 -5.24,-6.27 -3.94,-5.37 -2.63,-4.47 -1.53,-3.57 -0.43,-2.66 0.19,-1.84 0.82,-1.02 0.93,-0.91 1.04,-0.79 1.12,-0.66 1.20,-0.52 1.24,-0.37 1.29,-0.22 1.30,-0.06 1.31,0.09 1.27,0.24 1.24,0.40 1.18,0.54 1.11,0.69 1.01,0.81 0.91,0.93 0.79,1.03 0.66,1.13 0.52,1.19 0.37,1.25 0.22,1.28 0.06,1.31 -0.09,1.30 -0.24,1.28 -0.40,1.24 -0.55,1.19 -0.68,1.10 -0.82,1.02 -0.82,1.02 L -0.82,1.02 Z"></path></g><g transform="translate(268.7677754168028 58.259521085322035) rotate(0 221.2236024844724 70.66865079365095)"><text x="0" y="99.33730158730188" font-family="Virgil, Segoe UI Emoji" font-size="110.61180124223618px" fill="#000000" text-anchor="start" style="white-space: pre;" direction="ltr">da BBT</text></g></svg>